<?xml version="1.0" standalone="no"?>
<!DOCTYPE svg PUBLIC "-//W3C//DTD SVG 1.1//EN" "http://www.w3.org/Graphics/SVG/1.1/DTD/svg11.dtd" >
<svg xmlns="http://www.w3.org/2000/svg" xmlns:xlink="http://www.w3.org/1999/xlink" version="1.1">
<metadata></metadata>
<defs>
<font id="reeyregular" horiz-adv-x="1228" >
<font-face units-per-em="2048" ascent="1638" descent="-410" />
<missing-glyph horiz-adv-x="921" />
<glyph horiz-adv-x="0" />
<glyph horiz-adv-x="682" />
<glyph unicode=" "  horiz-adv-x="921" />
<glyph unicode="&#x09;" horiz-adv-x="921" />
<glyph unicode="&#xa0;" horiz-adv-x="921" />
<glyph unicode="!" horiz-adv-x="532" d="M-2 -66l33 52q-19 79 14 114q14 12 28 13.5t23.5 -4t22.5 -12.5t22 -9q50 -6 74 -68l-10 -51q-63 -47 -76 -55q-22 -15 -35.5 -11.5t-38.5 29.5q-3 -2 -11.5 -8t-14.5 -10zM121 479q41 93 51 119q14 37 95 250.5t126 327.5q24 60 72 182t77.5 196t75 177t87.5 188 q2 4 36 86l33 59q18 -11 53.5 -31t51.5 -30l20 -88q-64 -74 -129 -223q-54 -124 -164 -396q-29 -72 -103.5 -259t-115.5 -289q-42 -102 -96 -224q-5 0 -13 1t-12 1q-6 -9 -26.5 -40.5t-30.5 -49.5q-18 -1 -31.5 5t-32 20t-24.5 18z" />
<glyph unicode="&#x22;" horiz-adv-x="831" d="M102 942q13 63 70 117q109 109 176 276q5 14 12.5 39.5t15.5 46.5t19 37q4 8 31 35l82 -88q-1 -3 -3 -10t-3 -11.5t0 -7.5q9 -18 10.5 -35.5t-5.5 -36t-13 -29t-19 -30.5q-66 -117 -143 -229q-14 -21 -54 -59.5t-55 -63.5q-1 -3 -4 -5t-7.5 -4t-6.5 -3l-15 10 q-2 1 -3 2.5t-2.5 4.5l-2.5 5q8 11 19 29l-2 4zM449 1001q18 76 81 136q49 42 68 147q0 1 3 14.5t3.5 15.5l3.5 14t4.5 15.5t4.5 14t6 15.5t6.5 13t8 14.5t9.5 12.5q9 12 21 35q10 -7 20 -10q2 -13 2 -44t4.5 -55.5t18.5 -48.5l16 -10q-3 -185 -156 -313 q-27 -22 -44.5 -16.5t-32.5 38.5z" />
<glyph unicode="#" d="M-125 365q9 31 10 38q0 45 49 54q35 8 119 28t129 29q7 1 54 15t75 12q9 0 21.5 11t15.5 21q10 27 43.5 88.5t42.5 100.5q3 11 9 23t16 28t16 27h-15h-15t-12.5 -1t-12 -3t-9.5 -6t-9.5 -10t-6.5 -15q-2 4 -10 24q-23 0 -42 0.5t-38 -10t-33 -33.5q-87 10 -137 58 q4 68 21 104q25 61 75 64q45 6 142 14q8 0 68.5 6t93.5 2q6 0 22 8q14 19 24.5 43.5t16 43t13.5 49.5t12 45q36 115 45 139q9 23 92 233q-4 5 -13 15t-12 14q8 25 35 90q6 0 10 -2l6 -43q6 2 18.5 9t18.5 10q52 -60 60 -70q-27 -120 -120 -325t-112 -257q159 -15 373 -39 l25 35l174 314q11 18 15.5 28t4.5 26t-12 30q18 21 35 38q70 15 116 -28q44 -63 -2 -144q-7 -14 -64.5 -118.5t-86.5 -159.5l-33 -60q5 -2 16 -5.5t17 -4.5q38 -12 80 -33.5t66 -37.5t71 -48q50 -35 59 -92q1 -15 0 -23t-4 -22t-4 -20q-19 -12 -34.5 -14t-27 5t-19.5 15.5 t-19 21.5t-19 19l-5 -7.5t-5 -7t-4 -4.5q-27 35 -66.5 53t-95.5 31t-82 23q-19 -26 -38 -58t-31.5 -55t-33 -62.5t-30.5 -58.5q14 -9 28.5 -13t36.5 -5t27 -2q149 -22 199 -31q88 -18 154 -90l-72 -43q3 -9 18 -21t22.5 -25.5t0.5 -31.5q-274 97 -483 99 q-50 -80 -119.5 -235.5t-100.5 -213.5q-30 -9 -39.5 -7.5t-33.5 19.5l39 103q-16 -10 -43.5 -26t-42.5 -25q0 38 2 43q72 171 114 266q22 50 27 63q-39 -4 -112 -7.5t-130 -9.5t-108 -20q-7 -18 -26 -58t-28 -62q-10 -25 -35 -89t-44 -109t-39 -85q-13 -27 -23 -58.5 t-20.5 -72.5t-18.5 -66q-6 30 -6 43q-14 0 -22 2q0 11 2 17q49 153 47 239q-1 7 1.5 28.5t-1.5 29.5q-11 -31 -33 -92.5t-33 -92.5q-12 -37 -24.5 -52t-51.5 -36q0 34 2 39q3 10 16 49.5t17.5 54t16.5 48.5t21 53.5t22.5 46t27.5 49.5q44 68 49 144q-69 -16 -94 -19 q-111 -15 -137 -16q-5 -1 -11.5 2t-15.5 9t-14 9l-33 -8q0 15 2 17q11 13 45 43q-12 8 -17 8t-18.5 -4.5t-19.5 -5.5zM459 571h356q23 45 59 127q18 35 62 125q-14 3 -133 25q-8 1 -26.5 2t-31.5 3.5t-22 8.5q-14 11 -32 16t-30 5.5t-36 -1t-35 -1.5zM1157 887 q84 -40 148 -37q-65 47 -93.5 54t-54.5 -17zM1182 1100q18 3 28 12t17.5 26t11.5 23q-2 2 -10 6q-8 -14 -26.5 -38.5t-20.5 -28.5zM1348 829q6 -3 18 -10t16.5 -8.5t18 -5t22.5 1.5q-19 19 -34 24t-41 -2z" />
<glyph unicode="$" horiz-adv-x="1697" d="M0 31q6 25 16 51l60 -33q-15 60 -25 90q15 -11 31.5 -17t27.5 -8t31 2t26 5.5t29 10t25 9.5q234 84 508 236q132 73 215 133q72 53 117 115q103 148 31 331q-28 65 -103 160q-4 4 -86 113q2 15 4 42t4 40q3 40 24.5 69.5t61.5 65.5q33 28 78 51t76 35t88 31q15 6 61 26 q-16 57 21 86q10 7 14 25q2 6 27 81.5t33 114.5q15 80 61 138q32 -3 44 -12t50 -60q-12 -44 -42 -161.5t-48 -184.5q119 8 164 10q-21 -48 -76 -55q-96 -19 -174 -60q-24 -12 -53.5 -22t-65.5 -21t-55 -18q-28 -9 -125 -47q-6 -3 -57 -37q2 -2 6 -10q18 6 100 41 q57 22 167 47.5t155 40.5q16 5 44 16.5t36 14.5q94 37 151 57q3 1 6.5 -0.5t8 -4t6.5 -3.5q-29 -49 -33 -58q-27 5 -33 0.5t-20 -37.5q-31 -9 -133 -35.5t-156 -43.5q-59 -18 -95.5 -31t-86 -38t-88.5 -56q8 -11 25.5 -37.5t30 -43t26.5 -30.5q83 -82 119.5 -197.5 t12.5 -241.5t-114 -222q-45 -50 -119 -107q-71 -54 -237 -172q-14 -9 -47 -28t-52 -31q6 -29 -4.5 -51t-36.5 -48q-34 -34 -94 -127q-18 -29 -49 -83t-43 -74q-11 -19 -34 -52t-31 -45q-14 2 -27 2q-9 -2 -20.5 -12.5t-19 -14t-28.5 4.5q24 24 29 27q76 65 123 153 q56 106 82 148q22 35 88 129q-56 0 -96 -58q-24 -35 -88 -143q-45 -72 -54 -90q-11 -23 -51 -53.5t-53 -55.5q-8 10 -23 25q11 17 42.5 65.5t47.5 75.5q51 79 76 148q-32 -9 -41 -13l-194 -67q-112 -38 -199 84z" />
<glyph unicode="%" horiz-adv-x="1359" d="M0 -47q4 9 9.5 24.5t10.5 26.5t11 19q95 116 141 157q17 16 34 35t36 42t30 36q129 153 252 309q30 38 135 180q35 47 135 177.5t152 203.5q51 71 232 355q10 15 39 90l10 -4q15 13 19 53.5t26 46.5q43 -30 49 -37q58 -61 29 -129q-32 -84 -68 -137q-87 -142 -195 -295 q-93 -133 -211.5 -287t-203 -259t-231.5 -284t-214 -262q-14 -18 -84 -92q-30 -35 -77 -18q-18 30 -21 37q-18 3 -45 12zM360 1374q59 148 168 217q52 34 94 50t91 12q4 0 20 4q29 12 39.5 11t42.5 -19v-43q-6 4 -14 12q-3 -1 -12 -5t-15 -7q16 -29 18.5 -54t-9 -47t-23 -36 t-33.5 -35q-7 -12 -16.5 -33t-16.5 -33.5t-16 -21.5q-71 -68 -152 -76q-52 -5 -67 8q-10 9 -35 23.5t-41.5 31t-22.5 41.5zM494 1327q2 -2 3 -5.5t1.5 -5t1.5 -1.5q7 2 26.5 7t30.5 7q-1 2 -2 6t-2 6q-7 -1 -27.5 -6.5t-31.5 -7.5zM643 135q-6 56 33 98q52 58 115 80 q11 3 37 14t36 15q7 -8 56 -57q2 -2 13.5 -14.5t18.5 -18.5q37 -35 42 -79t-23 -87q-62 -88 -150 -104q-99 -19 -168 57q-9 92 -10 96zM649 1688q54 43 107 38q4 0 7.5 -3.5t7.5 -9t7 -7.5l-6 -14q-20 18 -40 18.5t-45.5 -10t-37.5 -12.5z" />
<glyph unicode="&#x26;" horiz-adv-x="1703" d="M0 -103.5q-2 26.5 20 62.5q4 -25 25 -18q3 -7 14 -35q20 29 19 39t-12 18q11 125 98 232l325 380q6 6 17.5 19.5t17.5 19.5q-5 13 -23 53t-26 62q-91 240 21 457q106 204 292 305q50 26 82 33q114 29 185 -47q11 -14 33.5 -38t29.5 -32q58 -67 43 -156q-4 1 -13.5 2 t-14.5 2q47 -106 -39 -231q-73 -103 -224 -289q-20 -25 -60.5 -67t-51.5 -54q-16 -16 -39 -49q65 -110 151 -194l56 28q49 24 203.5 101t240.5 118q69 34 172 70q12 4 25.5 6.5t33 4.5t27.5 3l35 13q5 -5 12.5 -14.5t14.5 -17.5t14 -15v-56l-39 -24q0 -19 -2 -31 q-132 -64 -227 -108q-9 -4 -78 -19q-9 -2 -18 -5t-19.5 -7.5t-17 -7.5t-19 -10t-16 -9t-18.5 -11.5t-17 -10.5q-37 -26 -114 -72t-85 -51q-4 -2 -22 -19l69 -63q199 -177 340 -377q41 -60 0 -98q-5 -5 -49 -27q-21 38 -47.5 77t-48 68.5t-58 71t-54.5 62t-64 65.5 t-59.5 58.5t-66.5 64t-63 59.5q-6 -5 -17 -15t-17 -15q-25 -4 -93 -45q-112 -78 -211 -127q-100 -48 -403 -183q15 -6 31 -14q-94 -11 -172 57q-27 24 -29 50.5zM248 12q24 -2 44.5 6.5t42 23t34.5 19.5q-3 2 -8 5.5t-8.5 6t-6.5 5.5q84 48 244 136.5t201 111.5l-146 157 q-223 -238 -397 -471zM453 100q11 0 25 -1l14 -1q71 35 133 62q7 4 27.5 15.5t29.5 16t27 13t30.5 12.5t30 7t33.5 3q1 0 2.5 2l3 4t2.5 3q29 12 33 14l-15 29q-3 -1 -12 -3.5t-12.5 -4t-7.5 -7t-4 -14.5h-19.5t-23.5 -4l-293 -135q-1 -1 -2 -5t-2 -6zM506 412 q39 14 58 29.5t32 45.5q-27 -16 -90 -75zM633 733q116 129 145 162q140 160 193 254q29 57 37 86q16 60 -11 94q-78 9 -169.5 -39.5t-149.5 -132.5q-135 -195 -45 -424zM793 1319q15 0 30.5 3t24.5 5t26 10t20.5 9.5t23 13.5t20.5 12q-38 8 -70 -5.5t-75 -47.5zM1452 510 q80 22 127 65q-88 -3 -127 -65z" />
<glyph unicode="'" horiz-adv-x="493" d="M102 934q0 12 2 16q14 20 52 27q65 6 90 80q12 40 17.5 69t5.5 66.5t-11 71.5q-1 4 -29 41q15 44 17 53q2 1 24 16t37 23q8 -13 31 -39h43q29 -115 -23.5 -283t-138.5 -237q-9 0 -30.5 -3t-33 -3t-24 10.5t-18.5 34.5l41 20q0 17 2 29q-36 4 -54 8z" />
<glyph unicode="(" d="M-102 -160q56 530 264 1071q146 382 352 664q29 40 86.5 120t87.5 120q8 11 19 22t24 22t19 17q3 0 22.5 -3t24 -4t20 -4t22 -6.5t18 -9t19.5 -13t15 -17.5q12 -38 10 -52t-27 -55q-6 -1 -24 -4.5t-33 -5.5q-71 -82 -90 -107q-343 -450 -506 -972q-5 -16 -19.5 -48.5 t-19.5 -48.5q-38 -115 -53 -184q-48 -222 -61 -322q-6 -48 -21 -309q0 -16 5 -49t7 -49q18 7 43.5 19t30.5 14l86 -56l3.5 -14t5 -18.5t5.5 -16.5q-2 -2 -13.5 -12.5t-15 -14t-13 -12t-15 -12.5t-14 -10.5t-16.5 -10.5t-17 -8q-13 -8 -33 -8q-67 5 -119.5 39.5t-68.5 99.5 q-24 108 -10 248z" />
<glyph unicode=")" d="M23 -434q2 18 10 59q49 27 114 49q39 15 66 62q57 92 166 287q-4 -16 -12.5 -48.5t-12.5 -52.5q38 45 56 111q8 27 21.5 84t21.5 86q37 108 77 203q28 71 90 219.5t93 228.5q36 92 54 142.5t41 132t32 151.5q9 75 12 156q0 90 -64 151q-17 14 -41 2t-36 2l-21 -39 q-22 13 -22 17q2 26 12 84l-12 26q-3 -1 -8 -3t-8.5 -3.5t-4.5 -3.5q-5 -7 -26 -49q-13 43 5.5 76.5t59.5 42.5q96 21 175.5 -39t109.5 -144q22 -61 26.5 -129.5t-2.5 -124t-24 -128.5q-62 -257 -187 -551q-155 -367 -290 -666q-13 -30 -30 -60.5t-41.5 -71t-33.5 -56.5 q-3 -4 -20 -21l37 86q12 27 -7 39q-63 -76 -69 -158q-13 -61 -76 -143q-47 -64 -137 -47q-15 4 -30.5 10.5t-35 16.5t-28.5 14zM287 -274l63 131q-60 -70 -63 -131zM358 -131q14 15 17 22t4 27q-11 -21 -21 -49zM834 1591q24 -57 32 -71q12 42 -32 71zM909 1118 q5 15 15 43.5t14.5 43t11.5 43.5t5 44.5t-5 46.5q-19 -65 -41 -170v-51z" />
<glyph unicode="*" d="M178 1198q-8 63 32 122t116 62q21 1 28.5 5t34.5 28q-43 58 -59 82l22 68q37 -46 51 -62q0 26 -22 65t-25 62q12 -8 21.5 -18t20.5 -25.5t14 -19.5q47 -60 53 -66q24 -24 67 -55q14 11 185 143q53 -10 89 -32t56 -66q1 -5 2 -19t2 -20q-1 -2 -5.5 -10t-6.5 -10.5t-6.5 -9 t-8 -9t-9 -6t-12 -5t-13.5 -1.5l119 -49q23 -10 42.5 -24t36.5 -33.5t28.5 -35t27.5 -40.5q33 -53 -25 -115q-50 -8 -57 39q-3 1 -12.5 3.5t-15 4.5t-7.5 6q-10 28 -53 39q-157 43 -199 53q-6 1 -18 2t-19 2q37 -59 45 -71q120 -181 144 -219q15 -23 12.5 -40.5t-25.5 -45.5 q-25 -13 -57 12q-51 37 -98 115q-44 71 -101 157q-9 13 -32 43q-78 -93 -92 -110q-7 -9 -20.5 -30t-20.5 -30q-26 -34 -56 -35t-57 19q-102 63 -117 180zM418 1485q24 -28 35 -39q6 6 10 8q-13 19 -37 39z" />
<glyph unicode="+" horiz-adv-x="952" d="M0 637q73 43 115 70q29 -10 39 14q-15 19 -25 24t-55 19q86 8 129 14q25 3 71.5 12.5t63.5 12.5l22 28q1 -4 3 -9t5 -12t5 -13q5 3 11.5 7.5t11 7.5t8.5 7t6 8q18 41 24 82q12 57 45 80q2 7 33 90q41 -24 56 -70.5t-3 -84.5q-8 -19 -22 -56t-19 -51q10 0 24.5 -0.5 t24.5 -0.5t19 1q55 2 164 10q85 6 141 -47q5 -7 43 -30l-12 -60q2 -3 10.5 -14.5t11.5 -18t2 -18.5t-10 -25q-34 6 -39 11q-17 15 -39.5 18.5t-40.5 -0.5q-64 -2 -180.5 -10t-153.5 -10l-9 -4.5t-11 -4.5q-25 -64 -52 -191.5t-36 -160.5l-25 21l-16.5 -11t-22.5 -16 q10 95 -32 158q-3 -9 -4 -31t-8.5 -36t-28.5 -21q-6 10 -7.5 21t-0.5 18t5 21.5t5 19.5l55 174q1 3 2 10.5t2 11.5q-32 15 -85.5 13t-100.5 -21q-13 16 -57 17t-62 26zM381 885q29 140 70 227q10 -8 13 -17.5t1.5 -15t-6.5 -16t-6 -12.5q-11 -31 -66 -154z" />
<glyph unicode="," horiz-adv-x="397" d="M41 -393q0 10 2 12q6 10 21.5 24.5t25 30t10.5 35.5q-15 -7 -45 -14q0 10 -1.5 14.5t3.5 11.5t7 9.5t8 8t8 7.5q136 133 113 356q-7 65 49 146q10 -8 28.5 -22t31 -25t20.5 -23q29 -50 32 -104q4 -37 -8 -111q-28 -181 -133 -315q-23 -32 -57 -60q-51 -42 -76 27 q-5 -1 -18 -4t-21 -4z" />
<glyph unicode="-" d="M215 588q-7 47 49 84q81 60 189 57q301 -15 485 -55q13 -2 63 -19q2 -5 7 -22.5t8 -24.5q28 -55 18 -85t-65 -58q-252 62 -553 72q-77 4 -125 -27q-35 15 -41 24t-4 44q-12 2 -31 10z" />
<glyph unicode="." horiz-adv-x="352" d="M41 92q-1 44 43 84q15 -9 33 -24l41 26q4 12 11 34t11 34q1 1 4.5 3.5t5.5 4.5q71 -43 58 -158q-4 -39 -31 -71.5t-70 -51.5q-17 17 -49 45q-1 -2 -5.5 -5t-6.5 -5q-44 40 -45 84z" />
<glyph unicode="/" d="M4 -258q-12 70 37 170q98 189 250 399q47 64 204 277.5t240 331.5q180 249 289 460q2 3 20 29q9 -7 41.5 -23.5t48 -35.5t19.5 -52q-26 -64 -35 -81q-17 -29 -58 -98t-63.5 -107t-57.5 -94.5t-68 -105t-66 -93.5q-97 -123 -109 -141q-5 -7 -30 -38t-33 -53 q-6 -13 -21.5 -28t-29.5 -23q-41 -28 -80 -92q-212 -344 -316 -518q-9 -16 -17.5 -34t-19.5 -42.5t-16 -36.5q-42 -34 -78 17q-5 1 -16.5 -3.5t-20.5 -2.5t-14 18z" />
<glyph unicode="0" horiz-adv-x="1105" d="M0 203q-3 209 94 352q1 2 9.5 12.5t9.5 16.5q38 112 153 282q107 158 238 281q45 43 135 106q82 58 160 21q30 -13 49 14l-19 23q-10 1 -26.5 -4.5t-29.5 -5t-25 15.5l24 61q66 40 137 20t103 -89q19 -46 22 -90q9 -221 -82 -435q-46 -102 -73 -161l-15 24 q-3 -4 -196 -285q8 7 35 31t39.5 34.5t36 28.5t45 32t44.5 26q-2 -7 -4 -14.5t-3 -11.5t-3 -7q-11 -13 -31.5 -39t-33.5 -42t-31.5 -37.5t-34.5 -38.5q-159 -169 -315 -261q-46 -30 -136 -57q-51 -15 -111 7t-87 79q-3 7 -8 13.5t-13.5 15t-11.5 12.5l-14 -22q-2 2 -6 4.5 t-5 3.5q-2 7 -8 26t-9 32t-3 26zM168 317q-22 -87 6 -149q12 0 25.5 1t23 3t24 6t21.5 6.5t23.5 8.5t21.5 8q19 6 36.5 18.5t37 30.5t31.5 26q133 95 303 287q46 50 108 168q10 19 20 42t16 39t16 44.5t14 40.5l6 18q6 76 14 228q4 37 -22 47q25 -80 -14 -129q-3 -3 -13 -6 l-16 32q-1 -7 -4 -19t-4 -19l-39 65q-61 6 -111 -35q-116 -93 -149 -131q-79 -92 -226 -293q-103 -142 -149 -338zM301 147q11 -6 25.5 -2t20.5 7.5t18 12t18 11.5q35 24 40.5 30t6.5 27zM600 1092l66 45q-38 3 -52 -6.5t-14 -38.5zM872.5 1220q0.5 -4 1 -6t4 -5.5t4.5 -5 t5.5 -5t5.5 -4.5q3 4 4 9t1.5 8t-1 8.5t-2.5 8t-4 9t-4 8.5q-5 -5 -8.5 -9.5t-5 -8t-1 -7.5z" />
<glyph unicode="1" d="M0 99.5q-1 2.5 0 4.5q12 52 23 72q50 104 151.5 309.5t151.5 309.5q28 34 54 75t55.5 91.5t47.5 78.5q41 72 49 109q9 37 44 97t40 71l29 57q-27 -6 -37 -10q-246 -111 -336 -154q-15 -7 -40 -23.5t-29 -19.5q-31 -18 -44.5 -15.5t-37.5 30.5l-47 4q-4 71 28 116.5 t97 77.5q117 57 190 90.5t180.5 73t202.5 60.5h6q55 22 66 24q11 3 65 8l25 -39q4 1 24 9l15 -68q-7 -28 -26 -44.5t-56.5 -30.5t-46.5 -19q-12 -36 -26.5 -71.5t-35.5 -77.5t-33 -65t-40.5 -74t-36.5 -66q-209 -379 -211 -383q-103 -196 -275 -539q-15 -29 -38 -84.5 t-35 -79.5q-43 -9 -56 6t-10 76l-41 4q-1 1 -3 4t-3 5.5zM424 844l31 -35q32 41 26 70l-28 -17l26 72l-8 2zM489 979q3 3 9.5 12t9 12.5t8 13t5.5 15t2.5 18t-1.5 21.5z" />
<glyph unicode="2" d="M0 1122q5 57 10 74q22 61 45 92q44 58 138 113q137 80 233 106q22 6 115 25q120 21 207 -100q81 -109 34 -226q-35 -80 -49 -108q-108 -207 -299 -436q-32 -40 -94.5 -112.5t-87.5 -103.5q-25 -29 -59 -88q-3 -5 -25 -65q109 -23 127 -25q107 -13 446 -49q52 -7 146 -22 q9 -1 26.5 -8t24.5 -9l-12 -22h-242v-4q22 -4 70.5 -13.5t74.5 -13.5l158 -33q2 -2 15 -14t22 -21l-31 -59q-254 34 -301 39q-43 5 -91 17.5t-105.5 30t-92.5 26.5l9 -27q-174 -20 -299 53q-118 66 -84 178q27 95 86 172q45 65 280 388q51 68 78 106t65 99t64 116 q11 23 15.5 32.5t11 30.5t5.5 39.5t-7 38.5q-5 0 -27.5 1.5t-32.5 0.5q-212 -38 -397 -184q0 -5 2 -22.5t1.5 -25t-2.5 -21t-9 -24t-19 -20.5q-3 0 -13 -2t-19 -2t-15 4q-10 6 -36 17t-41 24t-19 37z" />
<glyph unicode="3" horiz-adv-x="1187" d="M-100 164q2 16 2 49l47 74q13 -16 40 -44.5t42 -45.5q115 -7 125 -7q266 11 542 107q18 5 31 -2q-38 -22 -41 -23q-20 -9 -87.5 -34t-102.5 -43q-124 -57 -262 -82q-7 -1 -50.5 -8.5t-66.5 -14.5q11 0 31.5 -1t37 -1t31.5 2q115 16 182.5 27.5t163.5 37.5t174 62 q72 31 97 45q141 91 192 250q4 12 15.5 56.5t19.5 68.5q2 3 0.5 10.5t-3 12.5t-4.5 14.5t-5 17.5l-15 -33q-4 4 -4 7q0 57 -57 79q-88 33 -109 46q-23 15 -50 23t-63.5 14t-52.5 10q-27 7 -43 20q-67 46 -20 115q7 11 21.5 29.5t17.5 21.5l51 20q1 -1 9 -8t14 -14 q12 17 61 87.5t74 107.5q3 4 3.5 10.5t-0.5 16t-1 13.5l-35 9q-3 -5 -14.5 -25.5t-16 -28t-16.5 -23t-21 -23t-23 -15.5t-30 -12v16q-24 26 -86 84v-49q7 -8 35 -24.5t33 -37.5q-31 -2 -70 20.5t-49 49.5q-7 26 -35 51q-21 14 -25.5 26.5t-9.5 55.5l41 27q-13 36 31 45 q37 9 149 31l-4 12q52 17 87 3t61 -63q109 -55 69 -165q-17 -49 -73 -146q-8 -13 -90 -135q9 -1 27.5 -3.5t27.5 -2.5q142 -6 248 -103q63 -59 83 -159t-20 -191q-32 -66 -63 -108.5t-80 -73.5q-21 -13 -54.5 -48t-43.5 -44q-97 -85 -222 -119q-258 -75 -497 -86 q-151 -10 -248 55q-35 23 -46 45t-7 62zM565 1278q13 -8 31.5 -21t26.5 -18l34 12q-9 5 -69 49zM657 1311q13 -13 15 -13l33 9l2 10zM682 1343q15 1 42 -4.5t49 -5t42 14.5q-86 42 -133 -5zM700 1231q16 -7 68 -29l35 51l-6 15h-39q-7 1 -21 6t-18 6zM729 907q2 -4 7.5 -6.5 t15 -6t16.5 -7.5l-27 74q-36 -18 -12 -54zM856 233q48 2 98 48q4 4 16 14t19 17t13.5 21t7.5 32z" />
<glyph unicode="4" horiz-adv-x="1187" d="M104 870q2 4 21 17q-37 100 33 227q139 244 395 473q62 53 86 66q-6 -21 -29 -55.5t-30 -55.5l73 60q18 -14 30.5 -49t21.5 -46l-76 -110q-5 2 -13.5 6t-11.5 6q-12 -8 -14 -10q-204 -184 -305 -369q-38 -69 -41 -143q48 -24 57 -27q63 -20 107 -33q74 -24 101.5 -26 t111.5 10q22 33 28 45q5 12 24 51t26.5 55t22.5 50t24 56t19.5 51.5t18.5 56.5q16 59 76 106l80 -84q-6 -8 -17 -20t-17 -18.5t-13.5 -19t-6 -21l4.5 -25.5q-11 -10 -18 -23.5t-9 -22t-4.5 -28.5t-3.5 -25q-3 -21 -13.5 -57t-13.5 -51q44 -4 108.5 16t92.5 47q17 15 60 45 l65 -63q19 -62 -39 -123q-62 -69 -149 -92q-59 -17 -109 -25q-46 -11 -117 -20q-32 -69 -104.5 -235t-114.5 -255q7 48 40.5 131.5t39.5 100.5q14 46 36.5 132t29.5 109q-24 21 -45 -8q-13 -16 -35 -61q-4 -10 -18.5 -54t-22.5 -67q-34 -81 -45 -182l43 79 q-18 -56 -52.5 -176t-54.5 -180q-50 -9 -61.5 -3t-22.5 44l-39 6q1 7 5 37t10 43q35 81 105.5 242.5t105.5 242.5q2 5 10 33q-9 1 -25 2t-24 2q-14 0 -38.5 -0.5t-44 -0.5t-36.5 1q-130 5 -246 125q-41 41 -33 90zM420 1328q0 -2 3.5 -14.5t4.5 -17.5l27 25l12 -12l39 41 q-14 23 -9 34t17 30t10 34q-20 -10 -26 -16q-49 -56 -76 -95q-2 -7 -2 -9zM475 1479l10 -11q8 9 25.5 25t29 30t15.5 31l-12 9q-20 -23 -68 -84z" />
<glyph unicode="5" horiz-adv-x="1146" d="M35 242l8 16l16 -25q-1 16 -2 45t-2 44l31 28q40 -50 59 -69q15 -13 16 -44t13 -44q4 1 14.5 3.5t18.5 4.5t14 6q269 126 397 332q45 68 50 137q9 134 -109 182q-78 30 -141 82q-36 28 -44 55.5t7 71.5q23 62 86 125q97 92 233 207q37 32 97 35q75 4 227 32q30 5 63 35 l113 -28q154 -39 186 -50q17 -6 42 -24t28 -19q10 -39 1.5 -65t-38.5 -51q-160 22 -184 28q-117 26 -311 19q-34 0 -50 -13q-5 -4 -21.5 -20t-29 -23t-30.5 -8q-2 0 -15 -30l-39 10q-124 -92 -190 -168q7 -5 21 -15.5t20 -13.5q91 -42 170 -149q51 -68 20 -156 q-15 -43 -36.5 -121.5t-32.5 -111.5q-6 -21 -19.5 -57.5t-17.5 -49.5q-7 -20 4 -47q-20 -20 -60 -61t-61 -60q-116 -106 -238 -170q-85 -47 -157 -47q-49 0 -76 27l-20 18q-114 79 -31 197zM75 136.5q7 -11.5 34 -17.5q-5 23 -11 33t-22 16q-8 -20 -1 -31.5z" />
<glyph unicode="6" d="M0 227q4 78 61 215q67 169 242 389q224 284 514 474q22 15 65.5 37t53.5 28l78 -84q18 -45 2.5 -73.5t-55.5 -57.5q-12 -9 -108.5 -77t-143.5 -105q-23 -18 -48.5 -41.5t-56.5 -54.5t-51 -50q-21 0 -42 -14t-32 -41q92 -51 135 -156q24 -62 31 -172q11 -165 -147 -282 q-20 -14 -29.5 -21t-21.5 -23t-17 -34q-3 -10 -24 -23q-56 -32 -95 -49q-87 -34 -139 29q-181 9 -172 186zM172 74q12 -8 24.5 -12.5t21 -6.5t23.5 0t20 2.5t22.5 5t19.5 5.5q-51 18 -131 6zM176 215q49 -15 107.5 6.5t113.5 71.5q115 104 70 262q-35 -23 -60 -14t-32 49 l-45 -6q-68 -106 -107 -191t-47 -178z" />
<glyph unicode="7" horiz-adv-x="757" d="M0 1473q2 3 9 10t9 12q20 40 78 43q161 11 264 25q32 4 67.5 12.5t77.5 19.5t66 17q58 11 95 16q80 7 110 -49q2 -5 9.5 -12.5t9.5 -10.5q48 -48 32 -131q-28 -150 -102 -272q-5 -7 -39 -47l-10 -2q-110 -230 -508 -1069l-80 -35q-1 1 -7.5 11t-12.5 12 q-31 20 -34.5 27.5t5.5 37.5q12 38 45 115q257 570 336 733q26 55 60 115.5t77 132t66 112.5q43 74 53 138q-11 4 -23 4.5t-19.5 -1t-21.5 -5.5t-18 -5q-216 -56 -434 -77q-12 -1 -37 -6t-39 -5q-30 0 -43.5 12t-22.5 42zM598 1481h51v4h-51v-4zM684 1169l61 109 q-35 -26 -49 -50.5t-12 -58.5z" />
<glyph unicode="8" d="M-4.5 213.5q-6.5 36.5 16.5 73.5q8 13 18.5 25t26 27.5t21.5 22.5q13 13 37.5 36.5t44 43t35.5 37.5q6 7 12 25.5t8 23.5l74 62q-34 105 5 249.5t150 272.5l-28 -8q4 6 8.5 16t7.5 13q203 197 457 180q57 -4 102.5 -35.5t91.5 -85.5q36 -42 103 -145q49 -81 28 -199 q-12 -75 -83.5 -121t-149.5 -29q-14 35 -16 39q-3 1 -13.5 3.5t-15.5 5t-10 10.5t-4 20q34 4 55 8l12 47q59 20 72.5 28t38.5 34q0 3 1 8.5t1 7.5q-12 82 -90 149.5t-158 65.5h-20h-21t-20 -0.5t-21.5 -1l-19.5 -1.5t-20.5 -2.5t-19.5 -3.5t-20.5 -5t-19 -7t-19.5 -9 q-193 -99 -258 -248q-45 -97 4 -189l201 27q64 -36 92 -51q16 5 31 14q-13 8 -36.5 21.5t-33.5 19.5q51 7 76 -26l45 -62q54 -71 49 -151l-41 -48q-59 -8 -73 54h-27q-1 2 -11 20.5t-16 32.5l-125 -14q71 -83 93 -111q49 -62 53 -70q65 -112 -29 -209q-58 -57 -130.5 -79 t-168.5 -25q-100 -3 -188 33q-78 32 -88 100q-3 24 -31 45l-6 -28q-33 27 -39.5 63.5zM44 245q1 -8 4.5 -21.5t4.5 -18.5q0 -5 3.5 -9t11.5 -11t10 -9q10 27 6.5 40t-13.5 34t-10 35q-11 -9 -14.5 -20.5t-2.5 -19.5zM166 231q70 -43 188 -37.5t185 54.5q-10 26 -28.5 53.5 t-32.5 43.5t-44 47t-41 44q-46 -24 -72 -40t-60.5 -41.5t-57 -56t-37.5 -67.5z" />
<glyph unicode="9" horiz-adv-x="1064" d="M-156 94q41 17 83.5 45t66 47.5t70 62.5t61.5 56q8 7 15 15.5t16 23t12 18.5q100 146 358 469q24 30 71.5 92.5t57.5 75.5q-54 -8 -55 -8q-12 1 -43.5 1.5t-53.5 1.5t-42 5q-43 7 -68 35q-54 60 -90 125q-20 37 12 103q66 132 156 188q8 5 64.5 44.5t87.5 55.5 q161 77 319 15q56 -21 84 -72q1 -1 9.5 -13.5t9.5 -15t8.5 -14t9 -15.5t7.5 -14.5t7.5 -16t5 -15t4.5 -16.5t2 -16t1 -18q0 -5 10 -20q32 -52 -6 -96q-47 -51 -74 -68q-65 -45 -150 -149q-29 -35 -119 -145.5t-139 -168.5q-299 -357 -419 -493q-19 -23 -45 -48.5t-44 -42 t-52 -46t-48 -42.5l-5 -4q-5 -5 -6 -5.5t-6 -4t-7 -4t-6.5 -1.5t-8 -0.5t-8.5 2.5t-10 5q2 9 7.5 22.5t9 23.5t2.5 24t-9 28q-26 -21 -35 -26q-5 -3 -13.5 -8t-16.5 -10t-17 -9zM315 1180q18 -45 23 -60q6 2 14 2q7 20 20.5 56t18.5 51q-1 0 -3 1t-3 1v86q-33 -25 -41 -63.5 t0 -75.5q-15 0 -29 2zM473 1204q38 -21 105 -18t135.5 19t130.5 48t90 68q-8 35 -10 53q-55 33 -128.5 26.5t-142 -34t-119.5 -72.5t-61 -90z" />
<glyph unicode=":" horiz-adv-x="589" d="M104 139q-12 117 93 293q12 -6 57 -33l-8 -39q30 -4 41 -8q8 -2 22 -8t19 -8q-1 -23 -13.5 -49.5t-24.5 -45t-19 -45.5t3 -53q-60 -52 -71 -61q-11 10 -32 13t-39 11t-28 33zM301 731q6 16 8.5 33.5t3.5 41t2 34.5q1 9 12 28t15 27q78 -43 133 -76q-24 -16 -39 -28l4 -11 q7 1 22 2t23 2q5 -22 -2.5 -43.5t-15.5 -32t-27 -32.5l-26 35q-20 -28 -29 -37q-5 -3 -18.5 7.5t-26.5 -1.5q-7 -6 -18 1t-18 21.5t-3 28.5zM344 762q11 -5 24 -7t19.5 -2t25.5 1.5t23 1.5q-29 17 -67 37z" />
<glyph unicode=";" horiz-adv-x="557" d="M102 -152l13 66q33 15 54.5 38.5t31 53.5t14 58.5t7.5 63.5v6t0.5 5t0.5 6q65 10 68 11q18 -101 -36.5 -183.5t-152.5 -124.5zM229 -186q23 31 41 98t33 94q24 41 10 109q-11 45 11 73q3 5 24 13q26 -35 35 -49q10 -222 -154 -338zM270 840q6 12 11 32t8.5 33t15.5 26.5 t33 20.5q5 -6 31 -32q-3 -5 -8.5 -14t-9.5 -14.5t-9 -12.5t-10 -11q-6 -5 -15 -9t-23.5 -9.5t-23.5 -9.5zM303 811l55 55q36 42 76 27q28 -54 17.5 -85t-68.5 -65q-3 2 -18.5 14t-22.5 19q-14 10 -39 35z" />
<glyph unicode="&#x3c;" horiz-adv-x="780" d="M0.5 601q-2.5 20 4.5 37t24 44q24 38 51 71t68 70.5t60.5 54.5t76.5 62t67 53q80 63 248 181q1 1 9.5 7.5t11 8t10 6.5t11.5 6t11.5 4t13 3t13 -0.5t14.5 -2.5q4 -1 9 1.5t14.5 7.5t15.5 8l45 -62q-135 -95 -211 -151q35 8 70 28t75.5 50t67.5 45q-1 -5 -1 -12.5 t-0.5 -11.5t-2.5 -7q-26 -34 -43 -45q-26 -18 -118 -80t-140 -96q-13 -9 -27 -20t-24 -20t-25.5 -23t-23.5 -21l-152 -129q-12 -12 -57 -52q9 -26 29 -48t32.5 -31t42.5 -29q77 -50 162 -125q26 -24 89 -78.5t95 -85.5q21 -21 54.5 -67t38.5 -52l-13 -10q-41 59 -73 98 q-5 -7 -7.5 -12.5t-1 -11t2.5 -8.5t5 -9t5 -8l55 -104q-7 -27 -22 -33t-33 2l-41 72l-23 -17l-63 68q-76 85 -219 197q-53 41 -199 163q-32 26 -64 70q-15 24 -17.5 44zM360 891q2 -1 5.5 -4t5.5 -4l39 32q-5 5 -7 9z" />
<glyph unicode="=" horiz-adv-x="978" d="M0 375q9 3 20.5 8t18.5 7t12 1q84 -16 166 60l-100 -29q-26 11 -45 22q-7 -2 -20 -5t-19 -5q-8 16 -8 19q9 51 57 63q147 36 176 41q36 7 152 21q148 20 231 28q83 10 139 -33q11 -8 27 -8q48 -2 92 -57q47 -58 4 -117q-25 -6 -52.5 1.5t-45 18t-49.5 31.5 q-358 -24 -627 -102q-8 3 -54 7.5t-75 27.5zM43 799q12 12 55 34t62 50q-13 -4 -36 -11.5t-32 -9.5q-7 3 -18 10.5t-17 10.5l-1 -2q-1 1 -1 4q-3 56 62 73l213 50q56 13 215 26q136 8 295 74q16 8 32 14q3 -6 13.5 -28t17.5 -35q16 7 53 18q9 -18 23 -53l-21 -51 q-73 -45 -161 -60q-40 -8 -213.5 -40.5t-266.5 -51.5q-28 -5 -57.5 -13.5t-72.5 -22.5t-60 -19q-30 27 -84 33zM233 844q112 -12 177 65q-5 -1 -26 -7t-27.5 -8t-24 -7.5t-26.5 -9t-23 -9t-26 -11.5t-24 -13z" />
<glyph unicode="&#x3e;" horiz-adv-x="962" d="M0 16q14 64 55.5 105t110.5 78q16 9 366 188l246 127q11 99 -82 148q-5 3 -32 24l-258 244q-17 17 -45.5 54t-34.5 44l28 16q0 5 -1 15t-1 16l62 72q25 -12 50.5 -30.5t40.5 -31t42 -38t37 -33.5q54 -48 84 -109q5 -10 20 -25t19 -20q156 -183 213 -252q23 -29 38 -90 q19 -83 -55 -137q-15 -10 -45 -26.5t-37 -20.5q-46 -32 -105.5 -66t-94.5 -52t-117.5 -59t-102.5 -51q-112 -55 -206 -96q-13 -5 -45 -10h-140zM117 115l286 137q-4 8 -8 17t-6 12q-75 -25 -155 -73t-117 -93zM426 272q46 8 118 40t97 57q-28 3 -103 -31t-112 -66zM754 381 q4 -4 8 -12l15 7.5t16 9t11 12t7 20.5zM892 436q-2 -6 9 -20q17 10 19 22t-15 41q2 -11 -4.5 -24t-8.5 -19z" />
<glyph unicode="?" horiz-adv-x="675" d="M23 -68l61 41l10 72q-8 -7 -21 -17t-18 -14q-1 3 -6 21q5 23 20 36.5t44 27.5t41 22l-7 -25v-18l60 22q13 -9 55 -32q25 -55 16 -83.5t-61 -62.5q-23 -14 -31 -24q-29 -27 -49 -24t-43 38q0 1 -4 4l-8 6l-29 -20zM208.5 373.5q-6.5 15.5 10.5 60.5q80 209 152 365 q65 145 182 377q4 7 20.5 40t24 46t23 35.5t30.5 37.5q23 24 43 55t41.5 70.5t34.5 59.5l12 18q20 56 50.5 114t71 127.5t61.5 108.5q2 3 22 49q-40 -9 -43 -10q-93 -50 -108 -61q-121 -78 -222 -158q-50 -41 -36 -117q5 -19 16 -49q-8 -15 -26 -46.5t-27 -49.5q-3 3 -33 27 q-12 -6 -19 -13q-16 8 -18 10q-41 50 -22 111q28 97 94 172q17 17 51 70q27 42 90 143q3 4 18 45q95 76 207 119q72 23 97 14q65 -27 105 -59.5t54 -89.5q10 -27 0 -58q-38 -112 -55 -141q-93 -169 -176 -293q-50 -74 -197 -264q-1 -3 -12 -8l-25 -70q4 -4 9 -4q13 14 51 62 q1 -1 4 -2.5t4 -2.5q-2 -4 -4 -13t-4 -13l-330 -639q-11 -19 -27 -60q-13 -35 -20 -47q-4 -8 -17 -22.5t-18 -20.5l33 -39q-2 0 -57 -10q6 -9 10.5 -26.5t13 -27.5t27.5 -13q-34 -34 -62 -19q-8 4 -29 9.5t-34.5 14.5t-22.5 27l29 -12q6 12 6 16q-1 2 -2 7t-2 6 q-43 26 -49.5 41.5zM489 1563q1 -3 8 -9.5t9 -9.5q23 111 33 162q-61 -80 -50 -143zM580 1696q50 68 57 78q-41 -29 -48 -39t-9 -39zM688 1245q26 -10 35 -12q4 16 8 24q12 25 36.5 76.5t35.5 77.5q12 27 26 68q-38 -46 -76.5 -114t-64.5 -120zM725 1397q84 87 137 215 q-34 -46 -127 -189q-6 -6 -10 -26z" />
<glyph unicode="@" horiz-adv-x="1757" d="M4 309q-18 194 64 428q154 442 516 707q223 164 463 213q264 55 458 -49q53 -25 92 -62q14 -12 43 -61q5 -8 15.5 -27t20 -33t20.5 -26q102 -105 35 -260q-66 -148 -173 -270.5t-255 -239.5q-45 -36 -84 -56q-26 -12 -41 -6t-35 35q-4 -1 -25.5 -6.5t-34.5 -7.5 q-12 10 -41 39q8 31 24 92t24 92q-151 -85 -195 -106q-126 -63 -233 -68q-81 -5 -177 55q-65 39 -53 121q24 143 150 262q184 175 422 236q149 39 290 -4q4 -1 14.5 -4.5t16.5 -4.5l12 19q120 -2 238 -127q26 46 22 141q4 -4 10.5 -8.5t10.5 -8t8 -7.5v73q-45 75 -178 107 l2 -12q-17 3 -50 8.5t-59.5 9.5t-50.5 6q-11 0 -49 6t-64 3t-51 -19q10 -8 21 -19q-4 -4 -8 -4q-62 0 -170 -47q-486 -196 -705 -647q-85 -178 -94 -369q0 -74 23 -161q25 -97 124 -121q145 -35 304 14q113 35 260 125q267 160 399 275l53 -41q-286 -249 -710 -455 q26 -8 49.5 -4t68.5 24q27 13 115 60l33 -33q-36 -51 -43 -63q-7 -3 -42 -21t-56 -25q-76 -27 -136 -43q-57 -13 -106 15q-57 34 -141 -12q-139 29 -218 98q-128 107 -143 274zM606 823q127 -5 266 66q53 28 261 151q10 5 31.5 15t29.5 14q16 -10 18.5 -23t-1.5 -28.5 t-1 -24.5q26 -1 39.5 -3t32 -11.5t31.5 -26.5l-43 -102q88 45 121 78q19 18 38 38t48.5 54t40.5 47q-57 5 -88 55q-30 43 -80 43q-95 0 -142 -8q-309 -46 -542 -260q-42 -36 -60 -74zM1155 1604q34 -2 250 -23q-1 1 -4.5 7t-7.5 7q-77 20 -95 21q-24 2 -143 2v-14z M1180 1485h96v-6h-94q0 1 -1 3t-1 3zM1214 633q39 14 80 43t60.5 46.5t64.5 61.5q9 9 36 35.5t40 39.5t34 36.5t38 46t32 47.5q-38 -20 -78.5 -69t-54.5 -60q-13 -12 -59 -49t-70 -59q-13 -13 -42.5 -33t-50 -40t-30.5 -46zM1407 1231q15 -22 52.5 -41t45.5 -25 q-7 41 -22.5 51t-75.5 15zM1407 1581q39 -23 68 -10q-12 2 -34.5 5t-33.5 5z" />
<glyph unicode="A" horiz-adv-x="1927" d="M-74.5 -271q0.5 22 11.5 40q32 53 88 154.5t65 117.5q5 14 12 18q13 4 22 10.5t14.5 17.5t8 18t6.5 23.5t5 21.5q12 46 24 69q582 1026 1108 1745q3 4 23.5 32t26.5 35.5l24 30t28.5 34t27 27.5t32.5 29q42 34 72 41q13 3 25 11.5t30 27.5t23 23l15 12t18.5 14.5 t15.5 10.5q22 15 43 15l43 -15q4 -3 30 -24t41 -32q70 -52 70 -168q-4 -90 -16 -270q-20 -270 -88 -641q-7 -37 -19 -133q138 42 152 47q24 10 69.5 28.5t73.5 30t67 29t70 33.5q23 12 48 20t54.5 13.5t48.5 8t55 6t50 5.5q8 1 16 1q57 0 127 -46q80 -52 105 -113 q15 -36 15 -80q0 -39 -11 -81q-24 -94 -82 -138l-28 -28q-23 -20 -52 -2q-2 16 24 37t15 45l-49 -6q1 9 2 29t2 30l-63 -86q-1 5 -1 9q0 41 40 75q37 37 45 89q2 12 1 23q0 40 -20 80q-1 2 -12 19q-2 2 -7.5 5.5t-8.5 6.5q-5 -5 -17 -20q-31 14 -67.5 16t-63 -3t-69.5 -14.5 t-66 -13.5q-18 -3 -39.5 -9.5t-35 -12t-40 -16.5t-35.5 -15q-123 -51 -280 -121l-51 -26l-31 -168q-90 -533 -143 -836q-51 -286 -136 -721q-7 -37 -24 -105.5t-23 -97.5q-12 -58 -18 -118q-18 -164 -78 -379q0 -1 -3 -14.5t-3 -20.5q-5 -57 -14 -114.5t-24 -126 t-24.5 -108.5t-31.5 -124.5t-29 -112.5q-2 -6 -6 -16.5t-6.5 -17.5t-2 -17.5t6.5 -19.5q0 -1 -1.5 -3.5t-3.5 -5t-3 -4.5q-2 -7 -9 -21.5t-10.5 -25.5t-1.5 -20q4 -16 1 -44t-5 -43t-9 -42t-11.5 -41.5t-13.5 -41t-13 -40.5q-12 -43 -45 -82v26q4 15 16 48.5t17.5 59 t3.5 50.5l-25 -47l-59 -111q-17 -27 -62 -49q-39 -18 -131 -71v92q8 6 27.5 17.5t32 21t20.5 20.5q31 41 49 109q100 420 125 540q176 888 262 1332q24 124 70.5 382t71.5 390q8 43 28 120t27 109q14 66 39 225l25 109q6 24 16 84l-98 -49q-612 -318 -1061 -828 q-37 -44 -77 -94t-88.5 -114t-74.5 -97q-21 -28 -24 -61q-2 -16 -12 -31.5t-16 -21t-24 -21.5q-23 -20 -46 -20q-17 0 -34 10q-4 1 -26 -4q-14 19 -15.5 26t1.5 33l-23 -6q-5 14 -4 16q5 14 5 25q0 21 -17 33q-9 5 -9 8q-5 36 -4 43q4 22 0.5 38.5t-3 38.5zM336 61l22 23 q46 57 154 186q47 52 53 62q86 118 217 176q26 11 41 29q9 12 21 23.5t19.5 17.5t25 18t22.5 16q23 16 61.5 45t49.5 37q62 40 74 45q37 20 100 49q3 1 24.5 3.5t30.5 7.5q33 15 324 151q26 13 10 39q-229 -117 -274 -139t-115 -47q5 4 20.5 16.5t24.5 18.5q44 28 117 63 l244 125q2 11 8.5 31.5t9.5 37t0 31.5q-2 16 -2.5 31.5t1 34t3 30t5.5 34t5 30.5q38 270 78 543l27 192q1 18 1 34q0 66 -22 116q-15 -12 -40.5 -31t-44.5 -34t-34 -31q-45 -47 -135 -162q-255 -330 -440 -572q-85 -107 -117 -196q-79 -210 -237 -459q-4 -5 -14.5 -15.5 t-16.5 -17.5q-11 16 -8 36t8 30.5t14.5 26.5t12.5 26q7 19 29.5 58t29.5 61q4 13 30 46q22 28 22 51q0 5 -1 9q-12 -26 -59.5 -76t-57.5 -92q-7 -28 -23 -58t-38.5 -65t-32.5 -55q-9 -16 -34 -59t-37 -65.5t-26 -59.5t-20 -70q1 0 8.5 -2t12.5 -4q-59 -123 -121 -248 q-13 -29 -13 -56q0 -13 3 -26zM1059 -2449q-2 -7 2 -15q18 26 18 48q0 10 -4 20q-10 -28 -16 -53zM1208 -1548q6 10 17.5 39.5t21.5 38.5q6 5 11 11t8 11t5.5 12.5t3.5 11.5t2 13t1.5 12t1 13.5t0.5 13.5q0 8 4.5 25.5t5.5 25.5q-7 8 -30 43zM1464 2083q2 -2 3.5 -4.5 t2.5 -3.5q3 0 5 2l6.5 6.5t7 8.5t4 9t2 13t-3.5 16q-21 -35 -27 -47zM2537 909q33 12 27 47q-4 -8 -13.5 -23.5t-13.5 -23.5z" />
<glyph unicode="B" horiz-adv-x="4767" d="M-141 -516q13 52 37 90q-2 -13 -7 -37.5t-8 -45t-4 -38.5q-1 -10 -5 -37.5t-3 -47.5t10 -38l17 115q19 95 26 115q81 246 187 387q6 7 15 19t17 22t15 18q171 198 313 307q326 255 627 410q180 93 258 132.5t223 108t264 115.5q50 18 70 66l211 424q1 2 2.5 4t5.5 7t8 11 q9 -83 10 -90q15 6 20.5 18.5t6.5 37t2 32.5q11 -6 29.5 -17.5t27.5 -15.5q15 -24 15 -52q0 -30 -17 -64q-14 -29 -39 -81t-46 -96t-40 -85q28 10 136 47t165 59q200 71 244 90q46 21 97.5 46t116 57.5t97.5 48.5q103 54 152 108l9.5 9.5t7.5 8t5.5 7t5.5 7t4 6.5t4 8.5 t3.5 10t4.5 13t5 16.5q-35 23 -115 31q-124 19 -200 21q-100 3 -204 3q-263 0 -546 -20q-32 -2 -172 -12t-215 -17q-112 -11 -430 -51q-44 -5 -135.5 -18.5t-138.5 -18.5q-42 -6 -230 -20q-30 -5 -39 -8q-316 -93 -442 -131q-84 -22 -135 -39l-10 -78q-31 16 -62 29 q17 -42 23 -56q-8 -3 -16 -3q-29 0 -46 40q26 59 33 78q-5 -2 -11 -4t-9.5 -3t-4.5 -3q-6 -10 -26 -56q-27 5 -40 21.5t-22 44.5q18 56 86 88l207 96q129 62 320 105q43 9 61 14q51 18 115 32.5t102 21t122.5 18.5t107.5 16q107 16 235 23h10q25 0 65 -4q49 -4 62 -5 q33 -4 56 9q-7 1 -25.5 4t-28.5 4q7 7 14 11.5t16 7t15 3.5t17.5 2t15.5 2q218 17 449 39q368 28 636 28q42 0 81 -1q253 0 391 -31q61 -16 112 -39q60 -28 66 -94q0 -12 5.5 -24t16.5 -29t15 -23q-17 -102 -80 -175t-166 -136q-7 -5 -22.5 -14.5t-24.5 -15t-22 -15.5 t-23 -20q5 0 14.5 -0.5t17 -0.5t13.5 1q19 1 75.5 4.5t86.5 3.5q51 -1 209 -6q132 -4 214 -4h31h41q310 0 639 -84q157 -43 266 -109q92 -58 151 -151q60 -92 72 -206q2 -19 2 -39q0 -95 -48 -194q-87 -177 -283 -370q-243 -237 -586 -459q-58 -39 -172.5 -102t-140.5 -78 q-31 -18 -87 -56t-67 -45q-26 -18 -45 -28q-810 -439 -1585 -660q-47 -13 -143.5 -33.5t-143.5 -34.5q-150 -41 -340 -61q-166 -21 -313 -21q-232 0 -416 52q-297 82 -465 274q-139 164 -139 370q0 83 23 173zM-59 -700q25 56 25 111q0 33 -9 65q-3 -28 -8 -87t-8 -89z M-20 -731q4 -16 10 -41.5t8 -34.5q3 -10 8 -29t10 -33t11 -26q13 -24 19.5 -34.5t21.5 -27.5t32 -26q39 -20 113 -66q0 -2 -1 -5.5t-1 -4.5h-61q114 -85 184 -107q49 -15 106 -15q24 0 49 3q-46 23 -55 27l8 4q3 0 8.5 -1t8.5 -1q220 -48 432 -48q134 0 266 19q4 1 23 4 t27 4t23 2t26 -1t20 -7q14 -6 30 -7.5t25 -1t29 3t26 3.5q0 -5 3 -26q31 11 81.5 31t67.5 26q5 9 14 25t13 22q112 22 149 31q17 4 72.5 15t92 21t69.5 25q80 37 133 56q3 1 186 55q16 5 63.5 17.5t71.5 21.5q175 69 383 156q57 24 169 72t169 71q134 56 162 72 q39 20 149 94q13 9 13 10q-1 17 6.5 30.5t15 19t25 14.5t22.5 12q413 263 482 309q248 163 438 365q95 102 151 191t70 198q3 20 3 39q0 102 -79 153q-59 39 -170 86q-44 20 -150.5 54.5t-160.5 62.5q-6 1 -8.5 1t-12 -2t-12.5 -3q13 -13 21 -19q-7 0 -17 -0.5t-16.5 -0.5 t-11.5 1q-303 30 -363 37q-13 1 -51 3.5t-63.5 7t-49.5 14.5q-18 7 -46 7q-19 0 -42 -3q-68 -10 -142 -16t-171.5 -10t-142.5 -7q-112 -5 -125 -8q-47 -8 -133 -25.5t-115 -23.5l-256 -43q7 -12 35 -51q-10 -32 -17.5 -39.5t-36.5 -18.5l-53 29q-1 5 -5 21t-7 26 q-10 1 -21 1q-42 0 -104 -15q-78 -19 -100 -21q3 -6 6 -18q-38 -19 -48 -28t-32 -46q-17 -33 -51.5 -97t-50.5 -97q-21 -43 -62 -129t-63 -129q-24 -46 -44 -95.5t-46 -124t-33 -94.5q8 -36 10 -41q11 -32 -16 -49q-28 -16 -56 6q-30 21 -30 53q0 11 4 23q4 13 16.5 49 t17.5 57q4 17 10.5 37t12 32.5t16.5 36t15 32.5q5 10 18.5 38t20 42t14 36t10.5 41q3 18 8 37.5t9.5 34.5t12.5 36.5t12.5 33t15 35t14.5 32l16 34t15 32.5q27 56 36 78q-18 -7 -52.5 -20.5t-51.5 -20.5q-103 -47 -178 -84q-173 -86 -268 -134.5t-238 -129t-256 -156.5 q-231 -156 -405 -334t-289 -397q-69 -131 -82 -246q-8 -62 -12 -90zM2619 1174l271 38l-27 15l19 22q-15 4 -42.5 2t-41.5 -4t-41 -7t-41 -7q-18 -3 -32 -10.5t-35.5 -25t-29.5 -23.5zM3437 -451q28 17 73.5 42t65.5 36q-55 -5 -139 -78z" />
<glyph unicode="C" horiz-adv-x="3514" d="M-158 -660q-2 22 -2 41q0 31 4 59q7 44 23 103q53 214 192 418q67 99 158 197q10 10 34.5 33t41.5 41t31 36q7 12 19 35t19 35q28 49 48 72q83 91 129 131q22 19 48 39t58 43t49 36l21 -14q15 20 65.5 61.5t67.5 75.5l-14 31q13 10 82 64.5t87.5 68.5t81 62t89.5 67 t83 59t92 62.5t86 54t96 56t93 47.5q53 26 369 162q45 22 47 24q308 193 620 270q104 22 179 22q14 0 28 -1h4q39 0 107 37q45 22 63 24q68 9 127 9q82 0 148 -17q76 -20 143.5 -88t87.5 -143l8 -33l-34 -59q-39 -13 -54.5 -6.5t-42.5 44.5q-10 -3 -26 -6q-7 13 -41 84 q-43 25 -123 29q-32 2 -65 2q-127 0 -273 -33q-229 -48 -547 -166q-24 -10 -70.5 -22t-66.5 -19q-66 -27 -168 -73q-86 -40 -326 -183q-782 -468 -1278 -1019q-198 -222 -311 -424q-93 -173 -117 -324q-8 -54 -8 -101q0 -56 12 -100q24 -96 117 -133q113 -42 244 -45 q29 -1 58 -1q249 0 552 83q99 28 451 143q31 10 55 21l18 -33q7 3 71.5 29.5t76.5 31.5t70 29t76 32.5t69 31t74.5 35t67.5 34.5t73 39.5t65.5 39.5t69.5 44q-46 -11 -129 -55.5t-129 -56.5q-4 8 -6 10q14 11 25 16q181 94 473 291q173 118 358 270q13 10 39 34t47.5 40.5 t44.5 28.5q15 7 23 24q6 14 16 29t18 23.5t23.5 24.5t21.5 22q175 194 189 211q15 17 43 63q-6 3 -12.5 4t-10.5 1.5t-12 -1t-9.5 -2l-10.5 -3.5l-9 -3l-61 -18q-10 17 -29.5 48t-27.5 46q1 29 9.5 48.5t25.5 31t32.5 17.5t40.5 11q21 4 40 4q68 0 114 -45q26 -26 26 -49 q0 -8 8 -26t11 -27q-1 -9 -6.5 -39t-8.5 -53t-4 -45q-3 -26 -18 -51q-43 -78 -164 -209q-334 -345 -782 -656q-23 -17 -51 -31t-64 -29.5t-53 -23.5q-29 -14 -45 -26q-223 -165 -481 -273l-218 -92q-37 -15 -72 -15q-20 0 -40 5l166 70q-5 2 -21.5 7.5t-23.5 8.5 q-7 -2 -68 -21t-92 -26q-8 -2 -16 -5t-14 -6t-14.5 -9t-12 -9t-12 -11.5l-11 -11t-12 -12.5t-11.5 -12q1 0 19 6t29 8l20 -24q-40 -20 -43 -21q-236 -86 -414 -108q-61 -8 -111 -8q-22 0 -42 2q-43 0 -84 -15q-100 -33 -202 -33q-192 0 -396 115q-103 57 -135 162 q4 -4 24 -14q-5 9 -9 23t-8 23t-9 13q-9 5 -14 12.5t-9 19t-6 15.5q-21 47 -25 102zM694 -1014q11 1 35.5 2t39 2t34 6.5t35.5 14.5q-15 1 -30 1q-66 0 -114 -26zM844 -987q23 -5 32.5 -3t38.5 15q-17 -3 -29.5 -1.5t-23.5 0t-18 -10.5zM1149 -948v-6q8 1 24.5 2t24.5 2 q0 4 -2 6q-15 0 -47 -4zM1309 1057q3 1 7.5 1.5t8.5 1.5t8 3l111 57q12 6 50 27.5t56 30t49.5 19.5t59.5 15q10 0 27 13q141 87 174 108l77 51l-28 9q4 20 8 30q-2 1 -10 9q-142 -81 -212 -122t-183.5 -113.5t-202.5 -139.5zM2476 -272q234 137 403 315q-97 -74 -403 -315z " />
<glyph unicode="D" horiz-adv-x="3579" d="M-1480 -472q-4 14 -4 30q0 26 11 59q67 199 244 320q184 127 301 194q481 271 989 485q62 26 408 162q34 11 70 56q24 30 65.5 95t65.5 95q27 32 46 73t36.5 91t31.5 78q7 14 19.5 40.5t22.5 48t18 40.5q4 7 10.5 21.5t12.5 25t12 18.5q70 97 122 164q-4 -45 -4 -47 q7 0 19 8t19 10t22 -10q9 12 20 33h-24q1 4 2 10.5t2 9.5q14 43 46 43h7q20 -3 51 -18q2 -1 8 -25q-6 -5 -20.5 -15t-22.5 -17q20 -2 50 -2q0 -31 -23 -54q-3 -3 -22 -20.5t-26 -24.5t-19 -21t-19 -26q-64 -110 -328 -577q-2 -2 -2 -17q3 0 13.5 -2.5t15.5 -1.5q48 7 248 41 l219 37q-6 8 -23 25q36 8 70 8q25 0 49 -4q58 -10 131 -47q-5 -14 -14 -41t-14 -41l-52 -7q-5 2 -13.5 7t-15.5 8.5t-18.5 3.5t-23.5 -6q6 -5 15 -11t11 -8q9 -12 21 -24q-104 12 -150 16q-14 2 -30 2q-67 0 -179 -26q-96 -23 -297 -82q-8 -2 -21.5 -11.5t-16.5 -11.5 q-27 3 -27 -22q-17 -17 -33 -40t-23.5 -37.5t-23 -47.5t-20.5 -43q-39 -77 -82 -166t-93.5 -196t-80.5 -169q-29 -58 -31 -61q-13 -20 -26 -23t-44 8q-1 9 -10 86l-49 -28q-2 8 -2 17t0.5 15t3 15.5t4 12.5t5.5 13.5t5 12.5l227 487q12 22 33 68q-55 -23 -119 -49 q-223 -100 -328.5 -147.5t-284.5 -134.5t-320 -163q-15 -8 -76 -40.5t-82.5 -44.5t-72.5 -41t-80.5 -47.5t-69.5 -46t-74 -54.5q-139 -103 -195 -195q-2 -4 -10.5 -22.5t-13.5 -26.5q3 -12 7.5 -20.5t15.5 -17t13.5 -10t18.5 -11.5q96 -59 270 -78q82 -8 177 -8 q172 0 383 26q13 1 52.5 7.5t61.5 7.5q10 1 56 -4q5 -5 10 -5q-5 -3 -16.5 -11.5t-20.5 -14.5q108 9 121 12q172 38 248 45q45 3 51 41q29 7 84 20.5t98.5 24.5t81.5 23q4 1 27.5 7t35.5 11q52 23 72 29q14 4 40.5 11.5t37.5 10.5t37 10.5t41 10.5q48 15 78 22q60 19 77 23 l76 24q20 4 78 23q448 142 592 195q488 179 921 385q282 130 607 348q183 122 293 268q61 82 79 158q8 30 8 57q0 70 -51 123q-82 89 -256 176q-10 5 -71 30t-90 48q-4 4 -12.5 5t-21.5 0.5t-20 0.5q0 3 0.5 6.5t1.5 9.5t2 11l-59 12q-109 20 -233 45q-228 49 -404 90 q-19 3 -52 12.5t-44 12.5q-57 14 -176 22q-114 6 -426 37q-256 23 -674 23q-435 0 -838 -39q-323 -31 -620 -99q-57 -13 -133 -41q-15 -5 -74 -41q-4 -15 1 -35t4.5 -36.5t-15.5 -30.5q-25 38 -27 41q-6 -9 -19.5 -28.5t-19.5 -30.5q-1 0 -8 -2t-12 -4q-5 8 -22.5 34.5 t-26.5 45.5t-13 40q-1 8 -1 16q0 43 28 74q64 70 168 111q209 86 446 111q26 2 76 12.5t72 13.5q342 36 465 45q255 24 584 24q113 0 235 -3q455 -6 880 -66q66 -9 188.5 -33t147.5 -28q15 -2 55 -18q37 -15 61 -15h3q5 0 17 -1.5t21 -1t17 4.5q11 6 45 -4q293 -66 484 -135 q37 -12 143 -64q104 -49 156 -82q51 -31 127 -88q129 -101 129 -267v-15q0 -12 0.5 -38.5t0.5 -41.5t-2 -37t-7 -41q-36 -144 -172 -283q-142 -142 -390 -299q-370 -228 -907 -456q-42 -17 -418 -166q-16 -4 -24 -2l37 24l-25 4q-97 -50 -117 -59q-12 -6 -44.5 -25 t-51.5 -26q-680 -240 -1268 -377q-215 -51 -395 -82q-27 -5 -58.5 -8t-69 -5.5t-58.5 -4.5q-2 7 -5.5 16.5t-4.5 13.5q-155 -51 -164 -53q-135 -36 -308 -36q-108 0 -231 14q-19 2 -52 14t-42 14q-28 7 -70 11q2 6 -2 11.5t-8.5 7t-7.5 -0.5q-6 -9 -13.5 -11.5t-11 -1.5 t-13.5 6t-11 5q-63 22 -95 65q18 -1 56 -29q29 -21 55 -22q7 0 14 2q-17 14 -50 42t-58.5 49t-50.5 38q-45 33 -57 69zM-457 -649l80 26q-15 4 -28 4q-34 0 -52 -30zM668 -408q72 9 139 27q64 18 539 158q42 8 61 16q86 41 205 103l4 8h-41q4 6 11.5 15.5t10.5 14.5 q-2 0 -9 2t-9 1q-574 -244 -911 -345zM1499 1950q39 -15 275 -38q181 -18 248 -18q20 0 30 2q-3 2 -6.5 5.5l-5.5 5.5t-4 2q-343 39 -367 41t-50.5 2t-62 -1t-57.5 -1z" />
<glyph unicode="E" horiz-adv-x="2961" d="M-651 -1274q4 18 9 54t9 53q4 18 33 92q25 62 25 63q34 110 120 244q7 12 17.5 24t24.5 26.5t20 21.5q2 2 26 32q16 21 45.5 60.5t42.5 56.5q11 42 13 47q14 27 41 58q20 22 88 100t113 128.5t90 98.5q48 50 192 174q21 21 57 39q25 13 39 47q-4 10 -0.5 17t14.5 15.5 t13 10.5q30 25 95 79t115 95t97 78q29 23 182 131q6 4 24.5 11t25.5 14q6 6 33 18.5t36 32.5q4 11 15.5 19.5t31 18t27.5 15.5q188 120 440 236q7 3 19 9t20 9t19 8t20.5 7t20.5 4t22.5 2t22.5 -2q7 -1 16 1.5t22.5 8t24.5 8.5l-20 -24q-5 -5 -17 -11q39 1 76.5 20t122.5 77 q-2 1 -7.5 5t-9.5 9q36 23 41 25q-2 2 -3 5t-1.5 4t-1.5 1q-73 20 -161 74q-11 7 -33.5 20t-38.5 24t-29 25q-52 56 -52 114q0 51 40 105l24 -49q-1 -6 -1 -17.5t-1 -17.5q0 -4 -1 -8q0 -52 59 -104q10 148 10 166q0 63 43 116q71 89 193 158q263 150 421 211l-16 16 q17 0 33 5.5t38.5 17t30.5 14.5q41 17 130.5 58.5t136.5 60.5q150 63 298 63h13q128 0 281 -10q15 -1 43 -7.5t36 -8.5q43 82 109.5 164.5t151.5 175t131 151.5q73 -38 88.5 -52t35.5 -62q-4 -15 -10.5 -32.5t-14.5 -41t-13 -37.5q-35 -3 -78 -8q-10 -12 -48.5 -54.5 t-58.5 -68.5q-337 -437 -557 -850q-117 -223 -151 -465q-1 -14 -15 -67q0 -3 -10 -13q-19 28 -29 33.5t-51 11.5q0 16 -4 74q-7 -15 -20 -36t-15 -25q35 361 209 661q-51 12 -60.5 21.5t-15.5 54.5q17 15 92.5 58.5t108.5 88.5q-31 -7 -69 -34.5t-44 -30.5 q-20 -11 -57 -36.5t-47 -31.5l-8 39q5 7 11 13.5t10.5 11.5t12.5 11.5t12 10t13.5 10t13 9t14 9.5l13.5 9q85 55 150 109q44 35 54.5 51t25.5 70q-50 33 -110 33q-31 0 -65 -9l-270 -69q-180 -50 -262 -95q180 50 244 70q145 36 243 41q-359 -67 -727 -225 q-206 -88 -282 -131q-155 -88 -246 -189q-30 -34 -40 -60q-8 -22 -7 -55v-14q4 -3 14.5 -11.5t16 -12t15.5 -7.5t20 -3t22 7q4 3 31 -8q21 -7 63.5 -20.5t68 -21t61.5 -17.5t67 -16q25 -5 58 -6.5t60 -0.5t60 0q19 18 41.5 20t50 -5t41.5 -6q58 0 135 -25q11 -3 21.5 -11.5 t22 -21.5t16.5 -18q0 -63 -19 -86.5t-78 -32.5q-33 -5 -122.5 -18.5t-135.5 -21t-117.5 -22t-129.5 -30.5q-21 -6 -64.5 -16.5t-69.5 -17t-62 -17.5t-65 -23q-123 -47 -299 -135q-455 -225 -946 -637q-45 -38 -90 -79t-95.5 -90.5t-82 -81t-92.5 -94t-84 -85.5 q-25 -25 -37 -35q-1 -1 -18 -4l202 246q-3 2 -12.5 10t-17.5 14q-54 -67 -168.5 -203t-200.5 -245t-158 -215q-38 -3 -59 -47q-8 -18 -25.5 -48.5t-23.5 -41.5q-1 -2 -13 -31q54 9 80 12q-9 -20 -26 -61t-27 -62q-14 -29 -27 -67t-18 -56.5t-17.5 -74t-13.5 -60.5 q-3 -13 -2 -27q0 -49 32 -111q42 -80 110 -99q132 -39 237 -39q131 0 260 30q3 1 27 13q-38 -2 -70 -6q0 2 -1 4.5t-1 3.5l131 31l529 122q33 8 198 43q10 2 51 23q102 44 111 47q164 54 368.5 132.5t309.5 121.5t362 150q40 17 82.5 32t105 36t83.5 28q15 5 51 10 q69 9 119 53q22 19 52 35t52.5 24.5t60.5 21.5t56 20q10 4 31.5 10t31.5 10q36 17 51.5 23.5t46 15t56.5 8.5q11 -1 23 2.5t30 12t23 10.5q19 8 54 26.5t54 26.5q8 4 18 7t22.5 6t19.5 5q44 12 75 54q-9 3 -18.5 2.5t-14 -1.5t-13.5 -5t-11 -5q-52 -21 -155.5 -62 t-155.5 -62q-95 -39 -172 -60q112 56 557 281q11 15 26.5 48.5t33 49.5t48.5 18l78 -81q-19 -71 -52.5 -119.5t-96.5 -77.5q-47 -22 -128.5 -73.5t-107.5 -65.5q-98 -54 -149 -72q-124 -46 -250 -102.5t-307.5 -145t-243.5 -117.5q-381 -177 -887 -360q-482 -171 -852 -256 q-16 -4 -188 -31q-14 -3 -57 -13t-66 -13q-30 -4 -164 -19q-1 2 -2 6.5t-2 6.5q12 8 20 16l-8 2q-7 -1 -29 -4t-32 -6q-72 -23 -138 -23q-105 0 -194 58q-8 5 -17.5 9t-22.5 8t-19 7q-152 49 -201 205q-15 51 -15 105q0 37 7 75zM-309 -1679v-13q2 0 88 -14l16 49h135v19 q-35 -2 -106 -7.5t-109 -7.5q23 -9 35 -16q-50 -8 -59 -10zM356 145q4 0 9.5 -1t9 -1t6.5 2q9 6 25.5 19.5t21.5 17.5q-4 4 -4 6zM600 328q5 -10 6 -11q2 1 11 5t12 6q67 49 193.5 142.5t140.5 104.5q1 0 1 1.5t-1 3.5q0 1 -1 1.5t-3.5 2.5t-4.5 4q-337 -248 -354 -260z M2066 1741q6 2 16.5 4t15.5 4l12.5 5t12.5 8t9 12q-19 4 -33 -3.5t-33 -29.5z" />
<glyph unicode="F" horiz-adv-x="1773" d="M-268 1989q-11 16 -11 29q0 17 21 28q54 33 123 65q65 27 90 35q44 11 94 21q18 3 54.5 7t54.5 7q15 2 42.5 8.5t41.5 8.5q98 9 190 36q8 4 29 4q55 0 104 37l-49 9q34 17 41 18q208 40 283 51q19 3 60 9.5t64.5 10t58.5 5.5q25 2 47 3q9 0 17 -1q29 -1 41 0t41.5 5 t42.5 5v-2q5 21 35 25q10 1 39 7t45 7q244 32 522 61q22 3 61 2.5t60 1.5q34 4 96.5 16.5t88.5 16.5q12 12 30 37.5t37 44.5t43 29q47 -39 115 -92q9 2 53 6q770 66 940 80q295 22 944 59q99 6 197 6q117 -3 235 -12q10 -1 30 -7t30 -7q5 -1 63 8q-13 6 -29 12t-22 8v6 q125 0 150 -2q79 -2 235 -14q85 -6 133 -72q8 -11 23.5 -28.5t21.5 -24.5q22 -31 26 -67q0 -5 1 -10q0 -31 -19 -60q-2 -2 -9 -5t-9 -5q-36 58 -39 65q-4 -4 -8 -4q3 -9 12 -31.5t13 -36.5q-20 -9 -32.5 -3.5t-19.5 20.5q-26 46 -65.5 64.5t-95.5 21.5q-87 8 -265 16 q-244 8 -340 17q16 3 47 10t46 10q-3 9 -3 14q-60 -2 -176.5 -5t-175.5 -5l25 -37q-89 -12 -185.5 -18.5t-220 -11.5t-182.5 -9h49v-4q-368 -31 -1515 -133q-4 -7 -15 -17t-18.5 -20.5t-7.5 -25.5q0 -9 -8 -13q-13 -7 -24 -19t-16.5 -21t-14.5 -26.5t-13 -23.5 q-25 -43 -68.5 -122t-60.5 -109q-12 -16 -12 -27q-3 -42 -16.5 -85t-36 -95.5t-31.5 -79.5q-101 -310 -189 -514l-6 -24q17 2 53.5 5t55.5 5q152 17 206 22q26 3 52 0q55 0 90 9q58 14 124 15q12 0 23 -1q14 -2 29.5 -8.5t37.5 -18.5t36 -18q4 1 38.5 7.5t55.5 8.5 q27 4 184 19q21 2 68 14q124 0 235 -96q59 -55 59 -114q0 -60 -53 -120q-24 -27 -47 -27q-25 0 -49 33l-53 -8q17 33 27 55q-14 16 -14 43q0 22 9 50q-17 1 -48 4t-46 4q-55 4 -118 4q-153 0 -355 -21q-34 -4 -275 -29t-368 -40q-31 -4 -47 -8q-9 -21 -31 -71.5t-33 -78.5 q-318 -737 -382 -885q-34 -81 -101 -219q-25 -51 -61 -106q-24 -31 -54 -49q-36 -20 -52.5 -16.5t-47.5 36.5l-76 12q-10 10 -19 22.5t-16 22t-14.5 26t-11.5 25t-11 28.5t-8.5 26t-9 29.5t-8.5 27.5q-4 12 6 41q11 -25 24.5 -71.5t30 -82.5t43.5 -63l-79 234 q-25 21 -38 51.5t-23 69.5t-21 61q-19 40 -55.5 122t-60 131t-65.5 113t-90 111q-13 13 -34.5 39t-26.5 31q-158 85 -229 145l18 94q11 69 84 92q129 35 180 45q289 55 488 86q20 3 54 3q44 0 111 -5h13q67 0 160 19q49 9 143.5 23.5t114.5 17.5q13 2 39 8t40 8 q35 85 124.5 304.5t138 335t126 290t148.5 317.5q-2 2 -5 4.5t-4.5 4t-2.5 0.5q-163 -11 -277 -23q-65 -6 -258 -33q-23 -3 -176.5 -25t-234.5 -30q-11 -1 -37.5 -5.5t-42 -6t-38.5 -1t-42 6.5l92 35q-48 1 -72 1q-2 0 -4 1q-24 0 -64 -6q-44 -6 -67 -10t-67 -12.5 t-68 -12.5q7 -4 37 -19q-27 -17 -101 -30q-44 -7 -188 -39q-147 -27 -197 -41q-160 -48 -307 -101q-19 -7 -40 -17.5t-48 -25.5t-41 -22q-28 9 -33.5 16t-13.5 39q3 2 68 47l-15 19q-24 -15 -69 -47zM264 733q10 -8 27 -8q8 2 31 9t34 9q86 18 195 39h29v-6q-8 -2 -279 -74 q43 -30 66 -45q34 -25 52 -39t43 -39.5t40 -52.5q6 -10 19 -31.5t21 -34t20 -29.5t24 -30q70 -78 127 -229q16 -43 24 -82q14 -60 40 -176.5t34 -153.5l8 68q1 0 3.5 1t4.5 1q32 -86 50 -133q8 6 16 13.5t12.5 13.5t11 16.5t9 14.5t9 17l7.5 15q133 273 166 350 q5 11 301 701q11 23 23 59q-59 -7 -183 -23t-188 -24q-10 16 -14 27q-103 -20 -123 -23q-123 -17 -256 -33q-12 -1 -33 -2.5t-38 -3.5t-32 -6q-71 -14 -274 -59q-6 -1 -27 -17zM928 -373q7 -3 12 -3.5t10.5 2.5t8 5t8 8t6.5 7q25 26 46 63t31 61.5t29 73.5q3 4 4.5 13 t-0.5 10q-13 7 -14.5 15t5 20.5t7.5 15.5q2 9 23 74q-2 0 -5 1t-5 1zM1114 25q46 75 55 129q18 18 19 20q14 29 76 176q3 7 14 51q-25 -28 -60 -104t-53 -139q-32 -43 -51 -133zM1212 2388q0 -8 2 -8h15q42 0 80 14q-4 0 -16 2t-17 2.5t-15.5 1t-17 -1t-15.5 -4t-16 -6.5z M3013 2568h56.5h50.5h39h67q58 2 104 6q123 10 145 15q28 5 60.5 7t72 3t60.5 2q146 4 225 8h4q22 -5 49 -5.5t44.5 1t50.5 5.5t45 5q2 0 41 17q-4 13 -12 19.5t-12 6.5h-19q-24 -2 -75 -5t-75 -5q-41 -3 -207.5 -17t-257.5 -16q-62 -1 -126.5 -5.5t-156.5 -14t-126 -12.5 q-9 0 -26 -3t-21 -4v-8zM3340 2505q0 -13 2 -19q14 -2 31 -2q62 0 164 23q-33 0 -98.5 -1t-98.5 -1z" />
<glyph unicode="G" horiz-adv-x="2330" d="M-1436 -2746q-4 33 -4 68q0 141 60 329q91 290 270 592q175 291 324 518.5t311 433.5q29 37 65 80t62 72.5t70.5 79.5t64.5 73q16 18 49.5 45.5t42.5 36.5q55 49 148 53h4q23 0 65 -22q39 4 62 8l39 -53q-17 -3 -46 -7t-45 -7q3 -1 78 -35q-6 -3 -23.5 -11.5t-25.5 -9.5 q-109 -20 -194 -108q-12 -12 -45.5 -46t-50 -51t-43 -45.5t-48 -53.5t-41.5 -50q-110 -136 -432 -555q-59 -74 -143 -186q-47 -65 -51 -113q-2 -22 -27 -70q-161 -290 -272 -571q-66 -177 -66 -329q0 -25 2 -50q3 -48 14 -84q25 -86 103 -86q16 0 35 4q15 2 40.5 11.5 t32.5 11.5q0 5 1 14.5t1 15.5q33 15 65 32.5t65.5 39.5t58.5 39t60.5 46t54.5 44.5t57.5 50t52.5 47t56.5 52t52.5 49.5l8 -6v-7q0 -1 -0.5 -3t-1 -6t-0.5 -9l47 37l14 -14q30 20 57 44.5t52.5 57.5t41.5 55t42 62q16 24 32.5 52t35.5 63.5t30 54.5q24 39 47 65q6 7 17 20.5 t18 22.5t18 19.5t21 17.5q23 16 43.5 34.5t52 51.5t39.5 41q-4 -20 -4 -31h8q85 105 109 162q9 20 23 40.5t36.5 47t30.5 37.5q22 28 64 84l63 84q18 23 52 62t42 49q30 37 57 75q36 45 127 162q14 18 17 37q-19 -17 -35 -35.5t-41 -50t-31 -39.5q-67 -82 -119 -129 q0 1 4.5 11.5t8.5 15.5l157 213q210 293 297 411q26 35 211 267q41 57 74 112q8 15 25 61t34 68q28 35 54 82q-3 -3 -13 -8q-80 -56 -180 -113q-11 -6 -24 -11t-28 -10.5t-24 -8.5q-38 -15 -61 -29q-132 -81 -291 -102q-5 -1 -32.5 -4.5t-35 -4t-30.5 -3t-34.5 -2.5h-30.5 t-34.5 2t-31.5 5q-163 38 -258 133q-91 88 -94 252q-1 27 0.5 59.5t4 55t7 59t6.5 54.5q4 59 39 157q92 238 176 369q3 4 7 12.5t8 14t8 8.5q14 8 25.5 22t15.5 21t13.5 32t10.5 27q14 34 53 90q170 245 353 420q30 29 167 137q13 13 41 21q8 2 16.5 5.5t14 6.5t14.5 10.5 t12 9.5t13.5 12t11.5 11l-10 15q-36 -18 -61 -33l-6 10q34 34 65 61q206 169 430 302q20 12 43 23t52.5 24t45.5 20q30 13 50 2q4 -1 6 -0.5t10 4t12 4.5q-1 5 -5 15t-5 14q28 20 47 27q183 78 232 94q124 43 258 74q19 2 28 1.5t31.5 -3t36.5 -3.5q-36 -28 -45 -34l379 61 q137 -31 250 -156q43 -48 43 -141q0 -109 -52 -166q-37 -9 -45.5 -4t-27.5 43l-25 -12q-12 9 -14.5 22t-1 20t7.5 25q15 54 15 101q0 21 -3 41q-46 26 -51 28q-105 40 -222 40q-16 0 -32 -1q-215 -14 -423 -84.5t-429 -187.5q-235 -121 -485 -324q-48 -39 -197 -155l-12 18 q-32 0 -56 -31q-200 -238 -258 -309q-106 -127 -221 -311l-41 -62q-3 2 -9 9t-9 10q-16 -30 -92 -180q14 -5 22 -11q3 -3 8 -9.5t9 -10.5l-54 -145q-6 -16 -11.5 -32t-10 -35t-7.5 -32.5t-7 -35.5t-5.5 -32.5t-5 -36.5t-4.5 -33t-4 -35.5t-4 -33.5q-1 -12 -1 -24 q0 -86 62 -182q13 -20 39 -31q87 -26 123 -29q33 -2 65 -2q174 0 335 68q7 3 18 -2q-11 -6 -32 -17.5t-37.5 -20t-32.5 -14.5q-60 -26 -113 -45q-96 -31 -115 -36q-16 -4 -121 -23q22 -16 48.5 -20t45 -0.5t48.5 12.5q61 15 147 43q8 3 29 10t32 11t26.5 12.5t25.5 17.5 q21 19 62.5 49t58.5 45q5 4 9 11.5t9 18.5t8 17q89 51 137.5 80.5t121.5 78.5t129 99.5t102 106.5q1 26 -9 41.5t-29.5 29t-25.5 19.5q12 41 29 109q14 -10 36 -28t29 -24q19 19 58 -8q13 -11 28 -29q48 79 58 101q14 24 35.5 71t29.5 64q26 50 81 152.5t83 156.5 q-7 -1 -26.5 -3t-32 -4t-23.5 -7q-15 -7 -42.5 -15t-49 -18t-37.5 -26q-16 5 -39 -5.5t-28 -11.5q-108 -24 -168 -41q-29 -8 -219 -72q-29 -11 -39 -9.5t-39 20.5q194 81 538 159q-127 -4 -252 -36.5t-286 -90.5q-12 19 -15 25q-13 18 -18 27q14 19 34.5 34t34.5 21.5 t40 17.5q71 30 158 55t151 39t164 33q49 9 102 16t121.5 15t101.5 12q12 2 36.5 7.5t37.5 7.5q21 3 60.5 6.5t71.5 8.5t58 15q21 8 47 14t41 8.5t50.5 7t42.5 5.5q265 33 465 33q49 0 94 -2q18 -1 52 -9t38 -9q151 -26 176 -29q6 -1 14.5 1.5t15 5t18 8t16.5 7.5 q91 -15 169.5 -59t172.5 -115q14 -56 28 -116q-22 -39 -32 -47.5t-46 -20.5q-2 2 -12.5 8t-18 11.5t-12.5 11.5q-139 142 -364 168q-131 17 -279 17q-128 0 -270 -13q-98 -8 -278.5 -30t-237.5 -28q0 -3 -54 -1.5t-55 1.5q0 2 1 7t1 10h-32q-4 -2 -3.5 -5.5t4 -11t3.5 -10.5 q-4 -6 -28.5 -30.5t-35.5 -47.5q15 6 30.5 20.5t29.5 23.5t32 6v-8q0 -42 -28 -62q-43 -36 -86 -117q-77 -150 -187 -358q-117 -210 -155 -277q-1 -2 -19 -20l68 137q2 4 5 12.5t5 12.5q-4 2 -12 10q-2 -7 -8.5 -19.5t-8.5 -17.5l-6 12q30 75 60 131l178 344q1 1 4 21 q-5 -6 -14 -14.5t-11 -12.5q-25 -47 -74.5 -140t-74.5 -140q-9 -17 -33.5 -65t-38.5 -73q-3 -17 -8 -26q-22 -53 -68 -113q-4 -10 -22 -41q-77 -139 -184 -315q-94 -154 -183 -283q-12 -17 -42 -44.5t-42 -43.5q-57 -74 -86 -139q5 4 107 78q5 -8 7 -15.5t2.5 -12.5 t-2.5 -12t-4.5 -9.5t-6.5 -10t-6 -8.5q-108 -153 -170 -233q-114 -151 -318 -410q-25 -33 -27 -51q-7 -44 -53 -101q-225 -303 -417.5 -543t-393.5 -458q-137 -148 -299 -295q-144 -127 -212 -174q-21 -14 -42 -27q-56 -37 -168 -90q-73 -31 -150 -31q-70 0 -143 25 q-144 50 -155 180q-2 17 -10.5 49.5t-10.5 47.5zM-1190 -2595l12 80h9q-1 -11 -11 -80h-10zM526 1020l49 59q-2 1 -5 4t-5 4q-3 -5 -14 -15t-17.5 -22t-7.5 -30zM911 -956q9 25 40.5 61.5t39.5 50.5l13 -6q-35 -47 -82 -115q-4 2 -11 9zM1368 1849q129 72 197 133 q-127 -65 -197 -133zM1595 2005q4 -4 7 -10l49 26l-9 13q-3 -2 -21 -12.5t-26 -16.5z" />
<glyph unicode="H" horiz-adv-x="3172" d="M4 854q18 13 7.5 40t-3.5 40q5 10 8 23.5t5 32.5t4 30q8 2 36.5 11.5t46 13.5t35.5 6q82 11 408 49q88 9 264 26.5t264 26.5q55 5 118.5 12t141.5 15.5t123 13.5q4 9 13.5 27.5t13.5 27.5q20 42 89 194.5t108 235.5q31 64 94 172q2 3 43 56q10 -5 90 -49q12 -26 22 -56 q-13 -39 -16 -43q-31 -41 -62 -95t-47 -87t-49 -106.5t-43 -94.5q-18 -38 -73 -168q4 0 17.5 -3t20.5 -3q115 9 154 17q68 11 191.5 33.5t152.5 27.5q13 6 32.5 5t29.5 -19q1 -4 26 -4q25 2 75 5t80 5.5t72.5 8t77.5 13.5q13 3 230 37q12 2 45 10q7 17 19 45.5t22 52.5 t18 46q29 71 74 141q4 6 14 22t14.5 24.5t10.5 22.5t8 27.5t0 28.5q-1 9 2 18.5t9.5 24t8.5 18.5q32 78 127 312t146 362q33 79 67 178q39 100 48 160q6 38 20 74t42.5 92.5t35.5 71.5l99 -51q-4 -39 -28 -152q-21 -100 -20 -163v-15q-3 -1 -29 -8l-77 -203v7q0 114 65 271 q-16 -5 -27 -12t-18 -18t-10.5 -19t-8 -22t-6.5 -19q-6 -13 -22 -42.5t-24 -46t-16.5 -43.5t-10.5 -52q-2 -23 -10 -47.5t-21.5 -56.5t-19.5 -48q-6 -21 -25 -98q0 -2 4 -26q5 9 29 59q-25 -107 -65.5 -229t-73 -203.5t-92 -224t-85.5 -207.5q202 20 222 22l442 43 q65 5 208 17t218 18q26 2 44.5 2t31.5 -2q31 -5 63 -5q8 0 16 1q26 1 58 1q42 2 63 1q19 0 52.5 14.5t54.5 14.5h9q34 0 92 6q66 7 93 8q12 1 70.5 4t75 3.5t69.5 3t74.5 3t70 2.5t74.5 2q26 2 70 2h40h34q32 0 70 -1.5t73 -2.5q45 -2 131 -18q18 -3 27.5 -5t21.5 -10 t19 -22q3 -6 13 -11t18 -5q17 -1 31 -10.5t20 -16t19.5 -27.5t15.5 -24q9 -14 6 -27q-13 -71 -33 -100q-18 27 -27 45l-102 -12q-2 25 -10 41.5t-24 23.5t-28.5 10t-35 4.5t-31.5 2.5q-21 3 -44 3.5t-55.5 -0.5t-45.5 -1h-166l-334 -13q-20 -1 -63.5 -2.5t-75.5 -4t-62 -7.5 q-18 -3 -101 -12.5t-126 -20.5q-31 -8 -62.5 -14t-70.5 -10.5t-60 -6.5t-70 -6.5t-63 -5.5q-181 -19 -518.5 -52t-406.5 -40q-26 -2 -72.5 -2.5t-61.5 -1.5l-43 -6q-12 -22 -63 -127q-16 4 -23 -1t-11.5 -19t-6.5 -17q4 -3 9.5 -8.5t8.5 -7.5q-7 -19 -37.5 -101.5 t-48.5 -126.5q-517 -1275 -622 -1530q-41 -100 -109 -223q13 51 47 168q-2 0 -5 1t-5 1q-10 -23 -28 -63.5t-32.5 -74t-25.5 -63.5q-8 -23 -14 -48.5t-12.5 -59t-10.5 -49.5q-51 -205 -131 -393q-91 -204 -143 -281q-47 -70 -56 -119q-7 -45 -67 -90l-105 6q1 7 11 37 q-2 1 -10.5 4.5t-14.5 7.5q1 8 1 23t1 26.5t4 20.5q19 55 70 172q9 22 63.5 147t79.5 193q63 172 125 371q5 14 22 35.5t21 35.5l86 340q0 5 -4 21l-18 -6q27 196 27 375q0 34 -1 67q-3 67 -17 135.5t-41 162t-36 130.5q113 -108 135 -272q12 -92 12 -217q0 -33 -1 -68 q0 -6 -11 -86q0 -4 -2.5 -13.5t-1.5 -15.5q2 -12 2 -34v-32q-2 -46 -4 -65.5t-7 -65.5t-7 -65q-2 -23 -10.5 -88.5t-10.5 -101.5q6 25 25 100.5t28.5 127t12.5 103.5q2 31 11.5 133.5t10.5 157.5q0 37 -9 105t-11 94q-6 96 -35 184q-29 84 -72 148q6 -36 9 -68 q-63 211 -244 356q-107 88 -197 105q8 -6 71 -50t93 -71q66 -58 133 -156q-10 9 -30.5 28t-38 34t-33.5 27q-55 44 -117 81q-23 15 -69.5 41t-55.5 31q-21 -37 -22 -41q-134 -333 -187 -528q-19 -70 -61 -174q-10 -26 -22 -31t-48 0l-28 49l-33 -22q-4 0 -4 4q2 2 2 4 q5 68 23 137t51 163.5t44 131.5q14 46 32 97t43 115.5t36 96.5q15 41 19 53q-94 25 -103 27q-250 46 -375 64q-11 5 -77 5h-14q-79 0 -91 -1q-127 4 -377 16q-89 4 -131 12q-16 3 -47.5 15.5t-40.5 15.5zM557 887q18 -2 53 -2q140 -16 262 -27q132 -10 230 -45l59 -18 q1 0 25 12q-7 2 -17 5.5t-14 3.5q13 0 37 -2.5t37 -2.5q8 -1 24 -7t24 -6.5t28 9.5q-172 50 -406 74q-136 16 -194 20q-25 2 -148 2v-16zM649 1004q31 -8 56 -8q7 0 14 1q111 15 137 17q178 19 227 20q11 2 46 2q29 0 75 -2q100 -2 121 -2q13 0 76 10l14 41q-4 1 -9.5 4 t-8.5 3q-136 -20 -158 -23q-197 -19 -250 -23q-120 -9 -241 -12q-56 -3 -99 -28zM834 932q153 -23 249 -43q46 -8 128 -27t104 -24q53 92 53 155q-15 2 -32 2q-37 0 -87 -10q-86 -20 -129 -24q-90 -10 -286 -29zM1326.5 646q-2.5 -7 0.5 -30q4 9 10 26t9 24 q-17 -13 -19.5 -20zM1389 831l12 -24q17 44 57 145l-12 6q-9 -21 -28.5 -63.5t-28.5 -63.5zM1460 774q44 -23 56 -26q82 -24 184 -103q14 -11 27.5 -25t30 -33.5t24.5 -27.5q7 -8 44.5 -55t61.5 -66q47 -37 62 -67q50 -94 80 -172q66 -171 69 -367q1 -63 1 -119 q0 -113 -5 -202q-2 -27 -7.5 -55.5t-15.5 -67t-12 -52.5q0 3 -1 7l-2.5 10l-2.5 10q-5 -6 -4.5 -39.5t0.5 -38.5q0 -15 -8.5 -43t-9.5 -33q71 147 116 340q33 145 47 187q9 30 21 59.5t31.5 72.5t25.5 58q7 17 22.5 49.5t26.5 58.5t19 50q5 16 34 72.5t31 91.5q0 3 5 9.5 t6 8.5q10 18 26 58q1 3 26 59.5t36 85.5q9 24 82 223q6 16 16 52t16 53q49 119 146 350q-37 7 -45 6q-90 -7 -156 -20q-194 -35 -289 -35h-18h-13q-46 0 -141 -11q-25 -3 -70 -13t-59 -13q-106 -17 -223 -33q-34 -4 -99.5 -11t-95.5 -11zM2585 403q22 40 81 183q6 18 25 86 l5 7q6 7 7 8t5 7.5t4.5 8t3.5 7.5t3 9t0.5 8.5t-0.5 10.5t-3 10q-10 -33 -27 -74q-59 -86 -92 -213z" />
<glyph unicode="I" horiz-adv-x="1910" d="M-1128 -713l49 29l-8 41q99 39 325 90q71 16 324 64q6 -8 6 -11l-4 -4q0 -6 -2 -10q21 1 60.5 4t60.5 4q42 3 55 33q8 23 33 27l163 24q4 0 43 5.5t60 6.5h96q6 0 17.5 -0.5t20.5 -0.5t17 1q24 4 73 14.5t73 14.5q-10 11 -42.5 6t-45.5 15q41 7 172 26q28 3 173 22 t222 27q38 3 61.5 20.5t38.5 51.5q141 334 201 467l602 1337q19 43 41 97q-5 1 -24 5.5t-26 6t-22.5 4.5t-25 3.5t-22.5 0.5t-25 -2q-180 -24 -307 -61q-47 -13 -100.5 -24.5t-123 -25t-102.5 -20.5q-8 -2 -24.5 -8t-24.5 -8q-38 15 -43 23.5t2 45.5q-3 4 -14 7.5t-16 10.5 t-1 23q55 63 156 80q290 45 387 57q102 13 428 49q7 15 18 38t20 41.5t17 33.5l64 -22l-19 -50q47 -24 88 -24h6q39 1 111 3t131 4t111 5q-16 3 -64 8q24 2 82 7t90 7q33 0 82 2q13 0 26 1q36 0 68 -3q44 -4 88 -12q-9 -1 -18.5 -2.5t-12.5 -2t-10 0.5q-28 7 -62 7.5 t-60 -2.5t-63 -7.5t-62 -5.5q-30 -2 -95 -27h48q59 5 122 5q75 0 158 -7q99 -10 186 -24q14 -2 41 -15t35 -16q-9 -23 -40.5 -43t-37.5 -26q-35 14 -78.5 20t-70 6t-82.5 -3.5l-72 -4.5q-71 -4 -206 -16.5t-156 -14.5l-225 -12q-7 0 -21.5 -2.5t-21.5 -3.5 q-33 -72 -97.5 -217.5t-97.5 -218.5q-71 -152 -201 -437q-33 -72 -96 -216t-96 -216q-109 -251 -203 -430q4 15 13.5 44.5t13.5 45.5q-7 0 -11 4q-67 -99 -96 -202q-11 -44 -11 -78q0 -23 5 -41q1 -8 0 -12t-5 -14t-5 -17q71 0 86 2q100 7 174 20q37 6 103.5 20t92.5 19 q8 9 19 16t19.5 11t23.5 6.5t22 3.5t25 2.5t23 1.5q593 37 901 38q30 0 57 -1q62 0 184 -4q57 0 95 -21q4 -12 4 -24q0 -33 -31 -59q9 -23 14 -31q7 -12 7 -24q0 -20 -21 -38q-10 -8 -31 -16q-134 -50 -244 -50q-19 0 -36 1q-21 59 -111 106q-7 0 -33 2.5t-50 2t-44 -6.5 q-22 -7 -45.5 -10.5t-54 -5.5t-45.5 -4q-23 -3 -50 14q87 4 134 8q-8 6 -17.5 11t-16 7.5t-16.5 4.5t-14.5 2.5t-15 1t-13.5 0.5q-53 7 -95 7q-26 0 -48 -3q-47 -6 -94 -37q-46 -28 -90 -31q-74 -6 -226 -17t-231 -17q-30 -2 -91.5 -6t-98 -7t-88.5 -10t-95 -16 q-52 -10 -149 -15.5t-139 -11.5q-194 -31 -773 -110q-50 -7 -200 -25l-17 -4q-93 -30 -267 -66t-232 -51q-131 -34 -185 -45q-5 -1 -16.5 -4t-18 -4.5t-17 0.5t-19.5 8q-10 2 -17 0.5t-24.5 -8t-26.5 -8.5zM-327.5 -546.5q-4.5 -3.5 1.5 -20.5l39 32q-36 -8 -40.5 -11.5z M739 -334q3 -1 11.5 -3t12.5 -2.5t12 -2t12.5 -0.5t11.5 2t12.5 4t11.5 8z" />
<glyph unicode="J" horiz-adv-x="2719" d="M-651 -1765q-6 64 -6 128q0 136 29 271q42 198 134 414q53 126 144 288q11 21 26 42.5t35.5 47t30.5 39.5q16 0 28.5 18t16.5 21q2 -4 18 -28q10 16 37.5 54.5t43.5 66t24 57.5q-18 -18 -33 -39l-67 -76l67 123l51 94q3 6 12.5 27t16.5 34.5t16 24.5q111 145 441 557 q18 23 96 101q2 2 5 6t5.5 6t5.5 2q22 6 42.5 21t31 28t29 38t26.5 34q8 10 34 44.5t38 49.5t34.5 40.5t44 43.5t44.5 33q62 41 104 59q15 8 36 8q19 0 42 -7q48 -13 68 -44q4 -7 14 -22t12 -19q-10 -60 -14 -71q-12 -42 -48 -64q-24 -15 -51 -15q-13 0 -26 3q-35 7 -53.5 0 t-42.5 -29q-199 -192 -416 -465q-62 -77 -128.5 -162t-153 -197t-127.5 -165q-10 -12 -41.5 -48t-47.5 -57q-43 -54 -141 -186q-4 2 -12 4q-26 -35 -35 -49q6 27 16 57q2 6 7.5 18.5t7.5 18.5q5 26 8 33q-10 -16 -30.5 -44t-35 -52.5t-20.5 -48.5q17 -7 20 -7 q-6 -27 -22 -81l8 -7q10 11 29 33.5t26 30.5q2 -4 0.5 -11.5t-1.5 -10.5t-3.5 -9.5t-5 -9t-5.5 -8.5t-5 -8q-113 -211 -174 -383q-77 -208 -105 -408q-7 -53 -7 -107q0 -95 22 -190q25 -90 73 -133q23 -23 48 -29q4 -1 46 -6t58 -16q16 -10 31.5 -11.5t35.5 2t29 3.5 q28 2 105 28q65 21 136.5 60t116 70t121.5 87q154 112 316 277q88 91 113 182q7 21 22 33q198 216 418 500l20 20q-13 -32 -32 -72q2 0 6 -4q26 32 170 203q3 -4 6 -7t6.5 -6t5.5 -5q-9 -16 -25 -47t-24 -46q-7 -17 -22.5 -49t-22.5 -49q-4 -10 -15 -27.5t-17.5 -35 t-4.5 -39.5q6 8 14 17t13 15t8 11q9 19 25 53t29.5 62.5t27.5 52.5q4 8 46 76t54 110q5 15 21 35q25 31 80 111t90 120q1 3 -2 33q-29 -37 -43 -51q-40 -38 -79 -82.5t-87.5 -105t-71.5 -87.5q-15 -17 -47 -41l153 216q508 728 609 872q39 54 111.5 150.5t101.5 136.5 q38 47 73 127q39 80 105 166q19 25 37 51.5t43 68.5t33 54q231 349 325 510q31 52 65 115t57 107.5t61.5 120.5t56.5 111l10 25q-8 3 -27 8q-120 21 -254 21q-164 0 -350 -31q-467 -74 -1397 -230q-18 -3 -50 -8.5t-58.5 -9.5t-50.5 -6q-85 -7 -97 -64q-90 0 -108 2 q-65 7 -100 47q2 7 4 42t18 51q27 23 45 32q49 18 82 25q71 17 119 37q18 8 37.5 13t51.5 9.5t40 6.5q34 6 95 13t112 15t94 19q75 17 144 17q19 0 38 -1q14 -2 27 -2q59 0 104 33q33 23 90 30q620 98 744 115q177 24 318 24q66 0 124 -5q49 -7 108 -7q16 0 33 1 q78 2 138 24q47 -34 102 -76q0 -57 -0.5 -80.5t-8 -68t-22.5 -78.5q-90 -217 -217 -426q-32 -52 -352 -555q-2 -4 -19 -34t-28 -46q-123 -180 -147 -217q-16 -24 -37 -59q-8 -14 -21 -40t-25 -47t-24 -38q-111 -172 -420 -629q-22 -33 -86 -115q-34 -45 -35 -47 q-32 -58 -75 -125t-73 -110t-87.5 -122.5t-79.5 -111.5q-91 -129 -332 -438q-14 -19 -45.5 -49.5t-44.5 -46.5q-25 -28 -88 -113q-97 -134 -313 -346q-262 -258 -533 -424q-112 -69 -274 -117q-79 -24 -181 -24q-49 0 -104 6q-104 13 -162 90q-14 21 -32 33q-55 29 -82 106 q-27 86 -37 193zM1677 -358q6 -23 9 -52q77 91 104 162q-89 -29 -113 -110zM1808 -156q37 49 131 187t152 205q3 3 18 34q-5 2 -8 9q-2 -2 -11.5 -10t-12.5 -13q-128 -162 -222 -287q-42 -55 -47 -125zM2284 498q21 33 57 86l-14 6q-4 -8 -17.5 -25.5t-20 -33t-5.5 -33.5z M2728 1227q4 5 26.5 29t30.5 40q4 8 18 23.5t22 32t7 37.5q-6 -7 -21.5 -26t-22 -27t-18.5 -24.5t-18.5 -27.5t-13 -26.5t-10.5 -30.5zM3068 2249q12 1 36.5 -4.5t45 -3.5t39.5 18q-16 6 -33 6.5t-29.5 -2.5t-30 -7.5t-28.5 -6.5z" />
<glyph unicode="K" horiz-adv-x="2050" d="M27 674v98l69 82q173 -10 195 -12h19q47 0 93 12q168 37 465 156q50 20 78 71q74 135 213.5 388t163.5 296q7 13 24 37t25 37q52 -28 103 -59q-68 -106 -166 -256l-19 -28.5t-21 -32t-17 -28.5t-18 -34.5t-12 -32t-10 -37.5q-6 -28 -16.5 -57.5t-27 -71.5t-23.5 -61 q33 8 39 12q60 30 195.5 96t236 116.5t192.5 100.5q100 54 208 116t247.5 143t206.5 120q66 39 227 121q19 9 23 8q20 -5 37 0.5t40 21t31 19.5q52 31 86 41q70 15 97 84q-24 -6 -77.5 -31.5t-86.5 -27.5l110 69q673 429 926 592q11 7 59 51v3q6 13 32 26t30 29q-11 1 -22 1 q-83 0 -167 -81q-4 -3 -6 -7.5t-3.5 -11.5t-2.5 -10v2q-6 -3 -18 -6q-1 7 -11 31q-2 0 -8.5 0.5t-9.5 1.5t-7.5 3t-7 6t-3.5 11q17 62 91.5 115t160.5 73q42 10 76 9q35 0 61 -10l47 -70q-2 -5 -9 -20t-10 -25q6 -28 11 -39q10 -19 10 -37q0 -32 -31 -61q-69 -60 -143 -100 q3 4 16 30q-27 0 -59 -28l-230 -199q-51 -44 -84 -64q-198 -131 -368 -237q-22 -14 -47 -27.5t-59.5 -31.5t-55.5 -29q-5 -6 -22.5 -23.5t-26.5 -27.5l-29 20q-66 -40 -240 -150.5t-300 -182.5t-252 -128q20 -15 32 -13t33 8.5t35 2.5q-12 -7 -44 -26.5t-50 -28.5 q-163 -96 -235 -137.5t-206 -112.5t-245 -119q-39 -17 -188 -82t-228 -100q-128 -54 -178 -162q-24 -51 -72 -142.5t-65 -125.5q-4 -7 -17 -41q210 -132 389 -248q0 -4 -4 -8l-76 33q-47 21 -84 28q16 -16 19 -18q176 -118 244 -162q14 -9 53.5 -34t60.5 -40 q55 -39 187 -141q36 -27 100.5 -75t117.5 -88t99 -76q24 -18 47.5 -39.5t56 -54.5t44.5 -44l79 -73q3 -2 25 -2q-1 21 -12.5 37t-31.5 35t-30 34q26 -16 45 -31q215 -159 275 -200q52 -35 105 -79.5t115.5 -101.5t96.5 -86q35 -30 96.5 -88.5t71.5 -68.5 q48 -45 102.5 -100.5t91 -95t98.5 -107.5t91 -99q239 -261 416 -479q24 -29 91 -107.5t101 -123.5q96 -116 187 -246q25 -36 143 -221q15 -22 50 -77t55 -85q6 15 -7 36.5t-8 35.5q5 -7 14.5 -18.5t10.5 -12.5l123 -203q49 -88 61 -190q2 -14 2 -26q0 -48 -31 -75 q-7 -7 -18 -24t-12 -19q-31 -31 -77 -33q-2 0 -4 -1q-43 0 -67 30q-1 2 -2 9t-2 10q-5 2 -15.5 5t-15.5 5q1 4 4 15.5t3 17.5l-7 34l64 84q-4 9 -14.5 35.5t-19.5 45.5t-19 36q-163 251 -232 346q-28 40 -61.5 83.5t-77 98.5t-64.5 82q-3 4 -43 70q-18 31 -28.5 47.5t-31 38 t-44.5 35.5q-7 4 -14.5 10.5t-12 12.5t-12.5 17t-12 15q-45 51 -134 154.5t-134 154.5q-28 28 -31 64q10 0 12 -2q112 -132 135 -158q31 -37 86 -100q-126 221 -338 414h-32q-1 1 -5 2t-6 2q-11 7 -25 31t-28 32q-16 8 -39 33t-28 29q-12 12 -36.5 33t-27.5 24l-68 65 q-3 3 -20.5 18.5t-24.5 24.5q-5 7 -10 16t-11 20.5t-9 17.5q-26 24 -102 92t-117 106q-15 15 -100 98t-132 124q-27 22 -78.5 57.5t-66.5 46.5q-359 276 -615 469q-378 287 -909 606q-7 4 -22.5 12t-24.5 13q-67 -132 -135 -258q-54 -99 -99 -170q-33 -52 -63 -62 q-10 -3 -23 -3q-27 0 -67 14l-62 20q7 7 15 16t10 11l-12 18q0 8 2 10q5 11 12 13q15 7 28.5 17t22 19t19 26t14.5 25t14 29t13 27q25 51 74 145.5t61 116.5l33 66q-6 4 -20.5 14t-22.5 14q-204 103 -334 172q-36 20 -102.5 61t-71.5 44zM49 -424q51 70 135 70q14 0 29 -2 q22 -5 82 -4h33q53 1 84 0h32q157 -11 261 -41q73 -20 120 -60q7 -7 47 -28q-12 54 -47 67q-110 39 -157 53q-12 3 -41.5 9t-52 11.5t-42.5 12.5q7 0 20.5 1t20.5 1q142 -11 232 -43q106 -36 108 -125q0 -11 11 -26q12 -21 12 -41q0 -33 -33 -64q-37 -37 -78 -72 q-16 7 -24.5 12t-14.5 12.5t-4 16.5t11 21q-6 8 -5.5 16.5t2 12.5t9.5 14l8 10q-21 28 -49 40.5t-68 19.5q-130 24 -263 24h-30h-98q18 8 65.5 10t71.5 23q-14 1 -30 1q-30 0 -64 -3q-51 -4 -79.5 -8t-94 -16t-84.5 -15q-5 21 -8 59q-2 1 -11.5 3t-14 8t-1.5 20zM502 645 q23 -13 79.5 -44t90.5 -50q67 134 100 197l-8 8q-43 -12 -128.5 -49.5t-133.5 -49.5v-12zM678 778q18 -9 36 -9q40 0 77 46q-17 -6 -54.5 -18t-58.5 -19zM799.5 625q0.5 -12 11.5 -21l33 45l-15 -74q44 67 67 119q22 50 22 108v5q-32 -12 -50 -35.5t-32 -59.5t-23 -50 q-8 -12 -11 -18.5t-2.5 -18.5zM965 207q52 -41 73 -53q51 -34 155 -100.5t155 -100.5q39 -26 106.5 -74t124.5 -86t111 -67q10 -6 63 -31q-3 18 -4 18q-151 113 -193 140q-266 184 -401 272q-8 5 -39 26.5t-46.5 30.5t-45 17.5t-59.5 7.5zM1018 1090q9 2 17 6t14 8t11.5 12 t8.5 12t7 15t5.5 15t5.5 16.5t5 15.5zM1272 1364q6 45 74.5 174.5t97.5 153.5q2 2 5 2.5t9.5 0.5t11.5 1q-101 -166 -198 -332zM1737 1323q5 1 19.5 5.5t20.5 6.5t19 7t21.5 9.5t19.5 12t21 16.5q-22 4 -42 -1.5t-29 -12t-27 -23t-23 -20.5zM1876 1389h2q38 -1 112 37 q76 38 101 73q-93 -34 -215 -110zM3072 -1493q7 -45 43 -47q-28 32 -43 47zM3783 2570q6 -6 8 -10q20 13 45 41zM3840 2605q23 0 27 2q96 58 133 86q27 21 72.5 63.5t60.5 55.5l-6 12q-1 0 -17 -3.5t-22 -8.5q-13 -9 -76 -59q-98 -82 -145 -123q-5 -4 -13.5 -12.5 t-13.5 -12.5z" />
<glyph unicode="L" horiz-adv-x="1894" d="M-872 -1305q-1 12 -1 23q0 116 93 184q175 124 219 150q204 128 461 248q80 38 123 125q21 43 75 152.5t82 168.5q20 40 58 120l57 120q3 7 12.5 18.5t11.5 15.5q10 38 23 64q315 678 483 1034q13 27 47.5 91t51.5 100q109 230 215 469q15 33 39.5 99t38.5 97 q197 462 239 568q52 131 117 344q2 8 17 28t14 39l26 -65q5 9 12 46.5t25 51.5q7 -5 21.5 -15t21.5 -14q12 -18 14 -40.5t-0.5 -35t-9.5 -40.5q-65 -246 -186 -521q-296 -676 -580 -1296q-184 -405 -459 -983q-61 -131 -292 -604q6 -1 12 -1q22 0 51 13q38 17 57 16 q12 -18 15 -24q20 11 76 39.5t86 44.5l-2 -2q150 45 256 110q3 1 4.5 5t3 12t2.5 12q324 116 686 211q258 68 704 145q166 27 246.5 40t217.5 29t249 22l-106 -37v-6q11 2 51 6.5t61 9.5q41 7 123 23.5t123 23.5q25 4 64 3q26 0 57 -1q103 -6 194 -20q76 -9 133 -26t107 -54 q0 -21 12 -34t33.5 -25t30.5 -21q15 -50 15 -91q0 -40 -14 -73q-28 -66 -106 -88q-79 41 -100 51q3 3 12 10.5t12 10.5t10.5 10t10.5 11.5t7.5 11.5t6.5 13t3 14t1 17q-20 -7 -41 -16q6 9 22.5 31t25.5 35q-4 2 -15.5 10.5t-20 13t-16.5 6.5q-115 27 -157 27h-31 q-365 0 -842 -68q-84 -13 -235 -28l39 18q-18 -5 -19 2t4.5 16.5t-4.5 12.5q-26 -6 -84 -17l66 -30l-223 -49l-119 -19q-15 -3 -30.5 -3t-32.5 2.5t-29.5 5t-34 7t-33.5 7.5q-7 -3 -88 -27q2 -4 2 -12q7 1 23 2t24 2l-8 -8q-250 -72 -404 -119q-264 -78 -352 -107 q-312 -103 -576 -213.5t-573 -263.5q-237 -117 -432 -246q-30 -20 -113 -82q14 -17 12 -32.5t-9 -23.5t-17 -20t-12 -22q-56 7 -83 17.5t-58 37.5zM283 -176q8 6 12 9.5t10.5 10.5t7 12t3 14t-2.5 17zM322 23q4 -36 8 -52q45 88 49 142q-10 -15 -57 -90zM487 -586 q10 -10 13 -10q63 22 211 78q-34 27 -44 28t-34 -20q-37 -37 -98 -57q-7 -2 -23 -9t-25 -10zM1569 -246q16 -2 31 -2q23 0 43 4q34 8 47 25zM2001 -115h12q32 1 68 5q43 6 73.5 11.5t79 16.5t74.5 16q-26 5 -54.5 5t-50.5 -2t-52.5 -9t-48.5 -12.5t-52 -16t-49 -14.5z M2525 2q43 0 121 12q2 0 10 17q-18 14 -26 11.5t-20 -11.5t-19 -8q-5 1 -10 1q-25 0 -56 -22zM2750 -57q122 5 158 10q160 20 244 20q76 0 115 2q21 0 118 5q0 3 -1 8t-1 8q-20 -1 -102.5 -3.5t-112 -4t-99.5 -5.5t-112 -9t-99.5 -13t-107.5 -18zM3475 -4l89 -19 q-12 9 -20.5 14t-20.5 9.5t-23.5 3t-24.5 -7.5zM3633 -221q29 30 31 45.5t-17 50.5q-6 -47 -14 -96zM3674 -66q15 -69 16 -71q3 -10 23 -35q3 14 8 41t8 41q-6 3 -13.5 11t-11.5 11.5t-13 6t-17 -4.5zM3705 -231q16 16 24 45q0 1 -14 10q-2 -9 -5 -27.5t-5 -27.5z" />
<glyph unicode="M" horiz-adv-x="2871" d="M-23 -190q-1 26 5 54t11.5 48.5t16.5 52.5q46 139 115 304t117 266t141 292q33 67 256 498q4 10 51 90q11 0 34 1t38 1l22 31q38 -19 45 -23q18 -26 18 -52q0 -31 -26 -62q-31 -33 -78 -121q-330 -634 -510 -1067q-33 -80 -45 -139q3 3 9.5 7t9.5 7q56 51 168 158 q45 43 139 168q77 99 229 266q36 41 108.5 120.5t129 143.5t106.5 123q13 15 67 82.5t85 101.5q42 48 125 135q32 32 39 37q5 4 19.5 15.5t22 16t20.5 9.5t26.5 3.5t28.5 -9.5q56 -28 84 -59q24 -27 24 -71v-13q-5 -91 -29 -211q-55 -286 -83 -389q-12 -49 -35 -191 q-2 -10 -2 -74q92 46 163 117q246 238 363 363q122 128 341.5 365.5t295.5 318.5q30 34 113 108q22 17 98 72q18 -24 51 -62q4 1 11.5 4.5t11.5 4.5q31 9 45.5 0.5t25.5 -39.5q16 -47 16 -99q0 -41 -10 -83q-62 -224 -92 -310q-23 -68 -151 -411q-1 -5 -15 -23 q-27 27 -16 55q15 35 30 76t33 90.5t29 77.5q25 74 39 121l-16 6q-38 -89 -75.5 -187.5t-85 -230t-69.5 -190.5l-233 -608h-4l12 81q-36 -74 -62 -174q-22 -84 -23 -128q0 -8 1 -15q39 97 55 139l47 31q0 2 -1 6.5t-1.5 7t0.5 4.5q8 6 13.5 14t7.5 14t4.5 17t3.5 15 q9 24 27.5 75t34 89.5t32.5 72.5q17 32 47 119q3 8 25 76q0 1 11 19.5t11 33.5q0 10 13.5 32t15.5 28q18 47 76 209q2 4 5.5 8.5t8 9.5t6.5 8q-7 -40 -14 -67l-387 -1072l-10 35h-10q-3 -9 -14.5 -41.5t-16.5 -50.5q-65 -215 -123 -338q-46 -101 -53 -244q13 35 43 121.5 t47 132.5h4l-25 -149q-97 -479 -121 -604q-21 -107 -100 -545l-4 -23q-16 -39 -25.5 -87.5t-12 -80.5t-4.5 -92.5t-5 -83.5q-8 -100 -27 -426q0 -9 -1.5 -28t-2 -29.5t0.5 -26.5t3 -30q20 -70 90 -92q7 -2 21 -11q2 0 2 -10l-72 -6q6 -14 17.5 -23.5t20 -12.5t27 -7t25.5 -6 q2 -6 5.5 -19.5t5.5 -19.5q-9 -6 -11 -8q-33 -11 -66 -11q-72 0 -136 54q-20 17 -33.5 43t-19 46t-11.5 54q-18 90 -18 214q0 102 12 228q44 506 203 1256q114 536 241 919q33 103 97 293.5t90 270.5q0 4 2 6q37 71 80.5 209.5t64.5 189.5q70 172 152 399q21 61 166 492 q11 36 11 73q0 12 -1 25l-64 -55q-12 -11 -40 -37t-47.5 -45.5t-37.5 -38.5q-12 -13 -31 -43t-30 -43q-280 -316 -377 -422q-24 -26 -73 -72.5t-70 -68.5q-9 -10 -72 -82q-8 -9 -24.5 -30.5t-30 -36.5t-29.5 -25q-28 -17 -56 -43t-44 -44t-45 -52q-107 -121 -268 -183 q-14 -5 -27 -5q-25 0 -45 20q-59 5 -82.5 27t-26.5 79q-1 25 -1 48q0 39 3 73q4 37 9.5 75t13 81t13 72.5t16 81t15.5 73t18 80.5t16 74q7 28 39 184q-36 -24 -37 -25q-14 -16 -40 -45t-47.5 -52.5t-41.5 -43.5l-264 -281q-34 -37 -62 -82q-52 -82 -203 -249 q-241 -266 -438 -475q-59 -65 -156 -140q-51 -39 -97 -39q-2 1 -3 1q-47 2 -104 42q-6 26 -7 52zM55 39l4 -41l103 254l-10 6q-69 -135 -97 -219zM1376 287q14 -10 28 -9q18 0 36 15q-47 32 -64 43v-49zM1391 240q6 -1 22.5 -5.5t24.5 -5.5l6 -28q10 1 30 2t31 2 q-40 40 -84 40q-15 0 -30 -5zM1485 299q8 4 25.5 13t27.5 14q-23 6 -36.5 1t-16.5 -28zM1802 471q25 3 46.5 11t40.5 23t30 25.5t30.5 32t26.5 29.5l-12 14q-19 -16 -74.5 -61.5t-87.5 -73.5zM1853 -3166l35 -53q34 15 39 16q-20 35 -29.5 40t-44.5 -3z" />
<glyph unicode="N" horiz-adv-x="2086" d="M43 -84v14q0 83 55 181q171 298 224 383q170 265 284 426q18 26 42 54.5t55 63.5t49 56q-7 -30 -11 -41q4 -4 9 -4l26 36q16 20 44.5 59t52.5 70.5t47 57.5q10 11 15.5 34t10.5 31q15 28 39 82.5t33 73.5q6 11 20 31t19 28q93 -44 115 -92q8 -17 8 -35q0 -35 -27 -77 l-10 30q-12 -15 -25 -28q-8 16 -14 24q-137 -130 -207 -250q-68 -119 -149 -250.5t-181.5 -291t-154.5 -248.5q-9 -18 -9 -33q11 9 59.5 52t74.5 65q24 21 69 59t58 49l112 99q84 74 160 139q3 2 13 12.5t15.5 15t16.5 8t23 1.5q4 0 9 4t11.5 10.5l9.5 9.5l53 47 q38 47 52 60q280 268 608 473q72 47 205 102q35 15 68 15q47 0 91 -29q3 -2 19 -12.5t20 -14t17 -13t18 -16t13 -16t12.5 -20t7.5 -21.5q12 -45 12 -72q0 -10 -2 -18q-36 -192 -129 -483q-32 -102 -81.5 -224t-80 -190.5t-104.5 -225.5t-92 -196q-67 -147 -204.5 -440 t-203.5 -440q-161 -361 -262 -645q-28 -82 -54 -171.5t-58.5 -214.5t-45.5 -174l-30 -94q-1 -4 -4.5 -15t-4.5 -18q-11 -79 -31 -226t-28 -206q-4 -30 -4 -62q0 -39 6 -79q11 -74 37 -123q20 -6 43 -5q38 0 84 15l12 -18q4 2 11 2q82 52 140 103t97 118q7 12 28 28.5 t25 20.5q59 -29 66 -73q-4 -9 -18.5 -38.5t-21 -41.5t-20 -36.5t-24.5 -38.5t-26.5 -32.5t-32.5 -32.5q-117 -105 -230 -137q-37 -10 -73 -10q-58 0 -112 29q-86 47 -114 145q-11 44 -14 98q-4 61 -4 119q0 120 18 225q9 53 23.5 160t29.5 190.5t37 157.5q17 53 49.5 149.5 t46.5 139.5q19 62 25 94q56 246 231 639q46 104 138 302t104 223l281 600q18 40 81.5 169t92.5 201q8 20 61.5 145t72 171.5t50.5 139.5t51 169q15 65 17 74q3 15 3 31q0 40 -18 88q-41 -8 -63 -17q-99 -37 -246 -137q-36 -24 -100 -71.5t-86 -63.5l-170 -117q-6 -4 -60 -31 q-19 -6 -37 -13.5t-38.5 -20t-31 -19t-36 -24t-31.5 -21.5q-33 -18 -33 -49q0 -12 5 -25q20 8 26 11q4 3 8.5 6.5t9.5 8t9 7.5l49 35q-9 -18 -14 -23q-307 -268 -518 -446q-138 -117 -277 -223q-19 -16 -59 -39t-56 -35q-10 -6 -20 -14.5t-22 -20t-17 -16.5q-44 -11 -59 -58 l61 54q36 17 86 45q-11 -40 -77 -92.5t-124 -65.5q-22 9 -100 45zM702 -2589q3 10 9.5 36.5t11.5 41.5q-26 -22 -26 -51q0 -13 5 -27zM737 -2466q5 17 16.5 52t16.5 53h4q-1 -33 -4 -101t-4 -104h10q1 4 12 52.5t13 72.5q8 89 43 246q18 79 18 145q0 49 -10 90 q-12 -68 -59 -238.5t-56 -267.5zM807 1053l12 -9q57 70 158 238q-103 -109 -170 -229zM915 -1618q10 -2 17 -6q-4 -32 -4 -49q11 25 28.5 70.5t24.5 62.5q17 43 51 121t43 100q84 206 96 232q8 20 31 66.5t33 72.5q4 11 7 24t6 28.5t5 23.5q3 11 9.5 38.5t10.5 42t11.5 36 t15.5 38.5q24 54 51.5 114t62 132.5t52.5 112.5q11 22 15 34l-8 9q-24 -31 -35 -52q-121 -253 -135 -284q-147 -324 -234 -535q-33 -79 -151 -405q-3 -6 -3 -27zM1079 827q22 19 86.5 71t105 90.5t72.5 82.5q-12 0 -14 -2l-186 -160q-50 -33 -53 -35q-2 -9 -11 -47z M1116 -2961q4 -1 41 -15q85 68 156 193q-20 -34 -57 -63t-77.5 -57.5t-62.5 -57.5z" />
<glyph unicode="O" horiz-adv-x="2967" d="M-29 -549q13 184 80 420q162 565 533 1161q183 296 340 486q40 48 85 97t109 117.5t88 94.5q25 29 49 29q5 0 11 -1q2 -1 5 1t7 5.5t6 4.5l92 69q144 113 201 158q6 5 12 14t13.5 22t13.5 21q110 54 178 54q77 0 154 -70q20 -19 24.5 -42.5t-12.5 -51.5q-13 5 -38 13.5 t-34 12.5l-15 -10t-15.5 -9.5t-12.5 -4.5q-57 -5 -109 -29t-116 -65q-186 -118 -373 -318q-95 -103 -209 -237q-152 -181 -221 -267q-36 -45 -127 -176l43 23q-3 -14 -6 -19q-38 -67 -132.5 -233t-145.5 -258q-20 -36 -52 -107.5t-47 -99.5q-9 -19 -28.5 -52.5t-26.5 -47.5 q-35 -57 -41 -74q-62 -189 -88 -344q-44 -269 -47 -371v-19q0 -160 47 -304q29 -89 94 -142q38 -31 86 -43q54 -14 115 -14q77 0 166 22q192 46 454 207q92 58 152 80l-100 -84q31 4 140.5 85.5t178.5 150.5q15 9 57 37q19 4 38 14.5t29 19t30 27.5q149 127 157 133 q36 27 71 64t75 84.5t63 72.5q2 3 4 13t4 14q21 47 27 55q57 86 158 226q10 14 33 45t39 54t30 46q4 7 18 23.5t21 30t8 30.5q0 5 4.5 11.5t11 14t9.5 11.5q279 369 508 737q159 259 272 494q9 19 47 102.5t62 126.5q83 158 108 408q3 26 3 50q0 74 -29 117q-5 7 -8.5 18 t-6.5 27.5t-6 26.5q-60 69 -195 69q-13 0 -26 -1q-23 -1 -98 -15q-11 -2 -34 -7t-34.5 -7t-35.5 -4t-36 2q-7 1 -15 1l-65 -28q-46 -40 -137 -121.5t-137 -121.5q-176 -152 -313 -355q-61 -90 -98.5 -164.5t-53.5 -156.5q-18 -97 -18 -194q0 -112 24 -224q20 -93 68 -151 q42 -48 95 -48q27 0 58 13q131 49 164 61q74 -38 86 -45q-6 -16 -19.5 -49t-19.5 -49l29 -6q-120 -60 -241 -60h-11q-55 0 -160 33q-88 28 -139 125q-28 54 -53 143q-3 11 2 49q3 16 3 34q0 46 -17 108q0 2 -6.5 18.5t-6.5 24.5q-1 26 -1 50q0 181 46 302q1 2 4 11.5 t4.5 13.5t7.5 8.5t15 5.5q2 0 6 8l133 209q1 2 3 10.5t4 14.5q-10 -1 -17.5 -5t-11 -8.5t-8 -12.5t-6.5 -11q-4 -5 -11 -13.5t-13 -15.5t-11 -12q26 72 100 172q266 363 600 538q179 96 346 99h23q2 0 3.5 -1l4.5 -3l6 -4l-123 -46q0 -4 2 -8q1 0 34.5 1t49.5 5q14 4 34 5 q32 0 79 -11q9 -3 19.5 -4t24 -1t21.5 -1q32 0 39 -4q98 -44 150 -123q73 -117 73 -275q0 -36 -4 -73q-23 -198 -122 -451q-125 -312 -357 -698q-234 -388 -516 -758q-112 -150 -268 -338q-141 -171 -285 -323q-33 -34 -55.5 -54.5t-58 -43t-72.5 -31.5q-6 -2 -12.5 -7 t-14.5 -13t-12 -11q-32 -30 -174.5 -166t-220.5 -207q-152 -134 -346 -229q-13 -6 -39.5 -17.5t-38.5 -17.5q-32 -13 -74 -33q-2 0 -4 -1.5t-3.5 -2.5t-2.5 0q-15 8 -49 8q-22 0 -52 -4q-62 -7 -91 -6h-11q-10 1 -19.5 1.5t-20 -1t-18 -2.5t-20.5 -5t-18.5 -5t-20.5 -7 t-18.5 -7.5t-21 -8.5t-19.5 -8q-2 0 -25 5.5t-27.5 7t-25 6.5t-28.5 7.5t-25.5 8.5t-28 11t-25 12t-26.5 14q-139 86 -197 248q-44 130 -44 331q0 54 3 113zM756 -1184q0 -4 2 -6q11 3 37 10.5t41 10.5v6q-14 -3 -40.5 -10.5t-39.5 -10.5zM1458 1903q9 -1 17 -1q27 0 49 15 q17 12 48.5 35t57 41.5t47.5 34.5q-22 13 -40.5 10.5t-43.5 -23.5q-56 -44 -135 -112zM1960 1010q4 -9 29 -54l10 7l-21 51q-6 0 -18 -4zM2044 1708l55 90q-39 -42 -48 -56.5t-7 -33.5zM2085 846q1 -2 4 -6.5t4.5 -6.5t5 -5t6.5 -4t7 -1.5t9 1t11 5.5q-8 3 -23.5 9t-23.5 8z M2666 631q7 0 11 -4q2 5 9 14.5t8.5 15t-1.5 19.5zM2695 680q42 23 49 94q-9 -19 -27 -53t-22 -41z" />
<glyph unicode="P" horiz-adv-x="2500" d="M-557 600q38 158 184 336q85 110 178 170q70 46 117 88q10 9 42 45.5t54 52.5q25 17 78 58.5t84 62.5q316 216 617 346q44 18 126.5 57t92.5 44q3 1 12 5.5t13.5 5.5t12.5 -0.5t15 -8.5q1 -1 5.5 0t11 3t10.5 3q36 14 65 22q14 4 79.5 19.5t100.5 27.5q124 48 226 101 q-42 -4 -123 -28t-123 -28q182 78 446 148q6 -2 14.5 -7t14.5 -7.5t10 -1.5q16 4 50 11t54 12t47.5 13.5t49.5 18.5q31 13 66 22.5t60.5 15t68 10t61.5 6t69 4t64 3.5q24 1 47 1q160 0 283 -60q24 -12 73 -28t58 -19l4 16q6 0 10 -2q93 -63 160 -162q64 -97 64 -202 q0 -82 -39 -170q-41 -94 -45 -111q-47 -155 -187 -315q-200 -232 -510 -447q-456 -314 -1040 -532q-58 -21 -167.5 -57t-137.5 -46q-13 -3 -36.5 -8.5t-33.5 -7.5l-37 31q-75 -64 -192 -74q-47 -3 -76 -53v34q-26 16 -39 -14q-27 -60 -45 -104q-3 -9 -10.5 -28t-10.5 -28 q-25 -74 -60.5 -144.5t-97 -172.5t-79.5 -135q-31 -55 -91.5 -155t-82.5 -138q-26 -45 -78 -137.5t-78 -137.5q-16 -32 -37 -59q-26 -30 -52 -27t-46 39q-32 -16 -47 13q2 7 8 30t12 33q10 20 33 54t29 44q290 502 426 732q26 46 82 125.5t67 95.5l78 129q-78 6 -174 80 q-49 35 -63 79q-7 20 -7 43q0 27 9 58q20 75 84 156q321 409 749 657q47 25 76 76l287 454q19 29 56.5 83.5t49.5 72.5q8 -7 31 -24.5t31.5 -26t17.5 -28t8 -42.5l-244 -389q287 85 492 102q12 -19 9.5 -26.5t-13.5 -20t-12 -22.5h80q6 -18 6 -34q0 -38 -33 -67 q-199 -39 -248 -47q-114 -19 -209 -63q-81 -37 -190 -84q-67 -29 -109 -98q-189 -316 -358 -594q-9 -15 -30 -51t-34 -58q50 1 135.5 25.5t114.5 29.5q-9 4 -19.5 9t-13.5 6q320 116 398 147q52 21 179.5 77.5t197.5 82.5q75 27 182 102q39 26 113.5 68.5t103.5 60.5 q366 223 600 486q105 118 168 252q44 99 44 189q0 29 -5 58q-22 134 -137 177q-130 48 -236 51h-35q-48 0 -120 -2q-101 -2 -140 -2q-17 0 -77 -7q-33 -4 -58 -4q-21 0 -37 3q-11 2 -24 -0.5t-33 -9.5t-25 -9q-425 -121 -577 -166q-29 -9 -60.5 -21.5t-71.5 -30t-61 -26.5 q-25 -8 -47 -8q-10 0 -20 2l23 11.5l28 14t26 11.5q-6 2 -30 14q-334 -186 -383 -213q-41 -23 -122 -62.5t-118 -59.5q-133 -68 -203 -127q-24 -20 -73.5 -51t-55.5 -35q-35 -24 -99.5 -64.5t-116 -75t-95.5 -69.5q-145 -116 -268 -269q-30 -39 -72 -110q-25 -40 -18 -58 q5 -14 -6 -26t-9 -21q8 -63 29 -92q3 -4 11.5 -11.5t11 -11t6.5 -13t-2 -17.5q-2 -2 4 -8q3 -4 10.5 -13t11.5 -15.5t4 -12.5q1 -4 0 -8.5t-3.5 -10t-4.5 -9t-6 -11t-6 -10.5l-62 55q-35 -15 -47 -21q-18 12 -22 15q-84 67 -84 163q0 30 8 62zM379 231q55 -37 134 -37 q40 0 85 9q14 42 14 47q0 15 2.5 28.5t9 29t10.5 23.5t14.5 27.5t13.5 24.5l192 332l29 49l-4 3q-4 3 -5 5q-53 -41 -163 -119q-2 1 -4.5 3t-7 5.5t-9.5 6.5q-176 -153 -289 -320q-26 -43 -26 -85q0 -16 4 -32zM438 1499h7q52 0 82 15q32 16 83 71q-48 -25 -172 -86z M453 -121q17 44 20 51q10 6 18 13.5t15 19t11 18.5t11 22t9 20q-50 -37 -64 -93q-26 -15 -20 -51zM582 688h45q-2 -5 -6 -12t-5 -10q157 96 353 266q13 12 25 27.5t26 36.5t22 32q-213 -123 -460 -340zM678 100q49 9 126.5 52t98.5 51q-21 4 -26 2q-106 -27 -162 -49 q-15 -6 -26.5 -20.5t-10.5 -35.5zM1292 1315q12 6 17.5 11t10 16.5t1.5 27.5q-9 -19 -29 -55zM1350 1415.5q0 -3.5 1 -8.5t1 -8q7 11 29.5 42t32.5 46t24.5 41t23.5 49q-33 -40 -110 -156q-2 -2 -2 -5.5z" />
<glyph unicode="Q" horiz-adv-x="2717" d="M-35 -334q11 256 137 545q16 37 37 77.5t50 91t44 77.5q-2 1 -5.5 2.5t-6 2.5t-6 3t-6.5 4q7 13 52.5 98.5t70.5 130.5q213 371 450 656q1 2 8.5 11.5t13 14.5t11.5 9q15 9 27.5 19.5t25 25.5t19.5 25t20.5 30t18.5 27q31 48 92 112q98 105 332 320q245 223 518 393 q235 146 424 207q120 39 207 39h8q92 0 178 -58q120 -82 154 -174q3 -8 6 -25t4 -22q16 -55 18 -78q-23 37 -41 70h-57l63 -111q-16 -4 -27.5 1t-21.5 15.5t-16 12.5q-20 -4 -27 -4q-13 13 -14 16q-9 17 -26.5 53.5t-26.5 53.5q-37 65 -114 65h-7q-102 -3 -209 -39 q-4 -1 -17.5 -6.5t-21.5 -7.5q-19 -6 -55.5 -22t-67.5 -26t-61 -13q-11 -1 -22 -4t-23 -8.5t-19 -9t-20.5 -13t-18 -12.5t-19.5 -15t-18 -14q-145 -114 -213 -164q-562 -408 -1017 -1024q-208 -285 -377 -606q-183 -348 -232 -656q-21 -125 -21 -221q0 -19 1 -37 q3 -107 80 -215q13 -19 57 -37q70 -26 147 -26q68 0 142 20q57 15 280 90q30 6 37 5l-92 -56q136 31 293 146v32l235 160q-58 27 -199 27q-39 0 -85 -2q-210 -10 -330 -51q-37 11 -42.5 18.5t-4.5 44.5l-41 29q53 75 164 104q86 25 192 35q84 8 174 8q157 0 332 -24 q18 -2 34 -2q21 0 37 4q28 5 50 30q12 9 35 21q1 -3 4.5 -10.5t5.5 -10.5q14 9 38 29t28 23q2 -3 5.5 -10.5t6.5 -12.5q6 4 20.5 14.5t22 16t18 15t17.5 18.5q12 16 57.5 72t72 94t46.5 79q25 47 86.5 113.5t77.5 89.5q31 16 70.5 65t48.5 58q13 -13 16 -14l88 104 q26 83 84 158q20 26 39 58.5t40.5 72.5t33.5 61q0 1 4 9t4 12q-2 18 2 37t9 31.5t15.5 33t14.5 29.5q99 202 112 379q2 24 2 47q0 96 -34 168q-30 65 -66.5 95.5t-79.5 32.5h-8q-40 0 -90 -14q-73 -21 -162 -71q-185 -98 -326 -260q-80 -93 -120 -226q-8 -26 -8 -51 q0 -50 32 -98l27 -43q-2 -2 -5 -8.5t-5 -8.5q-6 -4 -21.5 -12.5t-23.5 -13.5q0 -1 15 -28t9 -50q-9 14 -24 36t-21 32q-7 -5 -37 -27q-88 79 -88 209q0 153 96 315q139 237 424 391q105 61 208 61q12 0 24 -1q28 0 78 12q17 4 35 4q59 0 126 -45q33 -23 84 -70 q86 -74 101 -188q2 -10 18 -149q2 -25 2 -49q0 -72 -17 -142q-23 -95 -71 -211q-10 -24 -38.5 -85.5t-41.5 -96.5q-6 -16 -13.5 -33t-13.5 -30t-17 -32.5t-16.5 -28.5t-18.5 -31t-17 -29q-298 -500 -743 -922q-20 -18 -66 -64q268 -58 459.5 -119.5t361.5 -166.5 q-31 -18 -39 -23l-55 19l-3 -6q-4 -5 -5 -9l29 -16l143 -80q26 -16 55 -41q20 -16 55 -50t54 -50q8 -6 13 -17.5t9 -30t6 -24.5q-4 -25 2 -48.5t20 -54t19 -44.5q2 8 2 19q0 21 -8 50q-13 44 -14 56q13 -6 14 -9q29 -96 29 -149v-12q-1 -33 -1 -45t2 -44.5t3 -44.5v-20 q0 -97 -43 -211q-12 -31 -26 -42t-64 -28q31 91 49 134q29 63 29 126q0 15 -2 31q0 44 -4 64q-40 -146 -103 -267q-9 6 -12 15t-3 14t3.5 18t3.5 15q7 51 25 123q8 34 9 68v10q0 30 -5 61q-7 36 -14.5 64t-20.5 67q-5 16 -29 49q-73 95 -203 189q-25 18 -51 33.5t-58.5 30.5 l-52 24t-60.5 24t-54 19.5t-62.5 20.5t-56.5 18q-226 72 -510 120q-4 0 -13 1.5t-13 1.5q-28 -21 -84 -62.5t-99.5 -73.5t-83.5 -59q-99 -66 -291 -178q-5 -3 -16.5 -10t-18.5 -10.5t-17 -7.5t-20.5 -6t-21.5 -1q-8 1 -17 -3t-21 -12.5t-17 -11.5q-174 -91 -309 -110 q-52 -9 -112 -9q-17 0 -36 1q-80 3 -147 30q-16 7 -52 19t-62 24t-48 29q-153 122 -156 307q0 15 -5 93q-4 56 -4 93q0 15 1 27zM4 -606q4 -10 15.5 -36.5t17.5 -41.5q3 9 3 17q0 33 -36 61zM158 133l18 47q18 4 26.5 15.5t13 29t9.5 25.5q0 1 -1 4.5t-1 5.5q-3 0 -8 1t-8 1 q1 7 12 53q-62 -103 -62 -165q0 -9 1 -17zM238 358q14 39 38 113q-25 -31 -35.5 -56t-2.5 -57zM2406 -475v-4q4 -2 13 -9t14 -10t16.5 -5.5t20.5 3.5q-23 12 -57 29q-7 -3 -7 -4zM2478 2445l72 -16v6q-2 1 -4 2.5t-5.5 4t-5.5 3.5q5 5 5 9l96 -37q-47 58 -111 58 q-9 0 -18 -1q-29 -4 -29 -29zM2540 1884l165 -76q-7 13 -16 23.5t-17 18t-20.5 13t-20 8.5t-23 5.5t-22 3t-24 2.5t-22.5 2z" />
<glyph unicode="R" horiz-adv-x="2195" d="M-4 1061q3 30 3 50q0 10 -1 17q-1 10 -1 20q0 43 21 81q103 166 248 276q14 12 37 27q217 181 453 223q4 15 6 31q49 20 69 26q269 76 322 91q8 2 17.5 2t23 -1t23.5 -1l-31 -52q-50 0 -140 -24.5t-110 -28.5q-20 -36 -80 -53q-17 -6 -176 -64q20 -5 41.5 -6.5t37 -1 t37 4.5t31.5 6.5t32 8.5t28 7l20 24q107 44 187 74q27 10 133 43v31q79 22 172 45q1 0 13.5 4t17.5 8q47 29 114 30q20 0 41 -3q63 -7 172 -14l-28 18q5 1 12 4.5t10 3.5l166 -6q12 0 16 -2q25 -18 53 -23.5t69.5 -6t55.5 -1.5q175 -17 330 -112q137 -81 207 -244 q33 -75 33 -146q0 -90 -53 -174q-33 -51 -74 -95t-103 -101q-18 -15 -34 -32.5t-38.5 -45.5t-29.5 -37q-4 -5 -15 -18t-16.5 -19t-15.5 -15.5t-19 -16.5t-20 -13q-39 -22 -130.5 -78t-141.5 -84q-18 -11 -39.5 -20t-50.5 -19.5t-43 -15.5q-12 -5 -47.5 -23t-55.5 -26 q-68 -33 -110 -49q-452 -157 -476 -166q-101 -38 -196 -80q-63 -30 -62 -75q0 -33 33 -74q53 -71 115 -130q11 -10 66.5 -61t77.5 -71t63.5 -56.5t76.5 -64.5q77 -61 223.5 -172t184.5 -140q14 -10 27.5 -22.5t29 -28t23.5 -22.5q119 -73 133 -84q406 -288 647 -463 q392 -281 496 -359q84 -62 118.5 -88t97.5 -77.5t109 -96.5q40 -38 89 -75.5t109 -80t93 -67.5q26 -20 138.5 -104.5t171.5 -131.5q56 -43 106 -77q128 -89 229 -193q62 -62 70 -135q2 -22 14.5 -65.5t14.5 -67.5q1 -9 1 -17q0 -49 -36 -71q-31 -5 -45 9t-21 42h-22 q-2 4 -6 8q-1 6 -5 26.5t-4 30.5v8q0 75 -57 126q-194 170 -248 213q-306 243 -452 348q-208 152 -1137 813q-26 19 -135 98t-168 121q-23 16 -68.5 46.5t-68.5 47.5q-41 31 -115 91t-106 85q-49 37 -143 104t-113 81q-250 178 -500 419q-2 2 -22 20.5t-24 22.5t-21.5 20.5 t-24 23l-21 21t-22.5 24t-19.5 23t-20.5 25.5t-18 25q-44 73 -57 101q-22 46 -22 87q0 14 2 27q10 52 65 111q94 109 205 135q15 3 44 8t44 8q105 24 160 41q139 51 186 78q74 42 221.5 97t206.5 83q292 143 453 275q99 82 153 172q47 79 47 159q0 28 -6 56 q-18 103 -106 158q-136 82 -336 116q-165 29 -324 29q-92 0 -182 -10q-33 -3 -399 -53q-90 -10 -109 -13q-175 -34 -444 -168q-200 -99 -348 -233q-115 -106 -168 -240q-12 -31 -12 -61q0 -20 5 -39q13 -49 56 -86q36 -31 76 -55q25 -16 92 -48l18 -59l33 -20q3 -12 3 -22 q0 -40 -44 -67q-46 10 -68 19q-93 39 -194 133q-7 7 -14 15t-12 15t-9.5 17.5t-7.5 17t-6.5 19t-5 18t-4 19.5t-3.5 18.5t-3.5 20t-2.5 18.5q-8 51 -10 74q-2 12 -2 39zM68 -414q3 6 12.5 24.5t15.5 27.5l-20 47q110 184 186 307q44 73 115 180q11 17 33.5 56t35.5 59 q4 6 16.5 17.5t16.5 17.5q11 20 31.5 60.5t32.5 59.5q37 63 96 158l512 795q51 78 82 107q14 13 29 24q5 -6 17 -21t19 -24q-85 -40 -118 -117q-24 -14 -17 -47q-10 -31 -14 -37q-22 -40 -66 -113t-61 -104q-1 -1 -4 -6.5t-4 -7t-4 -7t-3.5 -8t-2 -7.5t-1.5 -8.5v-9 t1.5 -10.5t3.5 -10q5 5 17 18t22 23q-4 -15 -10.5 -35t-8.5 -28q10 8 23 25t18 22q13 13 16 40.5t9 37.5l67 145l4 8q4 8 5 9.5t3.5 8.5t3 10l1.5 9t0.5 11t-2.5 10q30 16 30 59l86 86l39 -90q-8 -10 -31.5 -36.5t-33.5 -41.5q-235 -358 -236 -360q-86 -128 -252 -388.5 t-252 -388.5q-39 -58 -118.5 -170t-118.5 -170q-32 -48 -113 -192l-31 -45q-18 18 -45 39q-6 -12 -12 -21q20 1 23.5 -11t-2.5 -26q-18 3 -21.5 15t0.5 24h-20zM121 1296q9 8 65.5 61.5t87.5 80.5q28 24 83.5 67t76.5 60q-168 -66 -313 -269zM1370 518q71 3 137.5 23.5 t149.5 58.5q-13 -1 -39.5 -1t-43 -1t-30.5 -6q-42 -13 -174 -74z" />
<glyph unicode="S" horiz-adv-x="2351" d="M-1245 -813q51 104 145 205q210 227 400 354q253 166 428 234q114 45 206 53q12 1 17 -1.5t20 -17.5q3 0 77.5 8.5t113.5 10.5q6 0 21 2.5t23.5 3t21 -3t22.5 -12.5q2 -4 20 0q15 5 22.5 -1.5t15.5 -22.5q0 -2 1 -3q-7 0 -23 1t-26 1q31 -76 35 -84q-7 -35 -43 -35h-6 q-21 1 -41 1q-213 0 -449 -75q-44 -13 -70 -22t-61.5 -27t-62.5 -41q-1 -1 -41 -18q0 2 2 2q-9 -6 -25.5 -18.5t-19.5 -14.5q-331 -199 -533 -487q-15 -18 -22 -33q-19 -33 -19 -58q0 -8 2 -14q8 -28 50 -53q104 -59 231 -84q183 -35 389 -35h33q16 0 44.5 2t53 2t47.5 -4 q-7 -2 -28 -7.5t-35 -10.5l26 -6q0 -1 1 -3.5t1 -4.5q-49 -6 -213 -31l62 -10l-186 -29q32 -10 97 -14q19 -1 33 -1q36 0 48 7q26 24 60 31.5t78.5 9t68.5 6.5q2 6 2 24q13 5 79 35q-7 4 -22.5 11t-26.5 12q254 30 283 35q331 60 407 79q569 139 984 385q212 125 335 271 q90 103 109 219q5 27 5 53q0 110 -83 195q-99 103 -295 209q-55 30 -260 125q-44 19 -264 112q2 2 3.5 5t4 7.5t4.5 8.5q-2 1 -24.5 8.5t-34.5 9.5q-25 8 -113.5 31.5t-134.5 40.5q-77 29 -297 125q-106 48 -215 135q-8 7 -24.5 19.5t-24.5 19.5q-1 1 -12 9.5t-13 10.5 t-10.5 9.5t-11.5 12l-8 12t-7.5 14.5t-3.5 16q-6 10 -20 29t-24 35t-17 32q-21 40 -21 81q0 45 25 91q35 72 92 128t137 110q17 10 37 10q13 -2 23.5 2.5t14.5 9t13 14.5q-7 18 -16 31q148 95 180 113q366 207 885 356q2 1 45 6q2 -3 5 -11t5 -11q-34 7 -47 -23q13 0 20 1 t15 6t12 16q29 -16 49 10q25 3 74.5 13.5t73.5 13.5q21 2 52.5 9t52.5 11t53.5 6.5t54.5 -4.5q29 -2 36.5 -2t38.5 6.5t38 7.5q-3 20 -14.5 25.5t-29.5 7t-28 8.5q33 2 105.5 8.5t125 9.5t101.5 3h6q54 0 157 -31q71 -18 74 -84q0 -13 10 -26q23 -33 23 -72q0 -34 -18 -72 q-54 -115 -150 -168q-38 12 -44.5 21t-8.5 51q-2 1 -10 2.5t-15 3.5q5 39 46 93.5t48 68.5q-10 3 -36.5 11t-40.5 11q-81 14 -172 14q-103 0 -220 -18q-134 -23 -440 -84q-4 0 -22 -2t-33 -4l39 33q-11 1 -22 1q-53 0 -79 -38q-1 -2 -4 -9.5t-5.5 -7.5t-12.5 1 q-9 -18 -38 -22.5t-40 -14.5q-8 -7 -20 -13t-20 -9t-25.5 -8.5t-22.5 -6.5q-260 -102 -311 -125q-75 -32 -301 -143l-9 18q-13 -8 -60 -37t-67 -42.5t-55 -39t-60.5 -50.5t-47.5 -54q17 1 39.5 22t41.5 27q-12 -14 -41.5 -47t-43.5 -50.5t-30.5 -46.5t-23.5 -57 q34 -65 196.5 -178t278.5 -151q0 12 2 20q7 -3 27 -7.5t31 -8.5q492 -195 547 -217q28 -10 51 -25q29 -16 137.5 -66.5t161.5 -89.5q26 -5 54 -18t44 -23.5t48 -34t42 -30.5q199 -138 264 -393q9 -38 9 -84q0 -23 -2 -47q-13 -195 -201 -371q-165 -160 -418 -303 q-407 -234 -940 -371q-63 -16 -185 -41t-137 -28q-19 -8 -32 -5q-13 1 -27 1q-20 0 -41 -2q-35 -4 -78 -14t-65 -13q-35 -4 -195 -19q-10 -1 -30.5 -1t-30.5 -1q-87 -9 -175 -9q-226 0 -454 63q-72 18 -117 47q-48 31 -123 102q-12 12 -61 78q17 27 17 54q0 25 -10 63 q-10 40 -13 57zM-1139 -752l60 80q-51 -25 -60 -80zM-715 -377q5 -1 21 4q13 5 51.5 21.5t57 23.5t50 15.5t58.5 11.5q27 31 37 37q112 70 217 131q0 3 12 47q-18 -7 -64 -25t-69 -28q-179 -81 -371 -238zM100 1098l23 -13q-1 4 -1.5 14.5t-2.5 16.5l-19 23v-41zM1348 2054 q0 -1 1 -3.5t1 -4.5h41q-18 18 -21 18q-2 0 -22 -10zM2038 -11.5q0 -9.5 12 -23.5v76q-12 -43 -12 -52.5zM2058 2183q58 -1 275 -10q-20 6 -40 10.5t-43 6t-37 3t-41 0l-36 -2t-40.5 -4t-37.5 -3.5z" />
<glyph unicode="T" horiz-adv-x="2072" d="M-1005 1476q-3 10 -3 22q0 23 11 52q42 102 127 136q78 34 161 61q20 6 41 6q29 0 60 -12q30 -10 59 0q22 7 64.5 14.5t58.5 11.5q10 3 30.5 13t28.5 14q-5 7 -16 29q8 8 14 10q108 28 140 33q247 41 399 41h14q16 0 78 20q9 2 27.5 10t21.5 9q-4 1 -12 4t-12 4v8 q117 8 172 14q9 1 27.5 2t29 2t24.5 5t23 10q34 20 73.5 28t90.5 11.5t76 7.5q5 3 19 1t19 -3t19 -5t19 -5q1 -1 10 -23q19 4 70.5 13.5t87 18t67.5 19.5q71 24 181 24q26 0 53 -1q34 -3 59 4q-6 2 -18.5 7t-18.5 7v10q72 5 371 29q10 -8 43 -35q252 22 268 23q5 1 17.5 5 t18 4t19.5 -7q17 18 56 25t47 10q93 121 98 127q12 19 41 41q24 18 41 18t41 -18q27 -19 45 -35l-16 -17q3 -3 8.5 -14t9.5 -16q8 -10 25 -19q-2 -10 -6 -28t-5 -27q3 -1 9.5 -3.5t9.5 -2.5q21 -1 61 -1t60 -1q188 -3 399 -43q46 -5 55 -4q128 16 239 16q140 0 253 -25 q40 -8 59 -6q6 1 13 1q26 0 72 -8q33 -6 58 -6q19 0 33 3l-20 16h475l-43 23q46 8 49 8q76 -2 238 -10q34 -3 80 -23q35 -18 104 -26q30 -3 57 -3q37 0 70 5q16 2 34 2q67 0 157 -27q11 -4 83 -20q-10 8 -21 18t-15 13l12 4q124 -11 215 -123q15 -20 31 -60q9 -24 9 -45 q0 -42 -36 -75q-34 -5 -42.5 -0.5t-27.5 34.5q-31 1 -38 9t-19 53q-56 25 -178 37q-83 8 -461 37q-158 12 -235 22q-26 4 -75.5 16.5t-58.5 14.5q-71 15 -163 17h-49q-63 0 -115 -3q-140 -3 -277 -12q-17 -1 -49 -8t-45 -9q-27 -2 -78 -2l-968 -6h-134l-38 -61 q-256 -454 -459 -875q-12 -24 -41.5 -80.5t-44.5 -87.5q-9 -21 -52 -116t-65 -146q-92 -211 -233 -553q-43 -103 -119 -294t-94 -236q-74 -176 -113 -264q-5 -16 -31 -58q-32 59 -35 84q-3 21 2 41q-9 -10 -27.5 -49t-43.5 -49q-34 13 -31 47l25 229q14 10 19 24t5 34t2 28 q2 12 2 23q0 24 -10 43q-4 6 -5.5 17t-0.5 20.5t0 19.5q-14 307 -111 557.5t-303 444.5q-254 236 -561 368q-54 24 -113.5 47t-142 53.5t-115.5 43.5q-117 47 -237 90q-23 9 -73 24.5t-73 24.5q-91 36 -120 55q-39 25 -47 55zM-842 1528l62 -23q28 -10 87 -29.5t87 -29.5 q44 -17 140 -48.5t168.5 -61.5t133.5 -68q22 -14 49 -25.5t62.5 -24.5t52.5 -20q255 -106 508 -321q3 -3 9 -9.5t11 -11t9 -8.5q1 -1 55 -49q10 -10 31.5 -28t36.5 -33.5t24 -32.5q13 -22 30 -43.5t40 -47.5t34 -39q69 -80 72 -153q5 -7 14 -18t13 -17q106 -171 135 -403 q16 -122 27 -226q28 45 69 146q21 56 76 171t78 179q19 52 137 336q283 638 645 1294q27 51 37 74q-18 2 -39 2q-540 -34 -575 -37q-112 -10 -316.5 -32.5t-279.5 -30.5q-275 -30 -332 -39q-293 -49 -582 -111q-56 -12 -606 -135q-6 -2 -13.5 -2.5t-18 -0.5t-19.5 -1l59 39 q-111 -28 -211 -82zM-31 1786q1 -2 2 -6t2 -6q2 0 20.5 2t26.5 4q3 1 15.5 4t16 4t14.5 3.5t16.5 3.5t15 2.5t16 1.5h15t16 -0.5t15.5 -2.5q19 -4 45 -4q31 0 72 6q68 9 96 8h6q16 -1 46 5.5t34 7.5v6q-31 10 -68 18q118 37 119 37q23 9 86.5 22t97.5 31l-51 19 q-137 -33 -190 -45q1 -3 2 -9t2 -8q-12 -9 -26 -12.5t-37.5 -5t-28.5 -2.5q-130 -22 -244 -45q-35 -7 -152 -39zM360 922q27 -32 49.5 -44t53.5 -14q-43 39 -56 46.5t-47 11.5zM4135 2034h96q-23 10 -36.5 10t-59.5 -10zM4237 2034q18 -16 43 -16q22 0 49 12q-2 1 -10 3.5 t-10.5 3t-9.5 2.5t-10.5 2.5t-9.5 1.5t-10.5 0.5t-10 -1.5t-11 -3t-10.5 -5zM4346 2036q19 -10 37 -10t35 10h-72z" />
<glyph unicode="U" horiz-adv-x="2656" d="M215 -123q-4 47 -4 96q0 104 16 220q62 410 215 829q18 46 53 127t46 108q7 17 46.5 120.5t63.5 156.5q262 568 533 979q61 91 164 221q25 32 100 94q7 6 57 31q32 -15 68 -31q-8 -24 -26.5 -38t-47.5 -27q-57 -22 -74 -62q25 -14 48 6q61 55 161 68q-1 -8 -4 -27t-4 -30 q-113 -44 -170 -131q-7 -12 -17 -24t-24.5 -28t-21.5 -24q-13 16 -8.5 30.5t2 32t-22.5 27.5l-57 -86q9 -26 5.5 -37.5t-15 -34.5t-13.5 -39l53 45q5 0 9 -4q-42 -61 -91 -137q-43 -64 -81 -129q-34 -62 -93.5 -171.5t-110 -200.5t-96.5 -169q-29 -50 -68 -149.5t-46 -114.5 q-224 -491 -334 -962q-56 -240 -56 -428q0 -41 3 -80q2 -30 7 -60t14 -75t12 -58q2 -13 12 -36.5t12 -28.5q39 -79 117 -79q8 0 16 1q136 8 295 96q209 114 451 346q360 347 719 856q37 52 75.5 110.5t87 134.5t72.5 112q24 37 41 88q128 409 244 635q26 52 71 118 q4 6 11 13t14.5 13.5t9.5 8.5q45 -3 78 -8q6 -5 21 -19t22 -20q23 -33 23 -81q0 -36 -13 -81q-57 -188 -159 -364q-9 -16 -23 -48t-23 -48q-12 -24 -141 -259q-31 -59 -37 -84q-32 -104 -114 -403q-4 -14 -10.5 -44.5t-10.5 -45.5q-1 -6 -12 -27v33q-15 -36 -21.5 -53.5 t-15 -49t-6.5 -60t12 -58.5q-33 -138 -33 -280q0 -32 2 -64q3 -123 66 -191q2 -2 5.5 -8t4.5 -8l4 -14q-7 2 -45 10q34 -43 53 -70q-24 -26 -46 -26t-42 26q-28 35 -84 53q-55 78 -59 216q-1 20 -1 38q0 92 17 150q8 27 13 125q0 24 2 48t6 52.5t6.5 46.5t9.5 51.5t9.5 45.5 t11 51t10.5 47q4 35 8 53q-25 -16 -57 -55.5t-47 -67.5q-70 -128 -99 -168q-7 -10 -25.5 -34.5t-27.5 -36.5t-26 -33t-30 -34.5t-30.5 -30t-34.5 -29.5q-6 -4 -11 -9.5t-8 -10t-8 -13.5t-7 -12q-37 -55 -89.5 -115t-88.5 -97t-103 -102q-214 -210 -410 -336 q-149 -93 -282 -131q-59 -18 -123 -18q-79 0 -166 27q-151 48 -209 208q-34 91 -45 244zM272 -213q4 62 14.5 216t14.5 235q-36 -142 -37 -302q1 -73 8 -149zM881 1819q2 -2 6 -2l41 67q3 -7 18 -37q4 11 20 42t19 48q7 29 19 62.5t21.5 56.5t26.5 60.5t25 56.5q9 18 27 80 q2 3 14.5 14.5t14.5 18.5q6 19 15.5 36t28 43t21.5 31q3 4 4 9t1 13t1 13q-61 -50 -112 -120t-56 -107q22 13 29 16q-5 -10 -14.5 -30.5t-14.5 -30.5q-4 -8 -27 -53t-34 -70q-15 -30 -40 -90t-28 -68q-4 -10 -13 -29.5t-13 -29.5z" />
<glyph unicode="V" horiz-adv-x="1927" d="M-59 1599q-11 29 -11 61q0 56 33 120q53 -27 57 -29q51 -35 66 -82q16 -50 48 -150.5t48 -150.5q33 -103 64 -215q0 -2 1 -6t1 -6q-3 -15 -3 -30q0 -21 6 -41q10 -34 34 -75.5t32 -60.5q18 -45 37 -121q44 -163 84 -330q6 -26 31 -164q1 -5 5.5 -15t6.5 -15l29 22 q64 -235 209 -749q122 283 164 377q5 13 22.5 40t22.5 44q13 34 30 69.5t40 79t34 66.5q3 6 17 35t19 40.5t11 34.5t6 43q15 8 17 32t6 30q13 26 37 65q168 304 416 639q14 20 43.5 56t37.5 47q5 7 43 62t60 83q90 126 147 192q189 224 330 385q15 18 46.5 46t41.5 38 q22 23 66 69.5t67 68.5q2 0 6 -4q-21 -27 -45 -54l21 -41q95 132 117 168q91 141 227 262q19 17 51 51.5t41 43.5q9 8 14 8t27 -8q65 72 123 127l326 301q5 5 29 28t31.5 29.5t28.5 26.5t31.5 29t29.5 25.5t32.5 27t31 23.5t33.5 24q49 34 136 86q50 33 108 33q42 0 88 -17 l29 -6q3 39 -25 51q-26 11 -49 8q-14 -3 -59 -8t-74.5 -14t-56.5 -27q1 2 4.5 10t5.5 9q92 49 131 63q36 12 61 12q16 0 28 -5q30 -13 58 -68q7 -14 9 -17q37 -18 49 -26q3 -2 5.5 -4.5t4 -5t2.5 -3.5q4 -20 4 -38q0 -79 -78 -126q-19 -12 -55 -39t-43 -32q-9 6 -33 26 q15 15 21 23q-11 22 -17 37l66 59q0 10 -6 47q-9 -2 -31.5 -6.5t-32.5 -7.5q-69 -24 -176 -104q-37 -26 -76 -57t-87.5 -70.5t-74.5 -59.5q-19 -16 -28 -43q25 11 43 21l4 -6l-19 -25q-435 -383 -1003 -1002q-28 -30 -82.5 -83.5t-75.5 -75.5q-19 -20 -24 -27 q-28 -53 -101 -139t-86 -103q-69 -93 -198.5 -262.5t-163.5 -214.5q-86 -115 -129 -162l6 31l-8 4l-96 -127q-17 -21 -19 -43l76 64q1 0 3 -1t3 -1l-25 -41q-200 -303 -393 -672q-2 -4 -20.5 -18.5t-14.5 -30.5q-63 -130 -144.5 -349t-113.5 -345q-19 -79 -19 -134 q0 -27 5 -49q5 -24 5 -47q0 -42 -17 -82q-2 -5 -23 -30l-26 32l-21 -28q-12 8 -14 10q-1 2 -3.5 8.5t-4.5 10.5t-5 5q-6 1 -10 4t-6 6t-4 8t-2 7.5t-1 8.5t-1 7q-1 10 0.5 30t0.5 34.5t-7 24.5q-7 12 -9 36.5t-10 36.5q-2 3 4 33q0 4 3.5 24t3.5 31q-17 -29 -20 -39t-3 -39 q0 -57 -4 -86q-2 16 -20 106q-14 71 -14 120q0 14 1 26q4 -13 9 -25.5t11.5 -28t10.5 -26.5q7 27 7 53q0 21 -5 42q-31 126 -72 237q-20 51 -45 151t-28 111l-41 154q-4 -13 -4 -29q0 -25 9 -57q10 -38 10 -60q0 -8 -1 -14q-77 252 -150 498q-6 20 -18 74.5t-23 81.5 q-27 63 -49 129.5t-52 168.5t-40 134q-10 30 -22 94q0 2 -1.5 10.5t-2 10.5t-2 9.5t-2.5 10.5t-2.5 9.5t-3 10t-4 9t-5 9.5t-5.5 8.5t-7 8.5t-13 27zM385 276q18 -62 39 -149q2 13 2 26q0 56 -41 123zM1145 215l14 -6q41 101 143.5 277.5t120.5 211.5q-18 -12 -30 -30 q-13 -22 -37.5 -65t-45 -76.5t-40.5 -61.5q-53 -80 -105 -186q-2 -4 -20 -64zM2365 2007l7 -6l16 29l-6 6z" />
<glyph unicode="W" horiz-adv-x="2418" d="M324 918v86q0 98 1 246.5t1 247.5v87q-1 22 0.5 43.5t6 45.5t8 39.5t10 45t9.5 41.5q4 12 19 32.5t18 25.5q26 -7 53 -22.5t38.5 -24.5t43.5 -38t35 -32q-2 -2 -6.5 -10t-9.5 -13q6 -15 18 -39q2 -29 -23 -38q-9 -3 -21 -3q-20 0 -48 9v-68q0 -166 1 -496.5t1 -496.5 q0 -66 -6 -198t-6 -198q1 -91 20 -391q1 -3 15 -47q89 202 160 359q301 657 563 1085q37 60 80 86q15 7 26.5 21t26.5 38.5t20 32.5q45 73 54 88q-2 0 -2 2q-1 0 -3.5 -1t-3.5 -1h-10q0 9 2 11q6 6 21.5 25t24.5 27.5t26.5 17t38.5 9.5q3 -5 11 -15t12.5 -18t4.5 -17 q0 -35 41 -68q42 -29 45 -88q11 -101 11 -166q0 -16 -6 -44t-7 -34q-1 -14 -5 -39t-6 -45t-1 -37q6 -61 6 -133v-29q0 -55 -2 -97q-2 -52 -6 -136.5t-6 -128.5q-1 -26 -10.5 -77.5t-10.5 -76.5v-31q0 -50 2 -127q3 -103 3 -145q0 -45 -2.5 -133.5t-2.5 -132.5q-4 -33 9 -58 q3 8 88 224q26 67 72.5 186.5t85.5 217.5t75 185q34 79 76.5 172t74 160t82 174.5t76.5 163.5q50 107 74 144q33 52 85 158.5t81 154.5q33 58 91 165t79 144q8 14 129 217q16 27 18 29q19 18 32.5 37.5t33 54.5t23.5 41q166 288 477 729q40 58 126 182t152.5 218.5 t128.5 179.5q270 374 504 630q54 61 209 207q26 24 88 56q22 11 43 11q29 0 55 -20q4 -3 90 -84l-26 -47q5 -5 20 -18t25 -23l-21 -20q-36 32 -49 45q-10 -5 -31.5 -13t-27.5 -10l-57 39q-21 -7 -39.5 -17t-37 -27t-28.5 -27.5t-30 -34t-27 -31.5l-92 -92q-4 -3 -15 -11 t-16 -12.5t-12.5 -12.5t-10.5 -16.5t-4 -19.5l-20 -20q-7 -7 -52 -44.5t-67 -60.5q-26 -27 -117 -137q-52 -47 -90 -121q11 10 22.5 22.5t24.5 28t21 23.5q6 8 37 23q-25 -55 -25 -56q-83 -140 -175 -280t-239 -352.5t-188 -272.5q-421 -627 -629 -993q-94 -165 -346 -645 q-30 -57 -84.5 -167.5t-60.5 -123.5l-17 29l-96 -185l-172 -338q-1 -1 -5.5 -9t-5.5 -10l-4.5 -9t-4.5 -10t-3 -9.5t-2.5 -10.5t-1 -9.5t0 -11t1.5 -11.5q1 -8 -1 -17t-6 -20.5t-5 -17.5q-20 -63 -24 -96q25 53 75 155l8 -4q-7 -19 -22.5 -57t-22.5 -58q-113 -311 -315 -849 q-21 -58 -55 -132q-26 -49 -54 -51q-2 0 -3 -1q-27 0 -62 40q-2 -1 -23 -8q-43 26 -43 80q1 88 2.5 264.5t2.5 265.5q0 24 2 52t5.5 62.5t4.5 53.5l12 -12v231q-1 29 -1 53q0 60 7 89q6 21 2 63q0 8 -1 47t0 55.5t6.5 46t17.5 54.5q-8 2 -21 2q11 326 27 692 q-14 -6 -25 -16.5t-16.5 -17.5t-14.5 -22l-12 -20l-24 -43v39q-8 -16 -23.5 -43.5t-21.5 -40.5q-30 -23 -30 -48q0 -5 1 -9l-16 -35h-17q-8 -13 -57 -88q11 4 21 6t12 2l-105 -190l-233 -455l-27 -51q-6 2 -18 10q-8 -13 -31 -39v17q25 50 75.5 151.5t76.5 151.5q11 25 6 45 q-67 -102 -80 -123l-18 -33t-22 -39t-20 -32q-16 -23 -25 -50t-17.5 -65t-12.5 -53q-34 -123 -51 -195q2 -12 2 -35q-53 -127 -55 -131q-60 -133 -156 -334q-23 -52 -59 -67q-5 6 -16 16t-15 14q-25 -20 -27 -22q-1 1 -6 4t-8 4q-45 6 -62.5 34.5t-19.5 76.5q-9 108 -12 219 q-8 758 -8 1137zM410 -385q0 -4 1.5 -9.5t5 -15.5t5.5 -20q6 12 14.5 25.5t13 22t5.5 15.5q12 160 12 242q0 33 -4.5 95t-5.5 87q-2 33 -2 99q-14 -62 -31 -205q-6 -50 -8.5 -104.5t-3.5 -126t-2 -105.5zM434 -522q24 8 29 24t-2 35q-10 -21 -27 -59zM518 -438 q6 13 17.5 36.5t15.5 34.5q2 8 12 47t17 58q58 154 108 280q4 11 8 29q-31 -25 -45 -53l-129 -285q-17 -37 -17 -76q0 -35 13 -71zM1122 766l11 -4q25 21 20 49q-23 -32 -31 -45zM1470 1505q8 -2 28.5 -7.5t35.5 -8.5l-31 37q-21 -12 -33 -21zM2200 926q7 7 13 12t7 6 q73 108 88 129q5 7 34 43t40 58q41 74 143 278l21 33q3 6 21 36.5t26 47.5q5 9 13 28.5t13 28.5q8 14 40 68.5t45.5 79.5t34.5 68.5t34 80.5q29 77 31 131q-290 -499 -500 -909q2 9 23 74q-94 -133 -127 -293zM2822 2091q11 7 16.5 11.5t11 16.5t3.5 27q-2 -5 -31 -55z M2945 2300q1 -1 4.5 -3.5t5.5 -4.5q76 95 76 147z" />
<glyph unicode="X" horiz-adv-x="1177" d="M-43 -449q3 6 14 26t15 29.5t10.5 26t8.5 31.5t1 31q0 9 19 37q96 170 272 401q24 30 24 66q0 15 -4 30q-74 231 -112 529q-17 129 -17 246q0 63 5 122q4 -52 8 -82h4q0 21 1 60t1 70.5t-2 58.5q-4 38 -4 84v19q1 57 16 102q11 32 20.5 96t16.5 90q2 12 7 25.5t9 21.5 t13.5 25t11.5 22q5 9 13.5 18t20 20t17.5 18l21 -21q-30 -42 -52 -76l4 -3q4 -3 5 -5q32 36 51 55l34 -8.5t29 -7.5q4 -8 19 -43q-10 -24 -15 -27q-16 -12 -29.5 -30.5t-18.5 -29t-17 -38.5q-51 -127 -51 -275q0 -43 4 -87q4 -49 8 -142t6 -129q14 -239 80 -510 q4 -13 27 -59q51 54 135 184q40 63 186 248q160 204 227 277q30 31 83 91.5t75 84.5q19 20 60 61t65 66t55 63t52 74q2 4 11.5 10t12.5 10q7 10 -2 31l-141 -152q-2 1 -8 7q101 128 112 141q73 88 234 270q22 26 43 39q23 15 35.5 11.5t35.5 -31.5q0 -1 -8.5 -15.5 t-15.5 -25.5q16 2 38.5 6.5t28.5 5.5q13 -5 19 -15t10 -29t6 -26q-12 -4 -32.5 -8t-22.5 -4q20 -25 24 -29q-5 -8 -12 -10.5t-12 -1.5t-15.5 5t-15.5 5q-13 -15 -75 -83t-93 -107q-67 -83 -200 -250t-201 -250q-23 -30 -74 -88t-74 -88q-12 -15 -32 -47t-33 -47 q-78 -102 -223.5 -285.5t-196.5 -249.5q-2 -2 -12 -22q1 -4 2 -13.5t2 -13.5q8 -21 22 -63.5t26 -74.5t26 -60q26 -64 81 -140q44 -61 72 -99t69.5 -89.5t83.5 -94.5t87 -79q152 -125 391 -311q113 -88 164 -117q145 -87 344 -191q12 -6 38 -11.5t36 -10.5q20 -9 42 -20 t49 -25.5t42 -22.5q30 -11 49 -16q181 -44 284 -64q143 -27 271 -27q137 0 258 31q152 37 295 125q32 21 149 109q18 11 47 33l9 -9l-11 -47q21 11 41.5 42t24.5 36q5 -3 21 -15.5t26 -19.5q3 -16 12 -47q-155 -203 -456 -340q-157 -71 -374 -71q-65 0 -136 6 q-302 32 -615 172q-96 41 -284 135q-50 26 -107.5 61.5t-95.5 61.5t-104 72.5t-95 66.5q-9 6 -73.5 48t-94.5 69q-64 56 -177 164.5t-155 146.5q-26 26 -28 27q-73 40 -148 145q-121 168 -200 354l-25 52q-32 -29 -63 -67t-49.5 -66t-49.5 -76.5t-45 -69.5 q-33 -50 -182 -291q-3 0 -17.5 1t-21.5 1q-10 22 -10 44t10 46zM1042 991q68 46 106 113t66 160q-82 -127 -172 -273zM1454 1587q1 -2 4 -5t4 -5q3 3 51 57l-8 8q-32 -36 -51 -55zM1501 1567q13 -13 19 -17q-6 -12 -9 -24q17 9 26.5 23.5t12.5 26t6 33t5 31.5 q-6 -8 -28 -33.5t-32 -39.5zM1583 1726q67 0 88 43l-41 13q-6 -7 -21 -25.5t-26 -30.5z" />
<glyph unicode="Y" horiz-adv-x="1970" d="M-1827 -3617q-2 36 -2 69q0 105 23 193q5 22 11 72.5t13 75.5q34 116 84 250q5 11 19.5 31t19.5 28q-1 9 -1 19q0 44 28 112q35 76 139 306t162 356q11 24 42.5 74.5t43.5 80.5q69 170 225 441q104 188 203 301q13 16 24 35t23 44.5t20 38.5q3 4 8.5 14.5t8.5 14.5 q162 232 342 350q17 -7 51.5 -23.5t54.5 -25.5q-64 -51 -104 -86q2 -4 8 -10l105 70q6 -6 8 -7l-17 -65q-56 -38 -118.5 -95.5t-93 -90t-101.5 -111.5q-9 -10 -17 -19t-21 -15.5t-28 -4.5q-83 -124 -177 -285.5t-142.5 -250.5t-159.5 -298l-12 29q-45 -84 -62 -121 q-35 -68 -57 -116q2 -1 10.5 -6t14.5 -7q3 -12 3 -25q0 -36 -20 -79q-205 -431 -274 -578q-24 -46 -24 -75q0 -6 1 -11q2 -9 -0.5 -19t-8 -23t-7.5 -19q-89 -244 -96 -420v-16q0 -37 6 -99q0 -5 20 -61q105 10 154 59q21 5 32 9.5t22.5 17t13.5 31.5l92 94q55 51 118.5 119 t99.5 109t109 128q35 43 124.5 147.5t135.5 161.5q91 113 254 332q22 27 72 103q14 25 41 74t41 73q26 41 98 148q151 242 187 296q159 242 462.5 697.5t440.5 662.5q9 14 27.5 38.5t27.5 37.5q2 -14 2 -29q6 0 18 1.5t17 1.5q66 82 123 210q57 120 129 226q6 9 16.5 28.5 t20.5 33t24 22.5q10 10 7 16q-7 9 -4.5 21t5.5 18t10.5 16.5t10.5 16.5q251 385 277 426q40 65 217 372q1 1 30 72q-7 -2 -21 -4t-20 -4l-184 -86q-3 -2 -12 -7t-12.5 -6.5t-14.5 -3.5t-18 3l49 47q0 4 -4 8q-21 -12 -63 -35t-64 -35q-443 -244 -537 -293q-86 -45 -327 -151 q-32 -13 -80 -27q-33 -9 -68 -9q-91 0 -190 65q-77 53 -84 170q-1 24 -1 48q0 147 48 275q112 300 203 463q10 23 38 63q27 38 27 64q0 19 16 39q169 278 400 512q32 32 69 61q42 29 71 29h7q7 -2 16 0.5t21 8t19 7.5q19 -19 40 -37q10 -33 10 -52q0 -9 -2 -15 q-7 -17 -48 -43q-69 -40 -142 -127q-21 -26 -114 -137.5t-140 -173.5q-229 -314 -334 -650q-48 -163 -48 -282q0 -19 1 -37q1 -10 4.5 -29.5t4.5 -29.5q27 -13 67 -13q22 0 49 4q147 22 348 121q93 46 549 281q6 3 66.5 32t93.5 46q1 -9 3.5 -21t2.5 -14q8 3 31 12.5t33 14 t29.5 13.5t30.5 17t25.5 19t25.5 24.5t20 28.5q47 23 89 23q18 0 35 -4q57 -14 105 -66q24 -27 24 -67q0 -8 -1 -17q-6 -60 -30 -126.5t-46 -106.5t-64 -111q-122 -202 -239 -383q-482 -752 -676 -1047q-495 -756 -1030 -1558q-100 -150 -424 -611q-24 -33 -53 -69 t-65.5 -78t-55.5 -66q6 21 12 51q-85 -79 -140 -155.5t-61 -122.5q21 21 29 31l92 106q-39 -65 -41 -67q-204 -268 -391 -439q-131 -124 -264 -184q-44 -20 -94 -20q-62 0 -133 30q-94 40 -101 170zM-1368 -3514l10 -11q28 28 58 52q-12 1 -23.5 -4t-16 -8t-16 -15.5 t-12.5 -13.5zM-1184.5 -1852q0.5 -1 1.5 -3.5t1 -4.5l8 -2l19 45q-18 -10 -29 -32q-1 -2 -0.5 -3zM-1159 -3324q12 3 22.5 8.5t22 14t18.5 14.5t19.5 17t17.5 16q4 4 33 41.5t53 48.5q12 -16 17 -21q8 9 21.5 26.5t25 29t24.5 18.5q38 24 60 66q6 13 23 41t24 45 q13 25 35 77t34 78q-86 -105 -257 -300t-193 -220zM-53 -1960q7 12 17.5 34.5t12.5 27.5q-30 -16 -30 -62zM-16 -1892q41 32 43 65q-13 -6 -21.5 -17t-12.5 -20.5t-9 -27.5zM29 -1823q12 4 16 8q25 37 68.5 105t54.5 86q12 15 22 35q-8 4 -12 8q-5 -7 -42.5 -61.5 t-55.5 -83.5q-16 -25 -51 -97zM1266 72q43 34 67 76q20 34 20 62q0 5 -1 11q-60 -79 -86 -149zM1374 342l6 -55l207 325q-6 3 -12 9q-99 -141 -201 -279z" />
<glyph unicode="Z" horiz-adv-x="3497" d="M-696 -614q5 3 37.5 26.5t52.5 32.5q391 209 717 373q52 26 111.5 53.5t131.5 59.5t113 51q18 8 56 31t59 32q884 410 1179 543q101 47 385 168q41 17 99 35q10 4 42 15t50 19q176 84 528 256q57 29 244 129q4 3 18 13t23 16q-23 10 -27 10q-35 3 -112.5 12.5 t-135.5 14.5t-112 6q-150 0 -269 -33q-28 -8 -64 -14.5t-56 -9.5t-69 -8.5t-60 -6.5q-881 -100 -1033 -118q-38 -4 -78.5 -11.5t-94.5 -18t-81 -15.5l109 -89l-6 -59l-41 -41q-155 44 -240 127q-1 31 -4 75.5t-4 59.5q56 40 79.5 45t59.5 -18q39 9 80 20l19 56 q220 50 450.5 81t542.5 62q2 -4 2 -12l-88 -27q15 -2 41 -10q-34 -4 -99 -23t-100 -20q-17 -15 -57 -16t-57 -13q-51 -6 -150 -14q29 -6 58 -6q48 0 96 16q45 0 93 5t111 15t91 13q39 6 124 14q47 5 109 33q20 9 42 14.5t58.5 12t44.5 8.5q11 3 34 8.5t32 7.5q-7 11 -21 29 q163 17 222 20q380 14 501 15q19 1 40 -1t52 -7.5t40 -6.5q58 -12 77 -61q6 -14 41 -82q-14 -36 -37 -102q-48 -72 -170 -140q-398 -218 -923 -430q-54 -22 -157.5 -66.5t-117.5 -50.5q-15 -6 -33 -12t-39.5 -13t-33.5 -11q-30 -11 -58.5 -22.5t-63 -28t-54.5 -26t-61 -31.5 t-53.5 -28.5t-60.5 -33.5t-55 -31q-46 -25 -135.5 -66t-113.5 -53q-8 -4 -1123 -539q-42 -23 -55 -32q1003 213 1982 270q-24 -5 -60.5 -33.5t-59.5 -34.5q312 41 360 46q70 6 208 13t163 9q-33 -17 -56 -31q17 -1 34 -1q39 0 79 4q60 6 98 14.5t106 25.5t97 23l-57 -6 q-16 -2 -51 -2h-316q-18 0 -31 8q10 1 39 4.5t45 3.5q360 20 428 23q26 4 39 0q14 -6 31.5 -8.5t26 -2t34 3.5t27.5 3q363 37 737 43h25q88 0 262 -11q15 -1 42.5 -5.5t41.5 -4.5t41 4l21 8q-11 3 -29 7t-25 6v6q162 8 248 10q1032 10 1239 10h31q123 -1 255.5 -6t312 -14 t255.5 -13q2 0 22.5 -0.5t25.5 -1t22 -3t25 -5.5t20 -9.5t22 -14.5h20q253 0 445 -144q5 -12 21 -47t24 -55q-2 -16 -10 -47q-10 0 -28 18.5t-37 12.5q8 -7 49 -48q-15 -12 -27 -24q-4 2 -17 6.5t-18 7.5q-137 95 -340 137q-29 5 -215 41q-24 4 -71 13.5t-70 13.5 q-14 2 -45 2q-142 -12 -207 -14q-41 -1 -86 -1q-104 0 -225 5q-29 1 -84 7.5t-76 8.5q-71 6 -143 6h-873q-53 0 -192 -22q-137 -16 -252 -19q-283 -12 -422 -14q-135 0 -201 12q-20 3 -43 3q-40 0 -92 -9q-232 -40 -479 -40q-33 0 -66 1q-84 0 -125 -12q-9 -2 -23 -2 q-26 0 -71 6q12 2 39 2q1 0 13 2t18 4q-26 12 -57 14t-52.5 -1t-56.5 -11q-209 -51 -488 -51q-57 0 -166 9t-124 10q-32 3 -61 3q-49 0 -87 -8q-24 -5 -51 -7.5t-63 -4t-52 -2.5q-49 -5 -192 -22l-137 -13q-19 -1 -52.5 -3t-61.5 -4t-52 -5q-4 0 -146 -21l39 -24l10 -23 q-38 -6 -121.5 -22.5t-127.5 -22.5q-513 -78 -1151 -239q-10 -2 -33.5 -8t-34 -8.5t-34 -5.5t-34.5 1q-9 1 -19 -1.5t-23 -7.5t-19 -7q-3 -1 -14 -4.5t-15 -4.5t-13 -3t-14 -0.5t-12 3.5t-13 7.5t-11 13.5q-16 27 -16 49q0 28 26 47q-5 21 -14 52zM2589 848q24 6 42 11 t32.5 8.5t27.5 9t21 7.5t19.5 9.5t15.5 9t16 12t14.5 13t18 17t20.5 18.5q-46 -9 -126.5 -50.5t-100.5 -64.5zM5593 -113q20 2 61 4.5t62 4.5q7 1 18.5 2.5t21 2.5t17.5 1q65 0 194 -1t193 -1q2 0 16.5 0.5t19.5 0t16 -2.5t18 -7.5t14 -13.5q2 -4 17 -4q58 -3 90 -3 q19 0 29 1q39 4 109 15t77 12q-136 16 -176 16q-30 2 -152 10q-98 7 -160 6h-28q-84 -2 -238 -13.5t-203 -14.5q-1 0 -2 -1.5t-5 -5.5t-9 -8z" />
<glyph unicode="[" d="M-88 -287q5 65 45 140q67 123 227 432q132 254 193 383q29 59 77.5 169.5t67.5 151.5q13 27 37.5 77t44 91t35.5 78q24 54 88 70q13 3 46 8.5t56.5 11t44.5 12.5q35 11 177 66q60 19 108 47q-34 -6 -100.5 -19.5t-100.5 -19.5q65 33 137 51t177 35q-8 -13 -15 -20 q-11 -3 -20 -13q102 26 139 -73q-13 -70 -100 -80q-77 -8 -152 -26t-192 -55t-146 -46l-77 -166q-93 -190 -109 -223q-3 -8 -20 -29q-4 8 -2 10q63 148 88 201q12 25 94 190q-19 0 -22.5 8.5t0 18.5t-4.5 18q-11 -7 -20 -19t-13 -19.5t-12 -26.5t-10 -23q-96 -197 -217 -456 q-15 -30 -47 -101q-26 -58 -37 -78l-39 -71l-8 28q-102 -180 -99 -251q6 9 18 27.5t19 29t18.5 25t22.5 24.5q57 53 113 170q5 9 21 42.5t26 51.5q2 3 59 86q-19 -44 -59.5 -132t-60.5 -132q-48 -107 -127 -223q-4 -6 -37 -60l-156 -260q-16 -25 -31 -57q68 8 78 10 q182 25 397 25q20 0 48 4q74 13 110 -45q46 -73 -31 -129q-18 53 -88 57q-99 4 -139 -8q-13 -3 -74 -8q4 14 15 23t30.5 19t30.5 19q-9 1 -20.5 4t-18.5 4t-12 0q-75 -13 -102 -26q-21 -9 -47 -18t-43.5 -13.5t-50.5 -12.5t-46 -11q-16 -4 -71 -23q-2 0 -19 -18q-26 6 -35 8 q-32 5 -45 19.5t-12 45.5zM534 690.5q0 5.5 1 12t4 10.5q2 4 6.5 19.5t12 23t22.5 8.5l-45 -100q0 4 -0.5 12.5t-0.5 14z" />
<glyph unicode="\" d="M410 1565q-17 99 26 176q81 -35 103 -43q1 -8 -3 -25.5t-1 -28t20 -16.5q4 0 4 -8q4 -31 15 -97t17 -116t7 -96q1 -66 14 -192.5t15 -186.5q1 -74 7 -208t7 -175q2 -50 6 -141.5t7 -166t5 -141.5q1 -13 0 -27t-3 -30.5t-3 -24.5q-39 -20 -49.5 -17t-40.5 40l-12 -29 q-37 0 -37 35q0 45 4 135q0 6 2.5 24t1.5 27q-8 16 -3.5 84.5t3.5 83.5q-1 35 -2.5 113.5t-4 138t-7.5 113.5q-4 34 -4.5 71t1 85.5t1.5 70.5q1 26 -3 55t-12.5 67.5t-11.5 55.5q-2 16 -5 33.5t-7 38.5t-6 33q-5 42 -8 57zM512 1237q4 -29 35 -244q1 13 5 49.5t5 54.5 t-0.5 46t-7.5 51q-11 46 12 72q4 5 6 14.5t2.5 22t1.5 18.5q-4 2 -10 2q-2 -4 -5 -14.5t-5 -14.5q-3 10 -16 45l22 11q6 107 -31 200q0 -12 -1 -27.5t-1 -26.5t2 -21q10 -76 -4 -140q-13 -53 -10 -98z" />
<glyph unicode="]" d="M-113 -311q1 3 6.5 12.5t6.5 15.5q12 42 23.5 51.5t51.5 6.5q1 0 35 -3t51 -3q3 0 24.5 -1t28.5 0.5t21.5 7t24.5 17.5q4 4 11 5.5t18 1.5t16 1q102 9 205 15q14 27 59 100l233 387q17 27 50.5 76t42.5 63q-16 8 -25 11q18 35 102 198.5t116 226t96.5 189.5t114 228 t97.5 202q-19 4 -40.5 4.5t-36 -1.5t-39 -6t-35.5 -5q-81 -9 -168 -31q-18 -5 -36 -5t-31 2t-33.5 9.5t-29.5 11.5t-32 15q5 15 7 45t9.5 50.5t26.5 35.5q40 4 118.5 14.5t127 16t117.5 9.5t129 1l6 -49l84 -37q25 -75 -10 -147q-36 -74 -101.5 -213t-93.5 -197 q-16 -31 -47.5 -91t-46.5 -91q-9 0 -25.5 -1t-25.5 -1q23 47 149 305q-2 2 -10 6q-106 -161 -191 -332q13 -37 7 -58t-18.5 -56.5t-10.5 -61.5l65 119q2 -1 6 -2t5 -2l-13 -39q-232 -439 -307 -576q-28 -50 -83.5 -140t-72.5 -118q-12 -21 -31 -64t-30 -63 q-29 -54 -43.5 -71.5t-39 -26t-83.5 -12.5q-53 -6 -217 -15q-15 -1 -46.5 -2t-47.5 -2q-78 -11 -88 -10q-16 1 -46 11t-40 12l33 45zM676 143q11 -16 24 -32q44 85 117 273.5t125 281.5q0 4 -2 6q0 1 -0.5 1.5t-3.5 4t-6 8.5q-8 -20 -10 -24q-90 -149 -99 -166 q-5 -10 -11 -31t-9 -29q-7 -16 -125 -293z" />
<glyph unicode="^" horiz-adv-x="651" d="M0 1116q41 65 92 74q15 2 41 18.5t31 18.5q16 9 64 39.5t82.5 47.5t72.5 27q17 4 37.5 12t30 12.5t39 19t32.5 16.5q0 8 -4 24q-101 -23 -123 -28q27 62 119 84q7 -7 33 -28t41.5 -36t27.5 -33q35 -49 35 -153q0 -124 -49 -234q-6 -12 -13.5 -23t-18.5 -21t-18 -16 t-22.5 -17.5t-21.5 -16.5q-7 12 -9 22.5t2 21t6.5 16t11 17t11.5 15.5q-1 2 -22 49q88 120 45 252q1 -80 -24 -155t-72 -170q-2 -4 -6 -7t-13.5 -8t-13.5 -8q0 64 29 103q22 31 32.5 68.5t10.5 72.5v76q-18 -1 -32.5 -10t-30 -24t-27.5 -22q-7 2 -11 0q-13 -8 -69 -33.5 t-82 -48.5q-28 -23 -119 -96q-12 -9 -17 -12t-16.5 -3.5t-23.5 7.5q-15 35 -21 47q-15 15 -47 43z" />
<glyph unicode="_" d="M160 -113q4 5 8 11t6 8q68 68 193 71q92 1 264 6.5t211 6.5q2 0 166 12h43v-41q-59 -21 -129 -8q-19 1 -28.5 0.5t-28.5 -3t-29 -3.5q-47 0 -72 -2q-170 -7 -285 -17q27 -6 61.5 -9t53.5 -3t65.5 2t55.5 2q36 0 241 10q-5 -13 -8 -32l125 6q2 -18 -5 -25t-22.5 -9 t-21.5 -5q-11 -17 -25 -41q-3 -1 -6.5 -3.5t-5.5 -2.5q-276 -30 -500 -6q-9 1 -27.5 -0.5t-23.5 -1.5q-108 -6 -221 -9q-19 12 -20.5 29t4.5 27z" />
<glyph unicode="`" d="M281 1907q22 13 23 38.5t-4.5 45.5t13.5 41q57 -16 93 -53.5t67 -98.5q10 -22 34 -61.5t30 -51.5q20 -33 71 -115.5t78 -129.5q4 -7 10.5 -23.5t10.5 -23.5q27 -63 49 -93q45 -57 12 -114q-44 -36 -80 16q-7 -2 -31 -12q-2 3 -14.5 18.5t-17.5 24.5q-43 87 -103 190.5 t-97.5 163.5t-115.5 182z" />
<glyph unicode="a" horiz-adv-x="989" d="M-80 121q3 103 62 194q84 123 141 189q176 201 366 332q68 46 162 69q15 4 40 18.5t30 16.5q62 30 76 33q29 8 51 -5t47 -42q-5 1 -15 5t-14 5q-1 -3 -4 -15t-4 -20q10 -1 28 -4t25 -4q41 -41 41 -88q0 -26 -12 -53q-34 -15 -45 -12t-31 32q-3 -1 -8.5 -3.5t-10.5 -5 t-9 -5.5q-3 3 -10.5 8t-10.5 8q-2 3 -6 11.5t-6 13.5q-69 -30 -76 -35q-102 -64 -233 -152q-25 -16 -70.5 -49.5t-52.5 -38.5q-27 -19 -54.5 -45.5t-43.5 -45t-47 -56.5t-42 -51q-7 -9 -14 -21t-16.5 -30.5t-16.5 -30.5q86 47 125 78q289 218 402 301l100 79q7 4 21 11 l20 10l31 -70q9 2 25 11t24 10.5t28 -6.5q17 -24 19.5 -53t-2.5 -47.5t-17 -53.5q-8 -23 -45 -94l-172 -346q-2 -4 -22 -39q-6 8 -7.5 17.5t-1 14t5.5 16t5 13.5q13 32 33 74q44 60 63 119q-4 -4 -14.5 -17t-15.5 -18.5t-13 -17.5t-11.5 -20.5t-6 -21t-2.5 -24.5 q-8 -3 -14 -8t-11 -13t-7.5 -12.5t-7.5 -16t-7 -14.5q-8 -18 -25.5 -53.5t-22.5 -44.5l-32 37q-3 -2 -27 -14q-12 12 -27 24q3 10 12.5 35.5t11 35.5t-0.5 38q-1 5 14 35l97 188q1 3 4 10.5t6.5 16t7.5 18.5l-176 -125q-13 0 -19 -2q-15 5 -22 1.5t-19 -23.5q16 4 31 4 q21 -8 35 14q26 12 65 25q-101 -90 -274 -197q-20 -13 -151 -82q-40 -21 -86 -21q-48 0 -103 23q-41 16 -41 65v7zM72 133q41 -15 39 2l-2 6q-11 -4 -37 -8zM147 174q4 -1 14 -5t15 -5q7 13 19 33zM422 272q4 -4 4 -8l12 15z" />
<glyph unicode="b" horiz-adv-x="1142" d="M66 194q-1 13 -1 26q0 30 8 58q12 38 33 64q10 11 54 31q12 6 43 10q-11 26 -11 54q0 35 17 73q9 22 51 104q292 566 588 1131q62 119 131 244q33 60 65 79q10 -9 32.5 -17t39 -19t23.5 -33l-56 -12q6 -6 17 -13t19 -11.5t16.5 -13.5t8 -19.5t-6.5 -28.5q-7 2 -20 5 t-19 5l-6 -10q-74 -138 -150 -273q-72 -128 -231 -399q-5 -9 -9 -27v2q-17 -20 -28 -37q-58 -96 -131 -221q-9 -15 -27 -67l-33 -105q12 0 21 3.5t20 11t13 8.5q105 67 196 77q12 1 23 1q62 0 106 -33q30 -18 33 -19q82 -39 98 -145q6 -31 6 -63q0 -101 -55 -220 q-132 -284 -371 -395q-47 -21 -96 -33q-26 -6 -49 -6q-29 0 -51 10q-6 2 -19.5 2.5t-17.5 1.5q-56 8 -76 17q-93 43 -166 125q-27 32 -32 77zM143 238q4 -4 4 -9q14 6 41 15q0 4 -2 6zM152 322h77v-25q13 2 27.5 22t32.5 17q20 -23 20 -47q0 -20 -14 -41q-10 -5 -31.5 -6 t-38 -8t-24.5 -27q39 -82 110 -101q6 -1 16.5 -6t12.5 -6q26 -12 37 -16t32.5 -2t39.5 16q7 5 30 10q60 19 109 72q23 26 69 75.5t68 74.5q6 7 23 26t25.5 29t21 27t20.5 32.5t14 32.5q0 4 7 4l12 -6q-6 8 -3.5 20.5t4.5 17t8.5 15.5t8.5 15l6 -68q2 6 8 21t7 22 q17 88 22 121q6 34 -12.5 61t-52.5 31q-19 2 -37 2q-52 0 -88 -16q-172 -78 -281 -195q-88 -99 -104 -115q-6 -6 -17.5 -14t-13.5 -10q-6 0 -10 4q10 34 10 59q0 16 -4 29q-7 -10 -41 -49.5t-47 -63.5q-12 -20 -29 -20q-4 0 -8.5 -2t-11 -6t-10.5 -6zM165.5 206 q-0.5 -6 16.5 -28l6 51q-22 -17 -22.5 -23zM274 489q18 14 24.5 20t14.5 20t9 30q-35 -21 -48 -70zM379 694l8 -6q2 2 7.5 7t7.5 7.5t5 8t2.5 12t-3.5 14.5zM428 610q4 6 7.5 12t5.5 9.5t5 5.5q5 4 24.5 19.5t26.5 21t24 18.5t27.5 20t26 16.5t30.5 16.5t30 13q23 9 92 49 q-53 -5 -65 -10q-25 -7 -48 -17.5t-48.5 -27t-40 -27t-44.5 -33.5t-39 -30q-20 -17 -14 -56zM600 709q34 -3 42 0.5t20 27.5q-12 -6 -62 -28zM739 813q5 0 17 1t18 1q0 2 -1 4.5t-1 3.5zM829 766q6 -2 19 -5t20 -5q-12 12 -17 13t-22 -3zM957 1865.5q-3 -10.5 1 -24.5 q3 7 10.5 19.5t10.5 21.5t0 19q-2 -3 -10.5 -14t-11.5 -21.5z" />
<glyph unicode="c" horiz-adv-x="919" d="M-41 248q6 36 6 37v12q0 90 68 188q4 6 10 18.5t10 18.5q1 1 5.5 4.5t5.5 4.5l5 5t4.5 5.5t3.5 6.5t1.5 7t-0.5 8l2 3q2 2 4 3q40 16 49 58l47 43q18 6 21 8q20 16 59 48t59 48q8 6 50 43q2 2 4.5 3.5t4 2.5t1.5 2q-1 14 4 24.5t10.5 14t19.5 9.5t17 8q87 50 215 77 q12 2 36.5 3.5t29.5 1.5q27 0 41 -17q19 -24 65 -31q57 -9 89 -60q21 -35 21 -70q0 -17 -5 -35q-1 -2 -2.5 -7t-2 -7t-2.5 -6.5t-3.5 -6.5t-4 -5.5t-5.5 -5.5t-6.5 -4t-8.5 -3q-12 -3 -21 2t-26 26q-2 -1 -5.5 -3t-7.5 -4.5t-8 -6.5q-1 2 -8.5 12.5t-9.5 16.5q-2 3 -1.5 10 t-0.5 12q-2 29 -14.5 40.5t-41.5 10.5q-74 -3 -153 -35q-70 -26 -107 -49q-98 -59 -166.5 -109.5t-123.5 -113.5q-79 -91 -121 -199q-3 -7 -17 -71q51 -9 58 -8q279 15 487 180q17 13 32.5 29t35 38.5t30.5 34.5q5 -7 27.5 -14t30.5 -21q4 0 7.5 -1t5.5 -2t4 -4.5t3 -5.5 t2.5 -7t1.5 -6q4 -29 0 -41q-12 -43 -69 -103q-82 -84 -232 -149t-286 -76q-13 -1 -25 -1q-53 0 -80 15q-14 7 -27 7q-107 10 -107 98q0 19 5 41zM-23 233q-6 -36 2.5 -51t47.5 -35q-26 46 -50 86z" />
<glyph unicode="d" horiz-adv-x="1183" d="M-14 172q10 136 114 291q208 306 533 446q110 45 204 45h19q15 21 53.5 72.5t63 90.5t41.5 79q53 126 147 313q43 84 90 154q5 8 23.5 24t25.5 31q9 18 32 58.5t38.5 71.5t26.5 61q11 33 28 53t52 47l14 -33h6q53 0 79 -34q18 -22 17 -50q0 -17 -6 -37 q-39 -129 -157 -339q-162 -284 -293 -461q-12 -15 -17 -29q-136 -319 -223 -602q0 -6 -2 -14q21 -23 68 -78q-33 -120 -113 -219q-23 -29 -48 -33.5t-59 12.5q-1 1 -4 3t-5.5 3t-4.5 0q-30 -7 -43 17q-13 26 -10 53q14 113 24 147q10 36 34 103.5t30 85.5q14 40 14 69 q-30 -30 -35 -36q-216 -245 -381 -375q-84 -68 -167 -99q-22 -9 -44 -11t-45 4t-40 12.5t-41 17.5q-39 20 -39 78v8zM106 309l7 -18q2 0 4.5 1t3.5 1l-6 20q-1 -1 -4.5 -2t-4.5 -2zM129 342l10 -6l17 47q-14 -7 -27 -41zM162 391l16 19q-1 1 -4 2t-4 2q-4 -9 -8 -23z M172 258q134 85 245 194t240 263q-117 -41 -270 -181.5t-215 -275.5zM229.5 491q-0.5 -2 0.5 -5.5t3 -8.5q2 4 6.5 10.5t6.5 10.5q-1 0 -5 -1t-5 -1t-3.5 -1.5t-3 -3.5zM250 502q1 1 7 4t8 5.5t1.5 9.5t-6.5 16zM469 440l10 -10q20 21 58 62.5t57 62.5q67 73 80 92t16 49 q-117 -114 -221 -256z" />
<glyph unicode="e" horiz-adv-x="913" d="M-27 451q1 7 2 25.5t2 27.5q27 19 43 33l-2 -2q15 -2 33 -2q15 -1 32 1q36 4 62 21q28 14 35 23q55 61 133 110q79 57 115 107q17 25 43 45q41 31 104 73q30 20 134 78q22 12 43 12l43 -12q11 -6 30.5 -15t22.5 -11q-5 -3 -11 -0.5t-11.5 -2t-4.5 -20.5l27 23 q44 -23 54 -54q4 -11 4 -23q0 -23 -13 -52q-20 -47 -70 -93q-89 -83 -266 -186q-41 -24 -88.5 -45t-108.5 -45t-90 -37l-30 -12q2 -82 52 -121.5t167 -48.5q-3 3 -7.5 9t-7.5 9q106 20 123 25q22 6 63 22t58 21q26 -16 57 -41q29 -23 29 -55.5t-31 -49.5q-113 -67 -245 -67 h-74q-18 0 -38 4t-34 9t-37 13.5t-34 12.5l12 18q-11 8 -48 45.5t-67 46.5q-5 2 -10.5 7t-11.5 13t-9 11q-19 22 -41 51q-5 6 -10 27q-1 9 -2 26.5t-2 26.5q-11 1 -38 -5t-46 -2t-35 26zM187 396.5q-1 -2.5 0.5 -8.5t2 -7.5t3.5 -9.5q2 19 6 37q-5 -2 -8 -5.5t-4 -6z M375 610q57 21 116.5 58t88.5 67l-7 25q-111 -63 -198 -150z" />
<glyph unicode="f" horiz-adv-x="833" d="M-20 307q-11 44 -11 85q0 77 37 147q3 5 11 15t10 17q51 115 202 185q3 1 26 10.5t34 15.5q2 1 11 7t13 8t11.5 4.5t14.5 1.5t15 -4q7 -2 27 8q43 15 98 39q22 7 31 22q6 8 17 33.5t24 38.5q9 8 15 20t12 34.5t8 27.5q5 12 21 54.5t26 64.5q165 361 309 588 q14 21 69.5 111.5t88.5 137.5q45 64 176 209q88 95 207 109q6 1 30.5 3.5t34.5 3t28 -1t32 -7.5q30 -15 34 -19q7 -8 28.5 -31.5t35.5 -39.5t25 -33q18 -26 22 -74q2 -17 2 -36q0 -102 -57 -234q-76 -173 -205 -352q-10 -14 -33 -38.5t-33 -37.5q-167 -212 -333 -350 q-6 -4 -15.5 -12t-11.5 -9q-2 -2 -8 -2l-6 49q14 15 80 83.5t100 107.5q16 18 32.5 41t36.5 52.5t33 47.5q-19 -6 -34.5 -18.5t-23 -20.5t-20.5 -27.5t-16 -23.5q-20 -26 -41.5 -50.5t-49.5 -53.5t-44 -45t-53 -51.5t-47 -45.5q-8 -8 -25.5 -9.5t-24.5 -4.5q-3 6 -8.5 21.5 t-9.5 25.5h29l6 67q7 7 54 49.5t71 67.5q183 183 248 258q128 149 237 408q21 49 21 112q0 37 -7 78q-15 4 -29 4q-39 0 -79 -26q-4 -3 -25 -18t-28.5 -20.5t-23.5 -18t-27 -23t-21 -21.5q-41 -43 -184 -217q-20 -23 -70 -92q4 40 4 43q-45 -41 -212 -359t-195 -415 l16.5 -5.5t15.5 -4.5q-13 0 -41 -4q-3 -6 -8 -18.5t-8 -18.5l12 -4q10 2 29.5 7.5t24.5 6.5q13 4 25 4q30 0 53 -26q18 -22 18 -45q0 -15 -8 -31q-5 -15 -11 -27q14 -7 54 -31q-1 -3 -6.5 -17.5t-8.5 -25.5q-35 39 -67 109l-9 -37l-22 39q-3 0 -15 1t-20 1q19 -47 35 -82 q-8 -4 -10 -6q-14 19 -33 49q-21 4 -38 4q-18 0 -30 -5q-24 -9 -47 -46q-2 3 -5.5 12t-6.5 15q-18 -28 -33 -61.5t-30.5 -74.5t-26.5 -65q11 7 41 24l18 -34q-15 -39 -52.5 -142.5t-68 -177.5t-65.5 -141q-59 -114 -172 -182q-56 7 -87 38t-44 84q-28 118 -56 175 q-2 4 -5.5 17t-9 21t-15.5 13q-6 2 -10 18zM135 317q3 -5 19 -53q49 -126 51 -131q27 39 118 263.5t121 324.5q-13 -7 -66.5 -35.5t-80.5 -44.5v-8q4 0 16 -1t21 -1q-19 -16 -63.5 -52t-67.5 -55q-38 -34 -53 -55q-32 -46 -32 -89q0 -32 17 -63zM1130 1786l7 -4l14 24l-8 9z M1262 1980l6 -6q8 4 12 8q1 2 1.5 5t1.5 10t3 14q-14 -16 -24 -31zM1360 2087q11 5 21.5 13.5t23 19.5t18.5 16q43 34 70 51q-6 2 -12 2q-27 0 -58 -28q-5 -5 -22.5 -19.5t-26.5 -26.5t-14 -28zM1503 1692q52 70 84 155q-33 -34 -58.5 -81t-25.5 -74z" />
<glyph unicode="g" horiz-adv-x="657" d="M-653 -1063v12q0 29 3 75q5 56 5 58l37 52q13 18 26 41q-7 26 -7 55q0 47 18 104q119 343 335 641q37 56 80 60q5 -6 20 -19t23 -26t7 -31l38 -6q27 -38 27 -94q0 -26 -6 -56q-18 -1 -47.5 -4t-42.5 -4q-44 0 -56 -28q-14 -27 -48 -68.5t-44 -56.5q-45 -61 -67 -121 q-19 -50 -50 -143.5t-42 -125.5q-50 -139 -60 -333q0 -1 10 -58q87 8 158 72q47 40 75 65.5t65 65t63 76.5q105 155 168.5 251t146.5 237t142 266q22 48 43 99t49 125t39 101q2 4 6 29q-32 -16 -37 -19q-11 -4 -36 -16.5t-40 -17.5q-43 -16 -83 -16q-83 0 -150 69 q13 5 15.5 8.5t0 7.5t-15.5 15v-33q-37 29 -37 78q0 16 4 34q17 82 84 174q105 143 240 226q55 32 110 37q14 1 43 5t45 5q7 1 13 1q54 0 90 -44q10 -15 43 -35q87 -52 90 -156q0 -7 1.5 -23t1 -26t-4.5 -14q-10 -10 -10 -30t-7 -27q-8 -8 -15.5 -18t-18 -25.5t-15.5 -22.5 q-3 12 1 22t14 24t14 22q-26 -12 -40.5 -10t-37.5 7.5t-39 2.5q-4 5 -6 10t-2 11.5t0.5 11t2.5 13.5t3 13q8 27 7 62.5t-23 62.5q-16 2 -32 2q-30 0 -58 -9q-44 -13 -99 -42q-24 -12 -98 -72q-35 -28 -92 -82q-19 -19 -27 -51q1 0 15.5 4t21.5 8q84 47 131 74q40 21 54 19.5 t48 -31.5l11 -6q72 -39 72 -117q0 -35 -15 -78q-35 -112 -127 -346q-84 -214 -225 -449q-34 -56 -101 -158t-86 -132q-20 -30 -26 -37l-5 4q-6 3 -10 4q-114 -143 -182 -225q11 -4 19 -9q-48 -118 -205 -198q-34 -18 -73 -18q-43 0 -93 22q-72 32 -103 87.5t-34 135.5z M-598 -885q0 -18 2 -28q4 8 4 16l-2 14zM-512 -1176q13 -13 25 -22q10 5 10 6q0 4 -2 4q-12 12 -27 21q-3 -3 -6 -9zM-426 -1251q16 5 59 22q-12 6 -23 6q-22 0 -36 -28zM-55 -770v-8l8 4v8q-4 0 -8 -4zM215 264q32 -7 52 -7q9 0 16 1q22 5 57 31q-19 6 -55.5 -1t-69.5 -24z M457 326l8 -4l2 2l-4 8z" />
<glyph unicode="h" horiz-adv-x="802" d="M-55 195q41 109 131 335q184 447 209 512q50 126 147.5 377t147.5 377q25 66 75 185.5t62 148.5q7 22 35 43q-2 -7 -13 -36t-16 -46l18 -31q4 11 45 111q14 -20 14 -38q0 -12 -7 -22q-47 -73 -50 -79q-6 -11 -18 -47q16 13 28.5 37t25 40t34.5 19q26 -11 12 -47 q-5 -13 -24 -70t-31 -88q-74 -192 -145 -363q-7 -20 -25.5 -54t-24.5 -46q-11 -28 -34.5 -92t-38.5 -100q-21 -55 -63.5 -166.5t-63.5 -167.5q-3 -17 -10 -39q27 18 68.5 55.5t77 60.5t75.5 29q-4 -5 -16.5 -16t-20.5 -19l121 21q22 3 35 -2t26 -23q42 -62 42 -128 q0 -17 -3 -35q-9 -69 -35 -177q-23 -81 -67 -243.5t-66 -243.5q-11 -42 -67 -221q-4 -12 -29 -72q-4 8 -8.5 15.5t-11.5 16.5t-11 15q-11 -29 -26 -49h-9q0 3 -0.5 8t-0.5 8.5t1 6.5q20 47 35 65q12 16 21.5 37.5t15 38t13 43t12.5 39.5q56 161 67 198q2 2 18 48 q16 43 15 70q0 24 12 52q13 31 15 37q55 167 55 252v10q0 30 -4 115q-10 -7 -14 -15.5t-5 -25t-2 -20.5q-20 -115 -90 -342q-24 -75 -70 -224.5t-69 -224.5q-2 -11 -11.5 -33t-13.5 -36q0 42 2 71q-7 -14 -27.5 -56.5t-31.5 -68.5q-1 7 -2 15l-1.5 12t-0.5 8q35 96 67 207 l37 127q9 33 41 138t47 161q9 33 16.5 69.5t16 85t12.5 68.5q3 19 3 36q0 34 -13 58q-10 -1 -19 -3.5t-18.5 -9t-14 -9.5t-15.5 -13t-13 -12q-91 -91 -186 -243q-36 -57 -105.5 -174t-105.5 -175l-33 -51q-1 1 -6 4.5t-10 5.5q0 -1 -37 -71q-7 2 -23.5 7t-24.5 8.5t-20 11 t-19 20t-11 29.5zM707 907q-15 -20 8 -43q12 13 10.5 23t-18.5 20z" />
<glyph unicode="i" horiz-adv-x="561" d="M27 193v17q0 42 4 75q8 96 44 187t97 202q7 14 19.5 40.5t19.5 39.5q23 51 61 86q4 -4 24.5 -12.5t25.5 -12.5q-10 -9 -32.5 -26.5t-35.5 -28.5l22 -15q17 17 23 25q4 6 17 4.5t14 7.5q11 22 28 13q9 -28 6.5 -40.5t-20.5 -29.5q-16 -16 -27 -35q-6 -9 -20 -34.5 t-23 -39.5l-8 23q-68 -139 -80 -168q-4 -8 -5 -17.5t0 -26.5t1 -21v-25q-6 -13 -9.5 -29.5t-5 -26t-3 -31.5t-2.5 -28q-2 -18 -2 -37q0 -52 16 -110q0 -7 8 -19q43 3 60 35l-13 4l62 54q5 -9 1 -12.5t-12.5 -12t-9.5 -16.5q23 -6 54 -6q12 0 24 1q-7 -8 -17.5 -23t-15.5 -20 q-14 -11 -38.5 -29t-34.5 -26l-15 -10q-37 -22 -73 -22q-20 1 -38 7q-54 18 -75 78q-15 39 -16 91zM326 1014q4 70 45 104q41 -5 53 -55q18 34 49 20q0 -2 5 -18.5t4 -19t-3 -19.5q-14 -26 -57 -61q-9 -7 -17 -7q-20 0 -40 35q-4 0 -10 -1.5t-9 -2t-6 1.5q-6 2 -10.5 9.5 t-3.5 13.5z" />
<glyph unicode="j" horiz-adv-x="419" d="M-1636 -1288q-1 8 -1 16q0 54 9 98q19 132 88 287q134 313 262 518q21 32 92 131q30 43 70 50q61 -44 80 -58q26 -22 34 -56q3 -13 3 -26q0 -20 -7 -39q-9 -23 -16.5 -27.5t-38.5 -2.5q-4 1 -11.5 -3t-11.5 -4.5t-12 7.5l-12 10q-75 -107 -100 -139q-25 -36 -49 -66 q-25 -33 -25 -57q0 -13 -16 -56q-104 -227 -127 -284q-52 -129 -68 -287q-3 -22 -3 -41q0 -59 23 -98q15 -29 48 -35q24 -5 50 -5q43 0 93 13q126 36 276 142q212 152 326 278l6 6q13 13 17 21q0 1 -13 14q146 153 328 410q17 24 46.5 68.5t55 80.5t50.5 66q59 71 77 108 q17 32 62 133q53 111 81.5 172t67 158t62.5 180q20 67 43 178q2 10 2 22t-1 27t-1 23q-6 -1 -16 -3.5t-15.5 -3t-11 4t-8.5 16.5q6 101 88 160q118 -49 118 -170q0 -13 -2 -28q-1 -7 -5 -47.5t-11 -61.5q-20 -60 -58.5 -187.5t-73 -224t-77.5 -180.5q-197 -386 -403 -668 q-72 -98 -228 -282q-13 -17 -28.5 -32t-39 -36.5t-32.5 -29.5l-6 14q-16 -18 -48 -52.5t-48 -52.5q-170 -192 -304 -286q-30 -22 -91 -46t-74 -30q-51 -25 -82 -31q-55 -14 -86 -14h-7q-85 7 -152.5 49.5t-90.5 122.5q-2 11 -12.5 30t-12.5 23q-21 50 -22 113zM-1505 -1497 q28 -44 46 -53q11 -6 33 -6q13 0 31 2q-2 6 -2 16q29 -11 59 -11q37 0 74 17q29 13 52 8q5 -1 9 -1q32 0 32 40q-2 0 -4.5 1t-3.5 1.5t-3 -0.5q-119 -30 -201 -30h-10t-32 -11q-7 9 -17.5 14t-18.5 6.5t-22.5 3t-21.5 3.5zM-604 -1110l12 12q-4 0 -4 4q-2 -3 -4 -8t-4 -8z M-426 -860l10 -6q4 7 23 45q39 25 63 86q-4 -4 -16 -14t-17.5 -15.5t-13 -15t-11.5 -19.5t-5 -22q-11 -2 -17 -7.5t-10.5 -17t-5.5 -14.5zM190 1135q4 4 20 37.5t44 41.5q61 -39 82 -57q6 -6 8.5 -18t-0.5 -21q-4 -14 -9.5 -28.5t-14 -34.5t-13.5 -31q-12 9 -36.5 19.5 t-42 23t-27.5 35.5q14 -7 49 -27q3 31 -5 39t-55 21z" />
<glyph unicode="k" horiz-adv-x="860" d="M-29 154q-12 29 -12 55q0 30 16 55q28 47 60 148q7 23 27 63.5t26 56.5q5 11 11 32t7 24q14 24 11.5 41t-23.5 43q19 69 72 110q67 57 121 172q42 89 184 386.5t217 461.5q44 92 120 269t89 206q7 18 16.5 37.5t23 43.5t19.5 36q20 -7 23 -31t8 -30q14 18 45 53 q3 -15 -2.5 -38t-3 -40.5t22.5 -32.5q12 3 36 6v-16q-14 -12 -25.5 -28.5t-17.5 -27.5t-16.5 -35.5l-13.5 -31.5q-62 -144 -150 -338q-17 -37 -78 -147q-3 -4 -26 -27v-12q0 -59 -41 -143l-185 -390q-4 -7 -11.5 -24.5t-12.5 -26.5q7 0 21.5 1t23.5 0.5t16 -3.5 q14 -5 74 -23t90 -34q29 -15 45 -43q16 -27 15 -60q0 -101 -72 -182q-82 -88 -197 -135q-20 -7 -41 -16q4 -6 34 -53.5t48 -69.5q139 -167 250 -293q1 -1 11 -13.5t12 -15.5t8.5 -14t7.5 -17.5t1 -17t-3 -20.5q-14 -43 -46 -43q-12 0 -26 6q-4 2 -11.5 6t-12 6t-11 4.5 t-13 2t-13.5 -2.5q-5 -1 -33 21q-12 13 -36 41t-38 43q-7 7 -36.5 46.5t-53.5 55.5q-10 10 -12 18q-7 40 -64 109q-3 4 -14.5 23t-22 27t-28.5 9q-5 0 -16 21q-5 9 -15.5 26.5t-18 31t-12.5 26.5q-6 14 -28 96q-5 -9 -18.5 -29t-16.5 -30q-10 -41 -27.5 -81t-47.5 -96.5 t-40 -76.5q-3 -5 -9.5 -18t-10 -19.5t-8.5 -17.5t-7.5 -21t-3.5 -21q-4 -32 -19 -40.5t-54 -2.5l12 48zM43 201q2 3 5.5 11t4.5 11q-2 0 -5 1t-5 1v-24zM358 715q6 -1 12 -1q54 0 121 39q74 43 121 111q-94 -13 -186 -57q-55 -24 -68 -92z" />
<glyph unicode="l" horiz-adv-x="487" d="M-164 55q44 59 55 78q29 47 80 135t70 121q11 19 111 172q8 11 10 21q60 146 61 149q131 313 207 488q16 38 47.5 112.5t46.5 112.5q32 76 58 166q5 17 59.5 179t71.5 249q6 23 14 76q4 20 0 26q-9 16 -13 32.5t-4 28t6.5 29.5t10 25.5t15 28t14.5 26.5q10 -7 27 -17.5 t24 -15.5q64 -40 70 -116q1 -14 1 -27q0 -103 -40 -213q-120 -347 -246 -690q-68 -182 -182 -455q-94 -216 -226 -438q-36 -61 -101.5 -176t-84.5 -148q-12 -21 -33 -39q5 25 32 64.5t30 44.5q10 21 33 59.5t32 55.5q10 18 30 57t32 61q-20 -13 -39 -22q20 58 26 70l168 327 q5 7 11.5 20.5t9.5 18.5q-12 0 -19 -5t-12 -17t-6 -13q-109 -216 -168 -325q-100 -185 -236 -426q-14 36 -14 37q-14 -18 -25 -35q-2 5 -6 13.5t-5.5 13t-0.5 8.5q2 5 29 59q-14 8 -31 14zM582 1274q5 -5 8 -2q1 1 2 4t2 4l-8 2q-1 -1 -2 -4t-2 -4z" />
<glyph unicode="m" horiz-adv-x="1267" d="M-23 350q5 20 7 23q13 24 66.5 122t80.5 152q21 42 63 127t64 127q3 8 27 41q27 -22 39 -32.5t29.5 -32t20.5 -38.5t-2 -43t-24 -55q6 2 17 2l30 17q90 58 119 74q39 20 82 32q5 1 11 1q23 0 55 -19q81 -53 81 -133q0 -22 -6 -45q-2 -7 2 -52l35 21q40 27 119 83.5 t119 84.5q50 32 102 53q22 9 41 9q34 0 62 -29q17 -17 20 -19q35 -26 45 -60q6 -22 6 -51q0 -15 -2 -32q-14 -137 -86 -346q-6 -15 -18.5 -43.5t-16.5 -38.5l-30 -88q-10 -32 -27 -74q-14 -34 -47 -31q-38 3 -41 47l-31 -12q-4 4 -7.5 8t-8 10.5t-8.5 10.5l92 289 q43 127 65 202l15 60q-46 -7 -86 -39q-4 -3 -187 -150q-89 -69 -162 -118q-40 -28 -67 -28q-4 0 -8 1q-11 2 -24 8t-19.5 10t-23 15.5t-19.5 13.5q-23 14 -11 55q9 33 27 99.5t27 99.5q0 1 4 31q-16 -10 -64 -40.5t-73 -47.5q-180 -127 -328 -287q-16 -21 -27 -29 q-25 -20 -48 -11.5t-30 40.5q-1 7 -4 21.5t-4 21.5zM18 369l2 -9q2 1 4.5 3l7.5 6t11 8q-18 -5 -25 -8zM1133 324q45 61 61 168q-10 -15 -27.5 -44.5t-23.5 -39.5q-13 -21 -13 -52q0 -15 3 -32z" />
<glyph unicode="n" horiz-adv-x="808" d="M59 268q5 31 27 123q5 25 13 49t20.5 52.5t20 44.5t25.5 50.5t23 45.5l56 104q-1 0 -9 -1t-14 -1q62 118 98 163q15 19 31 36q15 -13 31 -31q-36 -32 -51 -47q11 -17 13 -40t0.5 -36.5t-7.5 -42.5q14 20 45.5 62t48.5 67q4 -16 4 -26q0 -3 -2.5 -8t-4.5 -8.5t-1 -4.5 q7 -10 9 -19.5t1.5 -16t-6 -16t-8 -13.5t-12 -14.5t-11.5 -12.5q-23 -33 -32 -70l110 56q-4 -11 -9.5 -25.5t-8.5 -23.5q44 14 90 32q-15 12 -25 17q37 51 89 63q20 5 38 4q29 0 57 -12q44 -20 70 -57q46 -68 46 -139q0 -28 -7 -56q-23 -87 -106 -416l-25 -96q-8 -38 -2 -55 q3 -13 3 -26q0 -43 -36 -79q-20 -10 -37 -10q-25 0 -43 21q-2 3 -24 14q-29 14 -38 30.5t-3 47.5l53 219q16 72 49 182q1 4 4.5 20.5t5.5 23.5t6 19.5t10.5 22t14.5 17.5q10 7 10 24q19 56 19 79q0 15 -4 60q-9 1 -18 1q-33 0 -72 -17q-252 -116 -439 -330q-24 -29 -41 -35 q-23 -9 -35 0.5t-10 34.5zM248 739q29 13 16 35q-2 -4 -4.5 -7t-6 -6.5t-5.5 -6.5v-15z" />
<glyph unicode="o" horiz-adv-x="669" d="M-23 254q-1 10 -1 21q0 35 8 71q41 191 143 311q14 16 49 61t57 68q37 37 89 64q36 20 53 55q33 72 139 84q5 1 9 1q35 0 57 -48q7 -4 21.5 -11.5t21 -12t10.5 -9.5q8 -14 11 -20.5t8 -19t4.5 -23.5t-5.5 -21q-4 -8 -6 -16.5t-3 -14t0 -16.5t1 -13.5t3 -16.5t3 -15 q21 -81 20 -166q0 -35 -3 -71q-7 -75 -68 -177q-66 -113 -184 -180q-41 10 -75 10q-41 0 -75 -14q-46 -20 -71 -26q-28 -8 -54 -8q-17 -1 -31 3q-38 8 -66.5 32.5t-45 55t-19.5 62.5zM70 422q15 27 40 53t43 41t52 41q65 50 92 92q13 21 63 64q54 47 70 63q18 18 55 68 l-16 22q-38 -24 -88 -59q-41 -27 -102.5 -92.5t-90.5 -89.5q-21 -18 -40 -45.5t-28.5 -46t-26.5 -59t-23 -52.5zM125 248q9 -1 45 -7.5t55 -9.5q0 -4 -2 -6h-90q20 -40 56 -40q10 0 20 3q10 2 37 10.5t43 10.5q75 14 127 82q6 8 51.5 58.5t60.5 84.5q1 2 25 2q25 32 27 82 q1 13 0 26q0 36 -5 70q-37 -110 -43 -129q16 62 16 126q0 93 -34 190l-8 -39q-8 12 -10 18h-11q-77 -49 -202 -174q-10 -10 -19.5 -20t-19.5 -23.5t-16 -21.5t-17 -25t-14.5 -22.5t-16 -26t-14.5 -23.5q-47 -71 -47 -145q0 -25 6 -51z" />
<glyph unicode="p" horiz-adv-x="942" d="M-485 -932q5 91 10 117q11 70 37 145q175 535 446 940q71 110 96 181q10 25 46 103.5t51 123.5q15 41 29.5 87t32 103.5t26.5 87.5q-5 14 -5.5 27.5t4.5 26.5t9.5 22.5t13.5 24t13 22.5q16 31 40 31q13 0 29 -10q11 -7 37 -29q-1 -5 -1 -11q0 -18 7 -53q4 -21 4 -36 q0 -19 -6 -31q-4 -9 -37 -129q-23 -71 -26 -100q20 12 28 20q79 67 170 107q52 24 112 24h13q40 -3 60 -16t45 -51q34 0 53 -19t33 -55q17 -41 17 -87t-17 -97q-68 -182 -219 -295q-118 -86 -271 -148q-62 -25 -119 -25q-74 0 -141 42q-110 -286 -145 -373 q-103 -258 -193 -471q-30 -70 -110 -221q-13 -27 -33 -43q-13 -11 -27.5 -11t-25.5 6t-25.5 12.5t-26.5 6.5q-14 0 -24 15.5t-10 35.5zM207 254q15 -12 33.5 -13.5t27 1t31.5 10.5q167 62 295 166q94 75 141 172q12 26 12 48q0 27 -18 50q-58 -3 -107.5 -28t-107.5 -70 q-138 -105 -293 -305q-3 -5 -14 -31zM535 762l178 41q-21 4 -42 4q-71 0 -136 -45z" />
<glyph unicode="q" horiz-adv-x="940" d="M-176 -1059q7 16 18.5 45t22 53.5t20.5 45.5q21 45 110.5 234t127.5 268t108 218.5t131 251.5q91 159 107 185q1 2 6.5 6.5t7.5 7.5v-82q30 48 43 70q2 -10 2 -27q0 1 4.5 11.5t8.5 15.5q4 11 14 31.5t16 34t11 33t6 38.5q-2 -2 -82 -70q-8 -4 -43 -22.5t-55 -26.5 q-5 -2 -89 -31q-19 -5 -40 -16q-31 -14 -64 -14q-22 0 -45 6q-4 1 -19.5 7t-23.5 7q-50 6 -79 47.5t-34 91.5q-1 13 -1 27q0 86 55 180q43 81 104 158q158 189 334 293q57 34 123 53q35 10 65 10q24 0 44 -7q45 -15 85 -68q4 -6 15 -17q45 -29 45 -74q0 -20 -9 -43 q-18 -61 -26 -84l-12 19q-1 0 -3.5 -1t-3.5 -1q9 -32 11 -45q0 -17 -4 -49q19 5 33 21q14 15 14 35q0 22 41 58q9 -14 10 -16q5 -9 1.5 -31t2.5 -35q4 -2 0 -11.5t-6.5 -15t-9.5 -16t-9 -14.5q-30 -51 -110 -186.5t-123 -208.5q-269 -463 -555 -1065q-23 -49 -69 -146.5 t-68 -146.5q-1 -2 -2 -8.5t-2 -9.5q58 20 114 41q117 46 260 59q76 6 156 43q105 51 191 59q6 1 12 1q60 0 102 -58q15 -22 15 -44q0 -17 -9 -34q-4 -9 -12.5 -13t-20.5 -6.5t-18 -6.5q-38 31 -88 31q-15 0 -31 -3q-6 -1 -15 -1q-24 0 -67 9q-22 3 -46 3q-80 0 -175 -39 q-88 -37 -329 -148q-34 -13 -50 -45q-5 -9 -13 -18t-14.5 -14.5t-19 -16t-16.5 -14.5q-8 5 -28.5 13.5t-34 19t-21.5 28.5q28 40 47 72q-15 16 -11.5 33.5t13.5 28.5t22 28t13 33q-3 -3 -16.5 -14t-17.5 -14.5t-14.5 -13t-15.5 -16t-11.5 -16t-10.5 -19.5q-6 25 -6 44t6 34z M119 381q21 -8 46 -8q36 0 81 16q18 6 38 15t44.5 20.5t38.5 17.5q0 -2 4 -6l-125 -94q51 16 145 66q8 4 23.5 18t30 19.5t32.5 0.5q3 -1 6.5 2t10.5 10.5t8 8.5q3 3 7 11.5t7 10.5q40 25 100.5 87.5t71.5 72.5q41 35 64 94q-16 -13 -31 -26t-31.5 -27t-25.5 -22l-9 8 q8 9 34.5 36t39.5 42q14 19 33 49h2q-10 10 -12 21.5t2 30t4 24.5l-23 6q-2 8 -5 22.5t-5 20.5q-4 -1 -13 -2t-12 -2q-123 -58 -194 -117q-34 -28 -100.5 -79.5t-73.5 -57.5q-5 -5 -16.5 -10.5t-14.5 -6.5q18 14 29.5 55.5t31.5 55.5q21 12 53.5 44t41.5 40q25 20 108 72 q12 7 26.5 13t24.5 8.5t29.5 7.5t26.5 7q14 -14 20 -15t29 3l-35 12l29 7q-17 17 -35 20q-8 1 -16 1q-55 0 -105 -36q-65 -43 -201 -141q-60 -43 -122 -133q-4 -7 -11 -37q8 6 18 11.5t11 6.5q-13 -23 -40.5 -64.5t-43.5 -67t-31.5 -65t-19.5 -77.5zM453 37q8 19 25.5 57 t25.5 58q-5 -5 -10 -10.5t-9 -12t-7 -11.5t-6 -13.5t-4.5 -12.5t-4 -14t-3.5 -13t-4 -14.5t-3 -13.5zM510 156q1 1 5 5.5t5 6t4 5.5t4 6t2.5 6t1 7t-1 7t-2.5 8q-16 -44 -18 -51zM764 805q46 24 61 72q16 39 -18 47q-20 -26 -24.5 -35.5t-8.5 -38.5q-2 -18 -10 -45zM807 942 q7 -2 17 -7l14 -7q13 32 -19 37q-11 -21 -12 -23z" />
<glyph unicode="r" horiz-adv-x="835" d="M-25 221q32 85 137 322t146 375l64 -31q-1 -7 -2.5 -22t-2.5 -21q1 0 62 -10q-8 -37 -33 -134q30 22 37 27q119 101 256 127q28 7 54 7q9 0 18 -1q18 0 32 -18q8 -8 20.5 -26t18.5 -25q3 -3 15 -5.5t16 -3.5q23 -9 23 -34q0 -36 -26 -69.5t-65 -45.5l-26 39q-2 0 -5 1 t-5 1q-6 1 -18 -3t-22 -4t-18 9q-3 3 -24 -8q-32 -13 -86 -43q-76 -40 -174 -131v2q-41 -62 -58 -80q-17 -21 -51 -57t-43 -46q-38 -47 -51 -77q-15 -34 -88 -158l-74 41q-1 6 -11.5 43t-15.5 59zM211 340q22 23 61 68t60 67q5 5 18 11.5t17 9.5q0 1 -3 7.5t-4 12.5 q-13 -8 -27 -18.5t-22.5 -17.5t-24 -22.5t-20 -20.5t-22 -24.5t-19.5 -21.5q-4 -4 -5.5 -9.5t-4 -19.5t-4.5 -22zM418 721q65 22 181 58.5t138 43.5q-20 16 -40.5 16.5t-34.5 -5.5q-142 -33 -244 -113z" />
<glyph unicode="s" horiz-adv-x="706" d="M-305 119q9 14 15 42.5t14 41.5q8 14 12 19t12.5 10.5t20.5 5.5q19 1 63 4t63 3t62 -3q15 -2 33 -2q67 0 157 34q86 34 104 70q11 22 11 67q0 27 -4 62q-3 24 -15.5 69.5t-15.5 65.5q-2 13 -9 43t-9.5 44.5t-4.5 46.5t4 49q7 -28 11 -37q93 148 313 215q-2 2 -10 14l2 8 q2 1 16 5t18 5t17 4t18.5 3.5t16.5 2t18 0t16 -3t17 -5.5t15 -9q2 -1 15.5 -10t17 -11.5t15 -11t15.5 -14t12 -15t10.5 -18.5t5 -20.5t1.5 -24.5q-17 -55 -78 -55q-2 4 -5 13t-5 12q-107 -6 -182.5 -20t-145.5 -54l-1 -6q-1 -6 -1 -10l31 -299q2 -18 7 -55t7 -56 q4 -33 0 -47q-56 -147 -190 -189q-110 -34 -241 -34h-21h-4q-22 0 -97 -9q-28 -2 -56 7.5t-45 20.5t-46 32zM281 793q0 -3 4 -7q0 1 4 9q0 2 -2 4z" />
<glyph unicode="t" horiz-adv-x="978" d="M20 705q7 7 7 8q8 52 42.5 82.5t90.5 56.5q39 17 84.5 34t101.5 36t86 30h21q-23 -25 -74.5 -52.5t-69.5 -43.5q100 33 150 51q4 1 10 5.5t10 5.5q56 11 88 48.5t58 100.5l22 25l-4 4q-3 -1 -9 -4.5t-9 -4.5q32 77 37 87q177 330 303 559q5 9 17 26.5t19 28.5 q5 -8 16.5 -23t16.5 -24q11 11 31 35q57 -17 57 -63q0 -36 -24 -83q-17 -30 -60 -96.5t-63 -103.5q-37 -68 -103.5 -198t-78.5 -153q-4 -7 -12 -25.5t-13 -29.5q58 -7 96 -14q65 -8 114.5 -45.5t94.5 -100.5q6 -9 6 -24q0 -5 -2 -15.5t-2 -15.5q0 -9 8 -29q-20 -20 -38 -20 q-16 0 -31 14q-16 13 -33 8q-16 -3 -35 25q-24 40 -73 40q-6 0 -13 -1q-26 -2 -56.5 -4.5t-68.5 -6.5t-61 -6q-70 -176 -111 -286q-114 -321 -145 -504q-2 -13 -15 -49q-15 -35 -37 -35q-17 0 -38 18q-7 4 -15 17l-20 -15q-13 4 -21 10t-10.5 18t-3 17.5t-0.5 22.5v12 q0 131 -63 238q-14 24 -30.5 48t-41.5 56.5t-35 46.5q-16 23 -53 64q-42 50 -42 105q0 44 27 92zM51 605.5q3 -8.5 4 -11.5t9 -13.5t8 -11.5q7 13 6.5 32t-15.5 34q-8 -8 -11.5 -14.5t-0.5 -15zM154 608q33 -45 96.5 -130.5t91.5 -123.5l135 414q-103 -17 -199 -65t-124 -95 z" />
<glyph unicode="u" horiz-adv-x="993" d="M-16 168v9q0 102 69 216q9 16 20.5 31.5t26.5 34t23 28.5q1 1 7.5 10t7.5 10.5t6 11t4.5 12t2.5 12.5t-1 14q-1 3 0 6.5t3 8t3 6.5q73 123 151 198q11 -2 15 2.5t-3 16.5q16 34 44.5 66.5t48.5 50t61 49.5q24 17 42 11t46 -40q-16 -8 -46.5 -14.5t-55.5 -16.5t-43 -33 q18 -9 20 -8q23 7 68 23t57 20q2 -1 15 -7t22 -9q0 -21 4 -41q-7 -1 -21 -2t-22 -2l27 -56q-11 2 -30.5 4.5t-29.5 4.5q-24 -27 -69.5 -75t-82.5 -89.5t-65 -81.5t-54.5 -87.5t-60 -113.5t-51.5 -100q28 8 53.5 21t56 32.5t46.5 28.5q-32 4 -35 4q2 4 2 10q11 9 120 102 t167 138q19 16 55 43t65 51t52 47q19 18 41.5 37.5t50.5 43t43 36.5q14 12 43 41l-2 -2q19 0 47 4q15 -17 15 -38q0 -15 -7 -32q-19 -41 -52 -117t-44 -100q-18 14 -24 18q-5 -10 -46.5 -99t-62.5 -136q29 31 92 102l31 31q12 -7 14 -17.5t0 -16t-8 -17.5q-13 -26 -41 -76 t-41 -76q-9 -18 -38.5 -72.5t-43.5 -84.5q-12 -26 -44.5 -62.5t-41.5 -48.5l-33 31q-10 -5 -18 -11l-31 21q14 36 19 47q1 3 6.5 14t6.5 14.5t4 16t-1 17.5q-2 11 12 43q37 82 78 165q15 30 15 56q-24 -20 -35 -31q-22 -20 -112 -100t-140 -123q-107 -89 -199 -119 q-27 -13 -56.5 -12.5t-53.5 22.5q-2 2 -31 8q-53 9 -53 66zM139 342q10 -5 13 -8q15 30 30 57l-10 6zM231 203q69 34 127 92q-29 -3 -64 -28.5t-63 -63.5zM596 479q11 0 28 7t25 8q86 18 107 127q-21 -8 -27 -13zM709 348q1 0 3 -1t3 -1l4 21zM758 623q8 4 10 8q1 1 -1 6 q-1 4 -1 6q-1 -1 -3 -2t-3.5 -2t-1.5 -2v-14z" />
<glyph unicode="v" horiz-adv-x="845" d="M-2 174q-14 70 -14 136q0 82 22 155q59 196 150 373q4 9 11 18t18 20.5t16 18.5q13 -28 35 -82q9 3 49 18q10 -10 14 -23.5t3.5 -23t-3 -26.5t-2.5 -25q-2 -20 -3.5 -27t-5.5 -22.5t-12.5 -24.5t-21.5 -16q-4 -3 -14 -22q-72 -151 -99 -308v-16q0 -1 9 -16q8 7 38.5 28 t44.5 35q90 87 199 203q38 36 80 84q11 11 23 26l280 361q3 3 12 6l72 -59q15 -11 24 -32t3 -36q-13 -37 -33 -63q-37 -47 -295 -371q-10 -14 -35 -39q-50 -45 -114 -135q-73 -103 -193 -174q-53 -32 -105 -32q-62 0 -122 46q-25 22 -31 45zM8 209q2 -3 8 -16t9 -19q2 0 6 2 q-1 6 -4 18.5t-4 18.5q-3 -1 -8 -2t-7 -2z" />
<glyph unicode="w" horiz-adv-x="1423" d="M-8 281q2 10 8 34.5t9.5 37.5t10 32.5t13.5 34.5q167 342 405 577q19 19 29 27q22 15 39 15q13 0 24 -9q8 -6 27 -19t29.5 -21t22.5 -23.5t18 -32.5q-20 -29 -40.5 -45t-49.5 -17q-11 0 -31 -20q-100 -93 -158 -188q-49 -81 -100 -215l151 126l217 193q31 28 56 47 q31 22 44 21t42 -27q8 -6 33 -23q4 -15 8 -49q42 -7 42 -48q0 -6 -1 -13q-5 -38 -27 -96q-15 -37 -133 -316q31 11 59 39q17 17 66.5 65t82 82t62.5 68q220 254 398 475q44 55 119 159t104 142q8 12 27 35t20 25q37 -12 49.5 -23t34.5 -49q-12 -17 -31 -51q22 -10 60 -23 q-11 -22 -25 -43q-226 -333 -455 -587q-12 -13 -24 -29t-26 -36.5t-23 -31.5q-91 -112 -134 -157q-42 -44 -258 -254q-32 -30 -81 -60q-41 -26 -96 -26h-11q-35 5 -56 24.5t-22 52.5q-1 22 -20 99q-9 39 -9 71q0 36 11 64q69 182 71 188q-21 -9 -36 -14q0 4 -5 39 q10 10 35.5 32.5t38.5 36t26 38.5t15 53q-267 -242 -497 -402q-1 -1 -1 -3.5t-0.5 -8t-1.5 -10.5q67 28 113 63q26 21 77.5 63t78.5 62q39 31 71 51q-6 -28 -32.5 -73t-55.5 -74q-89 -89 -108 -105q-41 -33 -84 -55q-21 -11 -36 -11q-35 0 -44 56l-6 23q-16 -8 -43.5 -24 t-40.5 -23q-48 21 -48 62q0 10 3 22zM567 102l29 66q-32 -11 -32 -43q0 -10 3 -23zM573 190q38 7 45 52q33 170 87 264q6 10 10 23t7.5 29.5t6.5 25.5q-21 -30 -41 -62.5t-44.5 -76t-35.5 -62.5q-17 -28 -23 -57t-8 -74.5t-4 -61.5zM651 197q0 -1 3.5 -6t4.5 -9q5 2 14 4.5 t14.5 4t12.5 5t11 7.5q11 10 34 35t42.5 41t43.5 24q28 30 99.5 105.5t109.5 117.5q49 54 185 215q17 19 47.5 57.5t42.5 53.5q3 5 14 15.5t17.5 23t7.5 29.5q-11 -14 -28 -33l-17 -19q-217 -237 -265 -288q-65 -69 -114 -115q-39 -37 -118 -109.5t-118 -109.5q-1 0 -43 -49 zM1399 977q20 11 38.5 29.5t26.5 29.5t27 39l-10 10q-46 -59 -82 -108z" />
<glyph unicode="x" horiz-adv-x="974" d="M-20 397q0 3 2.5 6t6.5 7t5 6q3 4 8 13t8 13l-2 4q-5 26 -4 33q16 119 39 230q6 28 14.5 59t20.5 70.5t18 58.5q13 43 27 56q8 7 18 12q11 8 15 26q7 49 63 70q43 -34 63 -71q15 -27 15 -49q0 -9 -2 -17q19 -32 34.5 -66t28.5 -74t21 -67.5t21.5 -77.5t19.5 -72 q14 11 62.5 40t66.5 55q6 8 26 20q330 216 373 244q19 13 66 37l10 -66l49 -23q4 -20 4 -39q0 -48 -28 -81q-28 -36 -42 -41t-59 8q-171 -111 -483 -309l61 -207q8 -30 26 -89.5t26 -88.5q1 -3 3.5 -13l3.5 -14t2.5 -12.5t1.5 -14t-0.5 -13t-2.5 -14.5t-6 -14 q-14 -1 -23 6.5t-18.5 22t-14.5 19.5q-4 -16 3 -60.5t-7 -60.5q-6 5 -21.5 15.5t-24.5 18.5t-15 17q-23 33 -23 58q0 7 2 14q5 28 5 50q-1 20 -5 34q-8 29 -27.5 78.5t-23.5 82.5l-20 -30q-28 79 -41 116q-23 -10 -63 -35q-41 -26 -75 -41q-32 -14 -66 -14h-5q-22 39 -27 51 l-78 7q-15 14 -22.5 36t-8.5 36t-1 44zM23 313q4 62 4 86q0 3 -3 10.5t-4 10.5q-17 -39 -17 -61t20 -46zM109 408q24 3 48.5 13t39.5 19t41 27t38 25q-14 48 -37.5 138.5t-35.5 133.5q-34 -87 -47.5 -124t-29.5 -105.5t-17 -126.5zM145 301q17 -1 34.5 2t29 6t29 12.5 t24 13.5t26 17.5t23.5 16.5l-16 34q-110 -74 -150 -102zM455 317q-3 -15 -3 -35q0 -32 7 -76q11 -73 30 -112q2 -4 6 -8t11 -9t10 -7l8 6q-11 35 -33 114.5t-36 126.5zM729 743l8 -6q5 5 13 17l-7 4q-1 -1 -5.5 -7t-8.5 -8zM821 784q8 5 31 14.5t36.5 19.5t20.5 28 q-6 -4 -29.5 -15t-36.5 -21t-22 -26z" />
<glyph unicode="y" horiz-adv-x="782" d="M-492 -795q0 21 23.5 54t24.5 57q-6 -3 -41 -23q1 3 1 7.5t0.5 7t2.5 4.5q146 198 248 330l354 467q26 34 81 103.5t83 106.5l14 21l-47 -6h-5q-44 0 -93 31q-97 60 -97 185v15q2 28 5.5 87t5.5 89q1 18 27 68.5t38 62.5q1 1 6.5 6t7.5 6t7 4.5t8.5 3.5t8.5 -0.5t11 -2.5 q23 -11 23 -49q43 -30 59 -39q4 -15 4 -29q0 -40 -30 -70q-13 -13 -17 -32q-4 -53 -8 -150q15 1 28 4t27 9t21 9.5t24 13t21 11.5q26 15 51.5 31t52.5 36.5t46.5 35.5t48.5 41t44 39t46.5 44t41.5 41l45 45l42 42q13 13 37.5 33.5t33.5 29.5q7 -8 26.5 -28t30 -33.5 t15.5 -28.5q9 -25 9 -45q0 -27 -17 -47q-35 -41 -115 -146l-850 -1099l-225 -293q-11 -15 -34.5 -40.5t-27.5 -29.5q-13 13 -37 14.5t-32 4.5v59q-8 -10 -20.5 -24t-21.5 -24.5t-16 -19.5zM100 641v72q-6 -46 -6 -88q0 -97 33 -174q15 31 -2 61q-25 58 -25 116v13z" />
<glyph unicode="z" horiz-adv-x="874" d="M-12 707q39 86 106 86q73 3 164 30h33q0 1 3 11t5 16q63 10 111 10q22 0 41 -2q16 -2 35 -2t42.5 1t36.5 1q29 0 35 -2t25 -4.5t30.5 -6.5t16.5 -11q45 -59 45 -111q0 -57 -41 -84q-77 -57 -123 -84q-36 -21 -108 -57.5t-80 -40.5q-42 -21 -62 -33q0 -8 2 -12 q537 -59 629 -70q3 -16 14.5 -40.5t18.5 -41t4 -38t-21 -40.5q-112 6 -231 15q-47 4 -149.5 9.5t-179 13.5t-146.5 24q-58 14 -94 28q-85 42 -101 138q39 68 131 118q98 50 279 150q-24 8 -31 8q-82 -6 -246 -22q-61 -7 -84 -41q-6 -6 -28 -17q-1 0 -10.5 3.5t-14.5 6 t-8 7.5q-25 37 -49 84zM248 383h55q-2 1 -12 7t-14.5 8t-13 -1t-15.5 -14z" />
<glyph unicode="{" d="M-10 408l6 10q13 60 24 100q95 31 138 43l139 29q29 5 98 22q50 25 60 29q170 62 188 70q12 4 24.5 12t28 19.5t25.5 17.5q-25 88 -29 98q-7 20 -25.5 63.5t-27.5 67.5q-1 3 -6 12t-7 14.5t-0.5 14.5t9.5 17q3 4 -14 43q-5 13 -19 47t-20.5 52t-13 47t-7.5 54q0 59 6 76 q23 63 36 95.5t41.5 81.5t62.5 83q5 5 36 36.5t40.5 40.5t35.5 34t41.5 37.5t38.5 30.5t45 32q41 29 103 57q32 12 52 1.5t42 -50.5q-16 8 -37 3t-31.5 -10t-29 -16t-29.5 -16q83 -8 196 -14q-32 -25 -59 -49q0 1 -1 3t-1 3q-83 -33 -100 -43q-161 -98 -295 -264 q-66 -85 -41 -211q16 -75 88 -266q10 -22 22 -41q39 -52 52.5 -104t2 -98t-36.5 -84.5t-63 -70.5q-12 -11 -27.5 -20.5t-36.5 -20.5t-30 -16q-19 -12 -45 -23q49 -86 55 -98q21 -43 -2 -86q-7 -11 -20.5 -31.5t-21.5 -33t-21 -29t-25 -29.5q-54 -59 -151 -141 q-152 -126 -121 -336q1 -10 6.5 -53t8 -59.5t8.5 -49.5t14.5 -58t19.5 -50q1 -2 2 -8t2 -9q5 -17 3 -24t-19 -33q-39 -17 -109 11l-6 3q-31 11 -47 66q-30 85 -37 141q-5 36 -8.5 102.5t-7.5 96.5q-15 175 127 356q14 17 32 36.5t29.5 31t37 35t32.5 30.5q4 4 102 97 q-58 16 -94.5 22t-82 -3.5t-81.5 -41.5q-37 -33 -55 -45q-66 -47 -127 -8q-4 4 -10.5 7t-14.5 6t-12 5q-61 28 -55 101zM504 631q28 -8 50 -5t34 25q-77 -19 -84 -20zM662 1516q1 1 4 2t4 2l198 198q2 4 2 25q-149 -101 -208 -227z" />
<glyph unicode="|" horiz-adv-x="696" d="M6 -12q13 41 36 113t42.5 132t38.5 113q9 26 326 883q5 14 81 233l27 72q4 -3 17.5 -13.5t19.5 -13.5l-10 -59q18 2 41 2q18 60 24 78q15 -15 47 -43q-32 -121 -45 -158q-56 -159 -110 -278q-4 -10 -7.5 -29t-9 -34t-18.5 -25q-1 0 1.5 -6t4.5 -11q-3 -2 -14 -6.5 t-13 -7.5l-6 -12t-6 -12.5t-5.5 -12t-5.5 -13t-3.5 -11.5t-3 -13.5t-1 -12.5t0 -14t2.5 -14q3 -15 -6 -41q-20 -53 -43.5 -112.5t-52.5 -133t-46 -116.5q-8 11 -10.5 21t-1 15.5t5.5 16.5q34 84 80 217v25q-91 -179 -143 -287q-4 -6 -9 -33l-36 -242q0 -4 6 -16q5 15 49 133 q2 -2 6 -2q-8 -44 -16 -65q-12 -36 -43 -124.5t-47 -136.5q-6 -22 -29 -143q-23 -23 -53 0q2 22 4.5 63.5t5.5 76.5t8 65q6 38 24.5 106t24.5 95q-42 -34 -59 -82q-19 -63 -68 -197q-15 30 -2 70z" />
<glyph unicode="}" d="M25 -588q8 18 18.5 43t13.5 31q16 3 32 5t30 3t18 2q29 25 74.5 63.5t56.5 47.5q87 79 140 135q97 103 104 272q3 87 14 152q14 77 52 117q13 13 16 24q5 25 13.5 45t29 42t27.5 29t40.5 33t34.5 27q6 5 20.5 14t22.5 15q-10 10 -31.5 31t-37.5 36t-33 27q-74 55 -45 146 q23 79 51 118q55 84 160 238t151 223q39 58 88 154q7 13 15.5 41.5t11.5 36.5q0 -21 2 -33q0 -26 2 -53l49 147l-157 72q5 17 15 47.5t15 48.5q-1 9 -2 30.5t-2 32.5q29 10 58 23q16 -8 24 -16q68 -68 92 -97q69 -86 49 -217q-14 -105 -106 -248q-29 -46 -201 -299 q-121 -186 -131 -202q-15 -26 -41 -88q12 -13 24.5 -24.5t30.5 -22t26.5 -15.5t32 -17t28.5 -14q21 -11 36 -17.5t35 -12t40 -5t40 6.5q5 2 27 -2l26 -26t35.5 -35t34.5 -35l-70 -9q13 -21 35 -61q-5 -8 -10 -13.5t-13.5 -7.5t-12.5 -2.5t-15.5 0t-13.5 0.5q-127 2 -289 -86 q-119 -64 -131 -196q-1 -15 -4 -42.5t-5 -50t-3 -42.5q-6 -153 -103 -297q-124 -175 -332 -316q-33 -20 -63 -26q-16 -1 -26.5 -2t-23 4t-20 9t-18.5 12.5t-17.5 14.5t-16.5 15.5t-17 15.5z" />
<glyph unicode="~" horiz-adv-x="1107" d="M0 553q4 20 12 51.5t11 46.5q8 41 55 66q147 65 254 6q58 -30 117 -57q76 -37 159 -19q157 31 277 113q74 51 98 121q1 3 25 51q11 -6 36 -22.5t39 -22.5q29 -12 25 -43q-8 -68 -23 -101q-32 -74 -69 -100q-105 -77 -194 -121.5t-189 -54.5q-56 -7 -94 6q-143 50 -195 78 q-91 49 -194 -12q-42 -23 -52 -23t-37 27zM561 573q55 -17 137 3.5t111 58.5zM1022 696l12 -10q14 14 20.5 22t12.5 26t2 40z" />
<glyph unicode="&#xa1;" d="M-111.5 -587q-2.5 11 0.5 12q14 44 39 92q243 472 568 1091q16 33 45 82q5 7 14.5 17.5t11.5 13.5q4 -4 8 -4l-6 -43l115 -33l-39 -76q11 6 23 13t14 8q4 -9 2 -11q-18 -35 -98 -190.5t-123 -237.5q-71 -135 -144 -270q-5 -9 -13.5 -18t-21.5 -20.5t-18 -16.5 q-6 9 -5.5 20t2 16t9 18.5t7.5 14.5l110 220q3 6 8.5 19.5t8.5 19.5q-10 5 -11 6q-14 -23 -69.5 -112t-83.5 -138q-58 -93 -58 -176q0 -10 -3.5 -22t-9.5 -27t-9 -23q-12 -40 -12 -64q50 77 59 93q4 0 8 -4q-18 -48 -20 -52q-13 -23 -50.5 -87.5t-56.5 -100.5 q-31 -55 -61 -127q-11 -20 -17.5 -24.5t-38.5 -10.5q4 93 16.5 157.5t49.5 121.5q14 22 49 80q17 35 21 51q-154 -154 -218 -291q0 2 -2.5 13zM500 330q8 -4 10 -6q18 28 27 47l-13 6zM623 973l59 51l-10 35l-35 -6l-4 12q9 67 80 55q80 -14 153 -80q58 -51 15 -118 q-14 -13 -32 -13t-27.5 5t-30.5 18q-2 -1 -52 -21q-13 15 -37.5 19t-46 11.5t-32.5 31.5z" />
<glyph unicode="&#xa2;" horiz-adv-x="899" d="M0 -104q28 37 77 107t58 83q19 26 56.5 91.5t64.5 98.5l-43 33q-94 77 -127 166q-36 95 0 160q4 8 4 16q17 104 80 173.5t168 129.5q2 -2 4 -2q-11 -14 -59 -51.5t-66 -73.5q28 10 33 13q15 11 85.5 52.5t102.5 72.5q8 8 19.5 14t28 12t24.5 10q64 27 82 93 q19 77 51 167.5t55.5 146.5t69.5 161q4 8 9.5 16.5t13.5 19.5t12 17q66 -46 88 -59q15 -31 -6 -72q-101 -179 -135 -311q-15 -63 -33 -152q13 -10 40 -29.5t45.5 -34t33.5 -30.5q11 -12 20 -27.5t18 -36.5t15 -32q-11 -33 -23 -62q-15 -14 -30 -15t-24.5 5.5t-21.5 13.5 t-22 6q-22 -1 -32.5 12.5t-18 32t-19.5 23.5q-32 13 -102 0q-188 -39 -328 -188q-75 -80 -12 -183q53 -95 168 -104q128 -9 250 76q12 -10 39 -24t44.5 -30t22.5 -41q-5 -67 -73 -100q-134 -72 -275 -47l-23.5 -23.5t-25.5 -27.5q-22 -29 -190 -264q-62 -87 -76 -105 q-5 -5 -17 -15t-18 -16l-12 19l-7 18l-24 -6q-7 20 -20.5 55t-18.5 48zM117 594q-37 -57 14 -135q-2 26 -7 71.5t-7 63.5zM129 664q27 73 31 88q-50 -32 -31 -88z" />
<glyph unicode="&#xa3;" horiz-adv-x="1703" d="M2 63q-9 76 37 170q27 52 76 39q79 -20 129 68q34 62 45 88q158 342 321 705l8 30q-58 2 -155 -35q-28 -9 -146 -67q-9 9 -34 29q-3 0 -43 -5q-15 54 12 129q64 25 138.5 45t172 41.5t148.5 34.5q8 15 23 42t28 49.5t26 41.5q14 22 45 62.5t44 62.5q62 103 204 256 q21 21 52.5 71t52.5 71q62 70 157 120q25 12 95 29q17 3 32 -4q22 -10 150 -70q48 -21 80 -104q12 -29 -17 -76q-40 -29 -69 4q-4 4 -10 6.5t-13 4t-10 2.5q-7 2 -13 6t-12 10l-10 10t-10.5 12t-9.5 11q-87 28 -180 -19q-72 -35 -138 -108q-26 -29 -50.5 -59t-51.5 -70 t-41 -61t-47 -73t-41 -65q-19 -30 -53 -87.5t-41 -68.5q11 -18 34.5 -32t43.5 -28t26 -36q-43 -13 -65 15l-15 -29q4 -8 6 -8q54 -21 60 -25q5 -4 22 -33q-24 -12 -39 -18q-4 1 -27.5 16.5t-41.5 3.5q-6 3 -15.5 9.5t-16.5 10.5t-16 7.5t-19 3t-21 -5.5q-11 -11 -35 -39 l6 39q-41 -36 -31 -74q-4 -14 -14 -39.5t-14 -36.5q-3 -9 -10 -23t-11 -22.5t-6.5 -24.5t4.5 -28q4 -11 -14 -43q-51 -115 -147.5 -326t-123.5 -270q-7 -18 -12 -35q121 -12 279 -82q172 -73 434 -98q154 -12 223 -14q136 -3 213 92q5 7 13 14t20 17t18 16l35 -63 q5 8 10.5 17t12 20t10.5 18q7 -10 17.5 -28t13.5 -23q-23 -118 -144 -179q-172 -86 -342 -53q-7 2 -15.5 3t-18.5 1.5t-15 1.5l70 25v6q-148 20 -176 21q-97 3 -201 28q-5 1 -11 1.5t-15 1t-17 1.5q5 -6 20 -26h-20l-240 86q-46 16 -69.5 23t-63.5 13.5t-74 2.5 q-138 -18 -227 -66l-39 -18q-9 3 -41.5 15t-48.5 19zM586 918q2 0 4.5 -1.5t3.5 -1.5q103 201 139 269q-30 5 -45.5 -5.5t-28 -35t-18.5 -31.5l12 -27zM780 1348q35 2 42.5 3.5t11.5 8.5q2 4 9 20t9.5 21.5t7 19.5t5 23.5t0 22.5t-4.5 26q-48 -91 -80 -145zM1499 27 q31 0 51 12t33 45q-17 -11 -44 -30t-40 -27z" />
<glyph unicode="&#xa4;" horiz-adv-x="1124" d="M0 354q16 36 44 72t54 61.5t58.5 59t52.5 61.5q-35 95 18 226q2 5 6.5 14.5t6.5 15.5t4.5 14.5t1.5 17t-4 17.5h34q-9 13 -25.5 44t-32.5 49t-42 28q-1 -6 -1.5 -13.5t-1 -11.5t-1.5 -8l-37 17q9 15 23 33q-7 9 -23 27t-24 28l41 35l8 -47q7 -3 20.5 -12.5t22.5 -14.5 q1 16 4 40.5t4 33.5q35 17 39 -4q3 -16 21 -18.5t22 -6.5q10 -59 59 -90q60 37 156 37q76 0 149 -49q9 10 27 29.5t30.5 34t22.5 28.5q18 26 51.5 79t40.5 64q30 -6 56 4.5t42 27t38 39.5t39 34q18 -44 34 -78q11 6 31.5 18t30.5 17q15 -5 19.5 -17.5t3 -26.5t1.5 -30 q-189 -167 -383 -440q-4 -82 -43 -136q-5 -8 -8 -26t-4 -21q42 -72 49 -82q104 -132 135 -168q15 -17 19 -26t-2 -33q-39 31 -93.5 106t-84.5 105q-12 0 -35 10q0 -2 -1 -5t-1.5 -4t0.5 -3q88 -122 92 -127q19 -24 90 -109q-25 -18 -57 9q-89 81 -138 135q-12 12 -23 25.5 t-26.5 35t-21.5 29.5q-83 -92 -201 -98l-78 39v-46q-5 -14 -14.5 -22.5t-17.5 -11.5t-23 -7q-4 -1 -21.5 -7.5t-23.5 -9.5t-18 -9.5t-19.5 -15t-13.5 -19.5q-6 -12 -25 -16q-41 -12 -84 -21zM373 631q25 -25 37 -39q100 68 145 164q19 38 8 81.5t-45 69.5 q-59 -51 -91 -117.5t-54 -158.5z" />
<glyph unicode="&#xa5;" horiz-adv-x="1519" d="M0 -393q4 6 19.5 11.5t27.5 15.5t12 32q-33 -8 -47 -10v16q5 10 11 13q17 2 29.5 8.5t23.5 20t15.5 21t14.5 25.5q144 254 216 379q9 15 25 44t26.5 47.5t27 41.5t33.5 39q15 14 29.5 33t23.5 33t23.5 38t21.5 36q5 7 15 30q-28 -14 -43 -24q-1 1 -7.5 6t-9.5 6 q-8 2 -28 2q-102 -4 -154 -4q-9 0 -19 1.5t-24 4.5t-24 4q17 29 18 31l-18 27l16 32q45 -3 140 -10t145 -10l28 49q-94 9 -211 18h209q23 27 55.5 93.5t38.5 97.5q-54 8 -97 3.5t-97 -1t-94 23.5q0 11 -4 43.5t-0.5 54t18.5 40.5q86 10 150 -8q66 -21 135 4q12 4 26 6 t33.5 3.5t30.5 2.5q44 75 127 221t102 178q-47 -19 -78.5 -30t-72 -20t-78 -7.5t-74.5 14.5q-10 -6 -27 -13t-20 -9q-56 12 -72 18q-22 6 -37 25q-11 12 -29 36.5t-22 28.5q-25 35 -35 39q-16 6 -27.5 15t-18 24t-9.5 23.5t-7 30t-5 26.5q-13 47 -10.5 76t22.5 63 q77 -21 148 -114q60 -83 112 -102.5t150 5.5q21 7 57 15q58 15 102 53q26 23 76.5 62t67.5 53q111 101 131 118l43 -21.5t53 -25.5q50 -57 -2 -143q-35 -60 -101.5 -170t-80.5 -133q-122 -195 -146 -234q-7 -12 -15 -39t-15 -39q-3 -4 -4 -8t-2 -6.5t0 -5t1.5 -4t3 -3.5 t3.5 -2.5l5 -2.5l3 -2q7 -3 63 -21q5 25 7 33q10 2 41.5 8t50.5 8q31 3 91.5 6.5t90.5 6.5q1 0 98 20q70 -20 99 -72v-61q-23 -34 -74 -45q-7 -1 -33.5 -5t-34 -4.5t-34 -2.5t-33.5 2q-63 7 -205 -9q-93 -10 -229 -20q-68 -125 -113 -215q7 0 19.5 -1.5t17.5 -0.5 q108 0 219 6q3 0 57 6q95 11 152 -12q39 -15 64 -33.5t38 -54.5q0 -2 -3 -21.5t-5 -31.5l-37 -21q-14 10 -32.5 15t-29.5 6t-36.5 1.5t-32.5 0.5q-40 0 -124.5 1.5t-150 1t-124.5 -4.5q-40 -4 -66 -4l-34.5 -46t-40.5 -58.5t-23 -49.5q-18 -53 -46 -108.5t-67 -122.5 t-57 -103q-25 -50 -53.5 -102t-69.5 -123.5t-57 -100.5q-18 -31 -52 -71q-23 -26 -40 -27.5t-48 21.5q-9 -2 -22.5 -9.5t-23 -12t-23 -3.5t-25.5 12q-5 21 -8 62zM147 -377l13 -8l67 100q-2 1 -5 5l-3 4q-8 -7 -16.5 -15.5t-13 -14t-12.5 -18.5t-10 -16t-11 -19.5t-9 -17.5z M922 915q14 3 31 -0.5t31 -3.5t26 11q-20 31 -40 29.5t-48 -36.5z" />
<glyph unicode="&#xa6;" horiz-adv-x="806" d="M3.5 -347.5q6.5 33.5 23.5 81.5q11 28 19.5 57t18 74.5t13.5 60.5l135 537q6 22 33 88q3 9 28 49q109 -35 121 -39q-6 -7 -16.5 -20.5t-16.5 -20.5q13 -12 56 -45v-6q-11 -9 -20 -19t-16.5 -23.5t-12 -23t-10 -26.5t-8 -25t-7 -27.5t-6.5 -25.5q-19 -72 -54.5 -211.5 t-52.5 -204.5q-9 -37 -30 -105t-29 -97q-2 -6 -2.5 -17.5t-1.5 -15.5l-10 -49l-13 34q-73 -50 -112 -79q-25 6 -29 28q-7 37 -0.5 70.5zM223 188q70 147 86 273q-17 -23 -30 -48.5t-22 -57t-13.5 -52t-11 -60.5t-9.5 -55zM373 846q8 47 26.5 135.5t26.5 130.5q7 34 -2 64 q-7 42 16 57q7 5 12.5 12.5t7 11.5t5.5 17l4 12q80 286 131 461q24 77 55 117l115 -45q38 -51 36 -79t-48 -63q-32 -88 -64 -193.5t-51 -179.5t-51 -199.5t-47 -184.5q7 36 20.5 108.5t20.5 108.5l-8 2q-9 -23 -36 -93t-44 -108q-13 -28 -20.5 -61t-14.5 -76t-12 -66 q-14 7 -16.5 19t0 25t-2.5 30q-4 -21 -9.5 -47t-6.5 -29q-38 -3 -41 33q-5 63 -2 80z" />
<glyph unicode="&#xa7;" horiz-adv-x="659" d="M0.5 485.5q6.5 44.5 56.5 87.5q36 32 54 97q-3 0 -23 4q37 53 89 84.5t132 64.5q-29 65 -43 84q-60 93 -63 228q-3 82 41 165q89 165 223 263q48 38 88 36l14 -28q37 -17 70 -35q12 -36 20 -61q-11 -11 -21 -38t-25 -46.5t-44 -24.5l27 27q-8 2 -20.5 5.5t-22 6 t-18.5 4.5q-101 -120 -129 -156q-65 -89 -64 -152t68 -151q69 -93 135 -235l12 -33q74 -154 -31 -336q-26 -43 -57 -49q-31 -5 -39 0q-5 2 -29 12t-34 15.5t-25 20.5t-23 34l23 86q10 -10 16 -14q2 5 15 36q8 -4 24 -9.5t19 -6.5q16 28 18 58t-5 54t-21 56q-32 18 -43 23 q-19 -5 -21 -7q-10 -8 -67.5 -49.5t-86.5 -66.5q-29 -27 -30 -49t24 -54q17 -23 90 -110q126 -145 170 -246q46 -100 -34 -189q-33 -35 -88.5 -52.5t-106.5 3.5q-13 7 -78 35q0 37 2 49q1 7 6.5 21t6.5 16q2 7 7 21.5t7 21.5q25 0 46 -1.5t43.5 6.5t39.5 26q-19 37 -27 49 q-76 101 -131 168q-10 13 -48.5 59.5t-57.5 73.5q-37 54 -30.5 98.5zM37 420h6v92q-1 0 -3 -1t-3 -1v-90zM227 1118q-14 -53 29 -96q1 8 3 35t5 45.5t8 36.5q12 44 9 104q-47 -107 -54 -125zM283 1251q35 55 47 72q60 93 151 168q24 20 17 43q-35 -15 -69 -43t-51.5 -48.5 t-49.5 -60.5q-38 -48 -45 -131z" />
<glyph unicode="&#xa8;" d="M236 1493q-10 94 61 199l104 -60q16 -62 72 -82l39 -114q1 -18 -9.5 -33.5t-30.5 -33t-28 -28.5q-11 -14 -32 -10q-5 1 -23 4.5t-25 5.5t-22.5 6t-24 8.5t-20.5 11.5t-21 15q-15 14 -24 35t-11 34.5t-5 41.5zM825 1477q9 20 20.5 40.5t30 49.5t25.5 41q32 -11 58.5 -39 t52.5 -59t55 -44q-9 -24 -45 -108q-11 -31 -45 -43q-28 -9 -78.5 4t-69.5 35q-35 44 -4 123z" />
<glyph unicode="&#xa9;" horiz-adv-x="1282" d="M12 205q-28 123 1.5 238t101.5 253q52 91 92 135q19 20 38 45.5t40 56.5t34 48q96 129 191 193q114 78 201 108q174 61 307 -41l117 -88l28 57q5 -3 16 -10.5t17 -9.5q83 -34 86 -133q0 -64 -8 -113q-3 -23 -7.5 -48.5t-11.5 -58t-10 -49.5q-33 -180 -178 -358 q-69 -83 -168 -156q-19 -14 -47 -47.5t-37 -42.5q-58 -54 -112.5 -86.5t-118.5 -40.5q-29 -3 -97 -41q-70 -42 -150 -38t-146 30.5t-111 65.5q-51 46 -68 131zM164 238q8 -38 24 -54t54 -20q112 -17 231 33q303 128 516 407q139 184 139 371q-49 20 -90 39q-11 11 -22 30 q-40 83 -144 80q-5 0 -15 -1t-15 -1q-109 -11 -219 -92q-282 -211 -424 -534q-62 -137 -35 -258zM311 483q4 52 0 70q-15 74 35 131q39 44 61 67.5t58.5 56.5t71.5 56q29 19 63 31q16 8 45 8q58 -1 121.5 -58t71.5 -114q4 -29 -1.5 -52.5t-27.5 -64.5l-37 -8q-4 14 -14.5 39 t-14.5 35q-25 -16 -41 -29q-10 46 -18 72q-12 2 -18 2q-128 -47 -203 -156q-29 -44 -10 -131q3 -18 16.5 -26t40.5 -13l70 56q32 -6 48 -21.5t36 -60.5q-35 -93 -134 -90q-10 0 -37.5 -6t-41.5 -3q-93 21 -123 71t-17 138zM334 504q-21 -97 33 -144q4 39 1 68t-2 65.5 t11 65.5q6 18 20.5 84t32.5 100q-6 -2 -12 -8.5t-8 -7.5q-82 -64 -68 -162q1 -12 -3.5 -34t-4.5 -27zM555 88l6 -6q19 8 111 53q-2 2 -6 10q-56 -27 -111 -57z" />
<glyph unicode="&#xab;" d="M102 653q0 35 19 54q12 14 69 55l-51 -74q4 -13 13 -41t14 -43q-16 20 -37 41q18 -54 27 -86q-57 53 -54 94zM172 596q12 0 14 -2q5 19 15 48.5t12 37.5q-4 38 -8 55q-2 8 -12 29q49 57 129 123q21 17 67 57t72 60q6 3 18 8.5t15 7.5q3 -11 11 -30t11 -29q57 35 72 43 q1 -3 8 -15.5t12 -21.5q-5 -29 -45 -60q-222 -186 -256 -215q-8 -7 -43 -47q16 -19 64 -79.5t75 -90.5q9 -10 12.5 -14t12.5 -11.5t16 -9.5t17.5 -2.5t21.5 4.5q11 -17 25 -41q8 5 27 19q48 -29 51 -90q-10 -20 -25 -41q-44 -66 -112 -31q-15 7 -58 41q-55 47 -80 70 q-6 5 -13 19.5t-9 17.5l-49 79q-10 13 -31 53.5t-37 57.5zM631 655q20 96 92 138q162 103 223 139q6 4 14.5 7.5t18 7t14.5 5.5q64 -73 70 -80q-5 -27 -8 -65q-67 -10 -142 -57q-10 -6 -30 -18.5t-32 -20.5t-28.5 -21.5t-29.5 -27.5q7 -13 31.5 -63t36 -69t35.5 -52.5 t50 -53t58 -31.5l61 -61q0 -10 6 -51q-34 3 -59 8q-14 -21 -25 -43q-3 0 -8.5 -1t-7.5 -1q-61 26 -100.5 55t-63.5 78q-14 26 -45 76t-45 75q-13 24 -49 107q-1 3 -3 6t-5.5 6.5t-4.5 5.5l-22 -10q0 2 -1 6t-1 6zM727 592q16 -109 74 -152q-17 79 -33 108q-16 26 -41 44z M735 750q-10 -58 29 -95q9 30 18 54l19 47q-3 5 -9 16.5t-10 18.5z" />
<glyph unicode="&#xad;" d="M215 588q-7 47 49 84q81 60 189 57q301 -15 485 -55q13 -2 63 -19q2 -5 7 -22.5t8 -24.5q28 -55 18 -85t-65 -58q-252 62 -553 72q-77 4 -125 -27q-35 15 -41 24t-4 44q-12 2 -31 10z" />
<glyph unicode="&#xae;" horiz-adv-x="1200" d="M8 1038q-19 72 4 138q88 252 236 393q221 211 471 264q23 4 69.5 10.5t67.5 9.5l-8 -36l-72 -19q2 -2 2 -6q42 2 125.5 5t124.5 5q54 -52 80.5 -99t19.5 -108q25 -30 27 -32q66 -69 35 -158q-67 -219 -217 -442q-111 -166 -252 -263q-159 -107 -324 -110q-100 -3 -186 61 q-29 21 -53 35q-71 42 -86 94q-4 13 -8.5 39t-8.5 39q-9 35 -26 100.5t-21 79.5zM174 946q23 -83 58.5 -114.5t127.5 -38.5q89 -7 211 41q8 3 25 20q-18 13 -47 32.5t-39 26.5q-5 100 86 146q9 4 18 10.5t20.5 16.5t16.5 14q-4 8 -6 10q-38 -17 -117 -55q-6 -12 -16.5 -39 t-17.5 -40t-25 -26t-45 -14q-8 16 -29 23.5t-40.5 19t-26.5 35.5q25 79 30 92t20.5 43t20.5 47q11 39 28 139t36 152l-4 16q-91 -68 -153 -132t-101 -144q-69 -145 -31 -281zM492 1511q4 -6 36 -43q2 -15 -5 -39t-10 -39t7 -40q24 28 41 45q11 -17 12 -36.5t-3 -43t-3 -35.5 q26 6 105 20q-22 -19 -68 -38q-3 -1 -10 -4l-10.5 -4.5t-9.5 -5t-9 -7t-6 -9t-4 -12.5t0 -16q40 6 112.5 19t104.5 18q81 -39 102 -49q-3 -16 -8.5 -48t-7.5 -44h12q97 141 168 336q9 31 -2 45q-19 30 -8 51q2 4 0 10t-5.5 13t-4.5 10q-6 1 -18.5 2t-18.5 2q-1 14 -4 35.5 t-4 29.5q-101 32 -257 -8t-224 -115z" />
<glyph unicode="&#xb0;" horiz-adv-x="454" d="M2 1243q20 115 72 201q12 23 37 45q46 41 98.5 38.5t93.5 -48.5q43 -49 84 -93q1 -6 2 -18.5t2 -19.5l60 -25q13 -47 -15 -96q-12 -18 -12 -72q0 -58 -21 -96q-31 -56 -80 -76.5t-108 0.5q-131 51 -186 137q-39 57 -27 123zM98 1233q1 -6 1 -20.5t4 -19.5t16 -7v28 q-1 2 -3.5 4l-7.5 6t-10 9zM160 1204q50 -31 94 -24q1 9 4.5 36t6 40t12 33t24.5 34l-20 5t-21 5t-18 3.5t-19.5 1.5t-16.5 -3t-18 -7t-16 -13q-37 -42 -12 -111zM324.5 1171.5q1.5 -10.5 11.5 -22.5q17 54 18 61q2 14 -2 70q-15 -57 -16 -68q-1 -3 -7 -16.5t-4.5 -24z" />
<glyph unicode="&#xb1;" horiz-adv-x="878" d="M-0.5 825q0.5 9 2.5 22.5t6 26.5q90 -25 127 -32q28 -9 58 -6q38 0 108 8q12 20 26 87t46 99q-12 -85 -11 -98q1 -10 -5.5 -27.5t-7 -27.5t12.5 -31q22 42 25 92q2 22 4.5 36t9.5 31.5t21 30.5t35 23q7 -17 18 -49q11 7 19 10q-9 -81 -15 -162q126 10 139 12 q120 18 201 -18q32 -16 37 -21q26 -20 22.5 -50t-34.5 -42q-14 -5 -51 -10q-44 -5 -143 -14.5t-150 -14.5q-13 0 -41 -8l-27 -151l-45 55q-4 -46 -4 -53l-45 -13q1 18 7.5 55t7 56t-10.5 59q-18 -52 -39 -102h-8v92q-40 22 -84 30t-106 9t-87 4q-1 5 -6 22.5t-6.5 24 t-4 21.5t-2 24zM55.5 335q0.5 8 1.5 18t4 20q19 0 40.5 -0.5t40.5 -1.5t39 -8.5t36 -22.5q6 -5 15 -9t22.5 -7.5t17.5 -4.5q189 -50 383 -53h7q31 0 47.5 -1t42.5 -6t46.5 -18t37.5 -34q1 -4 3.5 -21t4.5 -28q-3 -1 -10.5 -7t-10.5 -6q-30 0 -88 2.5t-86 2.5q-15 0 -88 -5 q-183 -19 -455 72q-5 1 -12.5 6t-9.5 6q-1 3 -6.5 17t-7 18t-5.5 16.5t-5 18.5t-3 17t-1.5 19z" />
<glyph unicode="&#xb4;" d="M451 1303q0 35 2 51q8 67 39 94q35 28 67.5 58t69.5 73.5t54 64.5t62 80t54 70l108 148l37 43l103 -70q28 -38 -23 -96q-38 -43 -112.5 -137t-116.5 -140q-83 -96 -193 -188q-58 -48 -117 -56q-2 0 -34 5zM578 1298q14 12 51 41l6 -10q-15 -11 -49 -41q-4 8 -8 10z" />
<glyph unicode="&#xb7;" d="M473 578q3 9 8.5 24.5t8.5 23t6.5 22.5t2.5 23t-3 25q-2 9 1.5 20t11 26t9.5 20q25 11 47.5 9t36.5 -26q10 8 39 29q6 -9 14.5 -25t10.5 -20q3 1 7 3.5t7 4t6 2.5q21 -39 22.5 -55.5t-10.5 -69.5q26 -23 30 -49.5t-15 -64.5q-35 15 -43 18q-9 -9 -25 -29q-22 -3 -42 0.5 t-39 15t-30 20t-32 27.5t-29 26z" />
<glyph unicode="&#xb8;" d="M57 -723q19 19 31 29q3 -6 14 -24t17 -30q7 26 14 62q-26 29 -27.5 39t15.5 35q28 -19 39 -25q5 -4 18 -12.5t19 -12.5q191 39 342 160q28 22 28.5 39t-24.5 43q-24 24 -51 39q-10 7 -82 47q-8 15 -9.5 27t4 23t10.5 17t17.5 17.5t16.5 16.5q-8 5 -21 11t-16 7 q17 37 99 111.5t138 103.5q9 -11 34 -32.5t38 -42.5t12 -52q-5 -28 -29.5 -48t-53.5 -40t-42 -45q12 -13 37 -42t39 -44q43 -45 53 -129q2 -20 -10 -49q-26 -68 -86 -119q-172 -136 -373 -184q-64 -15 -120.5 13t-90.5 91zM469 -176l4 -8q6 4 16 11t13 9q-1 1 -2 4t-2 4 q-12 -7 -29 -20z" />
<glyph unicode="&#xbb;" d="M188 365q5 5 25 20q-8 19 -10 33q10 6 28 18t23 15q-1 5 -2 15.5t-2 16.5l328 166l-80 62q-63 51 -80.5 73t-55.5 99q10 9 16.5 27t15 32t26.5 19q8 -6 37.5 -29.5t40.5 -32.5t35.5 -30.5t39 -35.5t32.5 -34t32 -39q20 -28 20 -47q-2 -22 2.5 -44t13 -49.5t11.5 -41.5 q13 -47 -20 -80q-50 -44 -74 -56q-27 -16 -57.5 -31.5t-69 -34t-57.5 -28.5q-21 -11 -64 -41q-67 -24 -100 29q-4 5 -12.5 9.5t-21 9.5t-20.5 10zM664 289q3 5 8 10.5t7.5 9t2.5 6.5q-3 74 72 115q7 4 70 33.5t94 46.5q11 5 23 12t27.5 16.5t26.5 16.5q-9 9 -29.5 33 t-31.5 35q-23 25 -72.5 73t-73.5 72q-12 13 -24 28t-25.5 33.5t-21.5 28.5q11 52 25.5 87.5t45.5 64.5q11 -9 36.5 -28t39 -30t28.5 -32t21 -46q1 -6 5.5 -13.5t8.5 -12t12.5 -13.5t10.5 -12q12 -12 64 -63t78 -78q69 -72 61.5 -161.5t-88.5 -149.5q-22 -16 -48 -30 t-64.5 -32t-53.5 -26q-31 -15 -39.5 -22.5t-28.5 -37.5q-89 -19 -167 66zM936 375q47 18 61 29t39 45q-19 -1 -34.5 -9.5t-23.5 -16.5t-22 -25t-20 -23z" />
<glyph unicode="&#xbf;" d="M-18 -547q-25 98 84 275q40 61 118 170q203 290 291 555q17 49 41 138t31 111l-25 -6q-61 -94 -61 -145l-47 -41q-10 2 -14.5 6.5t-3.5 13t3 14.5t7 18q1 3 2 5l116 232q6 12 18 24.5t22 20t28 20.5t26 19h7l10 -11l29 25q73 6 84.5 -1.5t-0.5 -61.5q-27 -124 -68 -259 q-6 -20 -29 -70.5t-28 -76.5q-10 -37 -30.5 -84t-36.5 -77t-50 -91t-45 -82q-32 -59 -111 -174.5t-92 -134.5q-34 -50 -76 -129q-23 -47 -10 -90q46 -137 260 -176q15 -4 44.5 -5t31.5 -1q29 16 41.5 30t21.5 35q61 144 45 275q-3 39 -18 57t-51 8q-10 10 -23 24t-18 19 q11 1 35.5 2.5t37.5 3.5t34 5.5t40.5 11t40.5 18.5l-35 25q-9 -1 -27 -5t-28 -6q107 78 158 56q50 -19 41 -70q-2 -17 2 -41q33 -108 -35 -268q-31 -72 -80 -150q-49 -80 -133 -121q-65 -35 -174 -67q-49 -14 -94.5 -13t-74 8t-69.5 23q-47 18 -80 51.5t-50.5 69.5t-32.5 88 zM8 -557q13 -39 58 -96q35 -46 116 -56q20 -2 50 -15.5t38 -16.5q10 -3 76 -13l10 13q-71 12 -118 49.5t-84 95.5q-34 52 -66 135q-26 81 59 205q127 177 156 223q14 23 45.5 71.5t49.5 77.5t40.5 69.5t36.5 74.5q7 17 30 69t33.5 77.5t26 66t25.5 72.5q3 10 12.5 37 t13.5 42t8.5 37t4.5 41q-9 -15 -35.5 -58.5t-41.5 -70t-26 -51.5q-30 -71 -41 -129q-21 -115 -110 -272q-18 -35 -41.5 -71.5t-58.5 -88.5t-48 -72q-11 -15 -48.5 -68.5t-53.5 -78t-38.5 -65.5t-33.5 -74q-67 -80 -45 -160zM295 -70q10 0 16 2q135 176 203 340 q-180 -280 -219 -342zM377 6h12l43 68h-4zM584 825.5q0 -11.5 6 -17.5t-4 -20q50 47 16 64q-18 -15 -18 -26.5zM755.5 -250q2.5 -16 14.5 -26q11 23 10.5 43t-5.5 30.5t-17 26.5q1 -10 -2 -34t-0.5 -40zM756 -348q38 52 14 69q-9 -37 -14 -69zM831 1194v55q6 7 17.5 17 t18 16t14 16.5t6.5 18.5t-4 22q25 3 41 9l-6 28q68 32 131 58q16 -12 21.5 -31t3.5 -36t1 -36q-53 -74 -81 -96.5t-103 -50.5q-38 -12 -60 10z" />
<glyph unicode="&#xd7;" horiz-adv-x="858" d="M8 367q-18 42 12 65q1 0 33 -14q39 24 74.5 57.5t77 81.5t63.5 70l-243 377q3 20 1 38t2 42.5t17 43.5q63 -15 125 -100l190 -252q1 -2 17 -8q21 23 42.5 49.5t38.5 47.5t41.5 52.5t37.5 49t39.5 54.5t36 50t39 55t36.5 52l64 -25l-25 -53l41 -88q13 13 25 28q4 -4 8 -4 q-2 -4 -7 -15t-9.5 -17t-8.5 -7q-11 -3 -19.5 -8.5t-15 -14t-10 -14.5t-9 -18t-7.5 -16q-59 -103 -201 -277q-22 -32 -33 -49q9 -13 27 -39.5t33 -48t30 -39.5q102 -129 207 -258q9 -11 80 -109q-11 -18 -27 -40l25 -33q-28 -36 -59 -15q-47 35 -72 66q-162 191 -256 313 q-13 16 -51 40t-51 50q-6 -6 -18.5 -17t-16.5 -17q-20 -23 -55 -68.5t-48 -60.5q-52 -62 -116 -80q-61 18 -84 24q4 4 16 13q-20 46 -37 86zM414 733q22 15 69 75.5t90 76.5q7 3 23 24q7 8 21.5 25t22.5 26.5t18.5 24.5t17.5 29q2 3 25.5 32.5t23.5 51.5q-83 -66 -193 -196 t-118 -169zM428 666l23 -27l14 6l31 94q-4 1 -10 5l-7 4q-21 -36 -51 -82z" />
<glyph unicode="&#xe0;" horiz-adv-x="989" d="M-80 121q3 103 62 194q84 123 141 189q176 201 366 332q68 46 162 69q15 4 40 18.5t30 16.5q62 30 76 33q29 8 51 -5t47 -42q-5 1 -15 5t-14 5q-1 -3 -4 -15t-4 -20q10 -1 28 -4t25 -4q64 -64 29 -141q-34 -15 -45 -12t-31 32q-3 -1 -8.5 -3.5t-10.5 -5t-9 -5.5 q-3 3 -10.5 8t-10.5 8q-2 3 -6 11.5t-6 13.5q-69 -30 -76 -35q-102 -64 -233 -152q-25 -16 -70.5 -49.5t-52.5 -38.5q-27 -19 -54.5 -45.5t-43.5 -45t-47 -56.5t-42 -51q-7 -9 -14 -21t-16.5 -30.5t-16.5 -30.5q86 47 125 78q289 218 402 301l100 79q7 4 21 11l20 10l31 -70 q9 2 25 11t24 10.5t28 -6.5q17 -24 19.5 -53t-2.5 -47.5t-17 -53.5q-8 -23 -45 -94l-172 -346q-2 -4 -22 -39q-6 8 -7.5 17.5t-1 14t5.5 16t5 13.5q13 32 33 74q44 60 63 119q-4 -4 -14.5 -17t-15.5 -18.5t-13 -17.5t-11.5 -20.5t-6 -21t-2.5 -24.5q-8 -3 -14 -8t-11 -13 t-7.5 -12.5t-7.5 -16t-7 -14.5q-8 -18 -25.5 -53.5t-22.5 -44.5l-32 37q-3 -2 -27 -14q-12 12 -27 24q3 10 12.5 35.5t11 35.5t-0.5 38q-1 5 14 35l97 188q1 3 4 10.5t6.5 16t7.5 18.5l-176 -125q-13 0 -19 -2q-15 5 -22 1.5t-19 -23.5q16 4 31 4q21 -8 35 14q26 12 65 25 q-101 -90 -274 -197q-20 -13 -151 -82q-81 -42 -189 2q-44 17 -41 72zM72 133q41 -15 39 2l-2 6q-11 -4 -37 -8zM147 174q4 -1 14 -5t15 -5q7 13 19 33zM281 1907q22 13 23 38.5t-4.5 45.5t13.5 41q57 -16 93 -53.5t67 -98.5q10 -22 34 -61.5t30 -51.5q20 -33 71 -115.5 t78 -129.5q4 -7 10.5 -23.5t10.5 -23.5q27 -63 49 -93q45 -57 12 -114q-44 -36 -80 16q-7 -2 -31 -12q-2 3 -14.5 18.5t-17.5 24.5q-43 87 -103 190.5t-97.5 163.5t-115.5 182zM422 272q4 -4 4 -8l12 15z" />
<glyph unicode="&#xe1;" horiz-adv-x="1093" d="M-80 121q3 103 62 194q84 123 141 189q176 201 366 332q68 46 162 69q15 4 40 18.5t30 16.5q62 30 76 33q29 8 51 -5t47 -42q-5 1 -15 5t-14 5q-1 -3 -4 -15t-4 -20q10 -1 28 -4t25 -4q64 -64 29 -141q-34 -15 -45 -12t-31 32q-3 -1 -8.5 -3.5t-10.5 -5t-9 -5.5 q-3 3 -10.5 8t-10.5 8q-2 3 -6 11.5t-6 13.5q-69 -30 -76 -35q-102 -64 -233 -152q-25 -16 -70.5 -49.5t-52.5 -38.5q-27 -19 -54.5 -45.5t-43.5 -45t-47 -56.5t-42 -51q-7 -9 -14 -21t-16.5 -30.5t-16.5 -30.5q86 47 125 78q289 218 402 301l100 79q7 4 21 11l20 10l31 -70 q9 2 25 11t24 10.5t28 -6.5q17 -24 19.5 -53t-2.5 -47.5t-17 -53.5q-8 -23 -45 -94l-172 -346q-2 -4 -22 -39q-6 8 -7.5 17.5t-1 14t5.5 16t5 13.5q13 32 33 74q44 60 63 119q-4 -4 -14.5 -17t-15.5 -18.5t-13 -17.5t-11.5 -20.5t-6 -21t-2.5 -24.5q-8 -3 -14 -8t-11 -13 t-7.5 -12.5t-7.5 -16t-7 -14.5q-8 -18 -25.5 -53.5t-22.5 -44.5l-32 37q-3 -2 -27 -14q-12 12 -27 24q3 10 12.5 35.5t11 35.5t-0.5 38q-1 5 14 35l97 188q1 3 4 10.5t6.5 16t7.5 18.5l-176 -125q-13 0 -19 -2q-15 5 -22 1.5t-19 -23.5q16 4 31 4q21 -8 35 14q26 12 65 25 q-101 -90 -274 -197q-20 -13 -151 -82q-81 -42 -189 2q-44 17 -41 72zM72 133q41 -15 39 2l-2 6q-11 -4 -37 -8zM147 174q4 -1 14 -5t15 -5q7 13 19 33zM422 272q4 -4 4 -8l12 15zM451 1303q0 35 2 51q8 67 39 94q35 28 67.5 58t69.5 73.5t54 64.5t62 80t54 70l108 148 l37 43l103 -70q28 -38 -23 -96q-38 -43 -112.5 -137t-116.5 -140q-83 -96 -193 -188q-58 -48 -117 -56q-2 0 -34 5zM578 1298q14 12 51 41l6 -10q-15 -11 -49 -41q-4 8 -8 10z" />
<glyph unicode="&#xe2;" horiz-adv-x="1052" d="M-80 121q3 103 62 194q84 123 141 189q176 201 366 332q68 46 162 69q15 4 40 18.5t30 16.5q62 30 76 33q29 8 51 -5t47 -42q-5 1 -15 5t-14 5q-1 -3 -4 -15t-4 -20q10 -1 28 -4t25 -4q64 -64 29 -141q-34 -15 -45 -12t-31 32q-3 -1 -8.5 -3.5t-10.5 -5t-9 -5.5 q-3 3 -10.5 8t-10.5 8q-2 3 -6 11.5t-6 13.5q-69 -30 -76 -35q-102 -64 -233 -152q-25 -16 -70.5 -49.5t-52.5 -38.5q-27 -19 -54.5 -45.5t-43.5 -45t-47 -56.5t-42 -51q-7 -9 -14 -21t-16.5 -30.5t-16.5 -30.5q86 47 125 78q289 218 402 301l100 79q7 4 21 11l20 10l31 -70 q9 2 25 11t24 10.5t28 -6.5q17 -24 19.5 -53t-2.5 -47.5t-17 -53.5q-8 -23 -45 -94l-172 -346q-2 -4 -22 -39q-6 8 -7.5 17.5t-1 14t5.5 16t5 13.5q13 32 33 74q44 60 63 119q-4 -4 -14.5 -17t-15.5 -18.5t-13 -17.5t-11.5 -20.5t-6 -21t-2.5 -24.5q-8 -3 -14 -8t-11 -13 t-7.5 -12.5t-7.5 -16t-7 -14.5q-8 -18 -25.5 -53.5t-22.5 -44.5l-32 37q-3 -2 -27 -14q-12 12 -27 24q3 10 12.5 35.5t11 35.5t-0.5 38q-1 5 14 35l97 188q1 3 4 10.5t6.5 16t7.5 18.5l-176 -125q-13 0 -19 -2q-15 5 -22 1.5t-19 -23.5q16 4 31 4q21 -8 35 14q26 12 65 25 q-101 -90 -274 -197q-20 -13 -151 -82q-81 -42 -189 2q-44 17 -41 72zM72 133q41 -15 39 2l-2 6q-11 -4 -37 -8zM147 174q4 -1 14 -5t15 -5q7 13 19 33zM233 1243l13 82q6 50 73 109q46 42 187 178q39 39 74 67q41 31 94 2q119 -64 180 -172q26 -45 78 -134t78 -134 q2 -2 6 -20q-12 -7 -43 -29v-62q-17 0 -27 9t-19 25t-14 22q-6 -2 -21 -7.5t-24 -7.5l-204 336q-18 -16 -143 -131t-199 -166l-33 29q-9 1 -27.5 2t-28.5 2zM422 272q4 -4 4 -8l12 15z" />
<glyph unicode="&#xe3;" horiz-adv-x="1316" d="M-80 121q3 103 62 194q84 123 141 189q176 201 366 332q68 46 162 69q15 4 40 18.5t30 16.5q62 30 76 33q29 8 51 -5t47 -42q-5 1 -15 5t-14 5q-1 -3 -4 -15t-4 -20q10 -1 28 -4t25 -4q64 -64 29 -141q-34 -15 -45 -12t-31 32q-3 -1 -8.5 -3.5t-10.5 -5t-9 -5.5 q-3 3 -10.5 8t-10.5 8q-2 3 -6 11.5t-6 13.5q-69 -30 -76 -35q-102 -64 -233 -152q-25 -16 -70.5 -49.5t-52.5 -38.5q-27 -19 -54.5 -45.5t-43.5 -45t-47 -56.5t-42 -51q-7 -9 -14 -21t-16.5 -30.5t-16.5 -30.5q86 47 125 78q289 218 402 301l100 79q7 4 21 11l20 10l31 -70 q9 2 25 11t24 10.5t28 -6.5q17 -24 19.5 -53t-2.5 -47.5t-17 -53.5q-8 -23 -45 -94l-172 -346q-2 -4 -22 -39q-6 8 -7.5 17.5t-1 14t5.5 16t5 13.5q13 32 33 74q44 60 63 119q-4 -4 -14.5 -17t-15.5 -18.5t-13 -17.5t-11.5 -20.5t-6 -21t-2.5 -24.5q-8 -3 -14 -8t-11 -13 t-7.5 -12.5t-7.5 -16t-7 -14.5q-8 -18 -25.5 -53.5t-22.5 -44.5l-32 37q-3 -2 -27 -14q-12 12 -27 24q3 10 12.5 35.5t11 35.5t-0.5 38q-1 5 14 35l97 188q1 3 4 10.5t6.5 16t7.5 18.5l-176 -125q-13 0 -19 -2q-15 5 -22 1.5t-19 -23.5q16 4 31 4q21 -8 35 14q26 12 65 25 q-101 -90 -274 -197q-20 -13 -151 -82q-81 -42 -189 2q-44 17 -41 72zM37 1417q8 21 40 37t40 25q-6 15 -17 15t-21 -5.5t-20 2.5q-4 35 37 68q116 95 248 112q64 9 123 -31l104 -75q58 -45 123 -54q151 -19 289 7q123 21 176 102q4 -3 10.5 -9t10.5 -9q-17 -26 -23 -33 l6 -8l74 38q1 -1 43 -49q-34 -140 -166 -184q-196 -67 -399 -23q-154 31 -242 117q-65 62 -139 21q-78 -38 -158 -90q-30 -22 -46.5 -19.5t-37.5 35.5l-33 -10q-12 12 -22 20zM72 133q41 -15 39 2l-2 6q-11 -4 -37 -8zM147 174q4 -1 14 -5t15 -5q7 13 19 33zM367 1556 q15 -6 39 -13.5t32 -10.5q-9 12 -14 17t-14.5 11.5t-20 5t-22.5 -9.5zM422 272q4 -4 4 -8l12 15z" />
<glyph unicode="&#xe4;" horiz-adv-x="1103" d="M-80 121q3 103 62 194q84 123 141 189q176 201 366 332q68 46 162 69q15 4 40 18.5t30 16.5q62 30 76 33q29 8 51 -5t47 -42q-5 1 -15 5t-14 5q-1 -3 -4 -15t-4 -20q10 -1 28 -4t25 -4q64 -64 29 -141q-34 -15 -45 -12t-31 32q-3 -1 -8.5 -3.5t-10.5 -5t-9 -5.5 q-3 3 -10.5 8t-10.5 8q-2 3 -6 11.5t-6 13.5q-69 -30 -76 -35q-102 -64 -233 -152q-25 -16 -70.5 -49.5t-52.5 -38.5q-27 -19 -54.5 -45.5t-43.5 -45t-47 -56.5t-42 -51q-7 -9 -14 -21t-16.5 -30.5t-16.5 -30.5q86 47 125 78q289 218 402 301l100 79q7 4 21 11l20 10l31 -70 q9 2 25 11t24 10.5t28 -6.5q17 -24 19.5 -53t-2.5 -47.5t-17 -53.5q-8 -23 -45 -94l-172 -346q-2 -4 -22 -39q-6 8 -7.5 17.5t-1 14t5.5 16t5 13.5q13 32 33 74q44 60 63 119q-4 -4 -14.5 -17t-15.5 -18.5t-13 -17.5t-11.5 -20.5t-6 -21t-2.5 -24.5q-8 -3 -14 -8t-11 -13 t-7.5 -12.5t-7.5 -16t-7 -14.5q-8 -18 -25.5 -53.5t-22.5 -44.5l-32 37q-3 -2 -27 -14q-12 12 -27 24q3 10 12.5 35.5t11 35.5t-0.5 38q-1 5 14 35l97 188q1 3 4 10.5t6.5 16t7.5 18.5l-176 -125q-13 0 -19 -2q-15 5 -22 1.5t-19 -23.5q16 4 31 4q21 -8 35 14q26 12 65 25 q-101 -90 -274 -197q-20 -13 -151 -82q-81 -42 -189 2q-44 17 -41 72zM72 133q41 -15 39 2l-2 6q-11 -4 -37 -8zM147 174q4 -1 14 -5t15 -5q7 13 19 33zM236 1493q-10 94 61 199l104 -60q16 -62 72 -82l39 -114q1 -18 -9.5 -33.5t-30.5 -33t-28 -28.5q-11 -14 -32 -10 q-5 1 -23 4.5t-25 5.5t-22.5 6t-24 8.5t-20.5 11.5t-21 15q-15 14 -24 35t-11 34.5t-5 41.5zM422 272q4 -4 4 -8l12 15zM825 1477q9 20 20.5 40.5t30 49.5t25.5 41q32 -11 58.5 -39t52.5 -59t55 -44q-9 -24 -45 -108q-11 -31 -45 -43q-28 -9 -78.5 4t-69.5 35q-35 44 -4 123 z" />
<glyph unicode="&#xe5;" horiz-adv-x="989" d="M-80 121q3 103 62 194q84 123 141 189q176 201 366 332q68 46 162 69q15 4 40 18.5t30 16.5q62 30 76 33q29 8 51 -5t47 -42q-5 1 -15 5t-14 5q-1 -3 -4 -15t-4 -20q10 -1 28 -4t25 -4q64 -64 29 -141q-34 -15 -45 -12t-31 32q-3 -1 -8.5 -3.5t-10.5 -5t-9 -5.5 q-3 3 -10.5 8t-10.5 8q-2 3 -6 11.5t-6 13.5q-69 -30 -76 -35q-102 -64 -233 -152q-25 -16 -70.5 -49.5t-52.5 -38.5q-27 -19 -54.5 -45.5t-43.5 -45t-47 -56.5t-42 -51q-7 -9 -14 -21t-16.5 -30.5t-16.5 -30.5q86 47 125 78q289 218 402 301l100 79q7 4 21 11l20 10l31 -70 q9 2 25 11t24 10.5t28 -6.5q17 -24 19.5 -53t-2.5 -47.5t-17 -53.5q-8 -23 -45 -94l-172 -346q-2 -4 -22 -39q-6 8 -7.5 17.5t-1 14t5.5 16t5 13.5q13 32 33 74q44 60 63 119q-4 -4 -14.5 -17t-15.5 -18.5t-13 -17.5t-11.5 -20.5t-6 -21t-2.5 -24.5q-8 -3 -14 -8t-11 -13 t-7.5 -12.5t-7.5 -16t-7 -14.5q-8 -18 -25.5 -53.5t-22.5 -44.5l-32 37q-3 -2 -27 -14q-12 12 -27 24q3 10 12.5 35.5t11 35.5t-0.5 38q-1 5 14 35l97 188q1 3 4 10.5t6.5 16t7.5 18.5l-176 -125q-13 0 -19 -2q-15 5 -22 1.5t-19 -23.5q16 4 31 4q21 -8 35 14q26 12 65 25 q-101 -90 -274 -197q-20 -13 -151 -82q-81 -42 -189 2q-44 17 -41 72zM72 133q41 -15 39 2l-2 6q-11 -4 -37 -8zM147 174q4 -1 14 -5t15 -5q7 13 19 33zM422 272q4 -4 4 -8l12 15zM491 1400.5q-22 76.5 3 139.5q1 4 25 49.5t26 75.5q4 36 51 63.5t88 22.5q14 -2 47 -10 l33 28q9 -8 28.5 -22.5t26.5 -20.5q5 -14 12 -47q2 3 19 31q3 -28 18.5 -92.5t14.5 -101.5q0 -29 -13 -37q-11 -9 -17 -21.5t-10.5 -30t-8.5 -26.5q-36 -89 -54 -117q-23 -36 -59 -45t-74 10q-41 18 -78 39q-56 36 -78 112.5zM557 1464q16 13 17 22t-17 23v-45zM645.5 1504 q-9.5 -36 18.5 -77q38 46 38 138q-47 -25 -56.5 -61z" />
<glyph unicode="&#xe7;" horiz-adv-x="1001" d="M-45 -569q13 13 31 28q2 -5 13 -23t17 -30q11 43 15 62q-27 30 -28.5 39t15.5 34q18 -12 39 -24q5 -4 18 -12.5t19 -12.5q191 39 342 160q28 22 28.5 39t-24.5 43q-24 24 -51 39q-10 7 -82 47q-8 15 -9.5 27t4 22.5t10.5 17t17 17.5t17 16q-7 4 -37 19q17 37 99.5 111.5 t138.5 103.5q9 -11 34 -32.5t38 -42.5t12 -52q-5 -28 -29.5 -48t-53.5 -40t-42 -45q12 -13 37 -42.5t39 -44.5q43 -45 53 -129q2 -20 -10 -49q-26 -67 -86 -118q-174 -138 -373 -185q-64 -15 -120.5 13.5t-90.5 91.5zM41 248q6 36 6 37q-5 96 68 200q4 6 10 18.5t10 18.5 q1 1 5.5 4.5t5.5 4.5l5 5t4.5 5.5t3.5 6.5t1.5 7t-0.5 8q1 1 1.5 2t1.5 2t3 2q40 16 49 58l47 43q18 6 21 8q19 16 59 48t59 48q8 6 50 43q2 2 4.5 3.5t4 2.5t1.5 2q-1 14 4 24.5t10.5 14t19.5 9.5t17 8q87 50 215 77q12 2 36.5 3.5t29.5 1.5q27 0 41 -17q19 -24 65 -31 q57 -9 88.5 -60t16.5 -105q-1 -2 -2.5 -7t-2 -7t-2.5 -6.5t-3.5 -6.5t-4 -5.5t-5.5 -5.5t-6.5 -4t-8.5 -3q-12 -3 -21 2t-26 26l-21 -14q-1 2 -8.5 12.5t-9.5 16.5q-2 3 -1.5 10t-0.5 12q-2 29 -14.5 40.5t-41.5 10.5q-74 -3 -153 -35q-70 -26 -107 -49q-99 -60 -167.5 -110 t-123.5 -113q-77 -89 -120 -199q-3 -7 -17 -71q51 -9 58 -8q279 15 487 180q17 13 32.5 29t35 38.5t30.5 34.5q5 -7 27.5 -14t30.5 -21q4 0 7.5 -1t5.5 -2t4 -4.5t3 -5.5t2.5 -7t1.5 -6q4 -29 0 -41q-12 -43 -69 -103q-82 -84 -232 -149t-287 -76q-71 -4 -104 14 q-14 7 -27 7q-129 12 -102 139zM59 233q-6 -36 2.5 -51t47.5 -35q-26 46 -50 86zM367 -23l4 -8q4 4 9 7.5t10.5 7.5t8.5 6q-1 1 -2 4t-2 4z" />
<glyph unicode="&#xe8;" horiz-adv-x="913" d="M-27 451q1 7 2 25.5t2 27.5q27 19 43 33l-2 -2q29 -4 65 -0.5t62 20.5q28 14 35 23q55 61 133 110q79 57 115 107q17 25 43 45q41 31 104 73q30 20 134 78q43 24 86 0q11 -6 30.5 -15t22.5 -11q-5 -3 -11 -0.5t-11.5 -2t-4.5 -20.5l27 23q44 -23 54.5 -54t-9.5 -75 q-20 -47 -70 -93q-89 -83 -266 -186q-41 -24 -88.5 -45t-108.5 -45t-90 -37l-30 -12q2 -82 52 -121.5t167 -48.5q-3 3 -7.5 9t-7.5 9q106 20 123 25q22 6 63 22t58 21q26 -16 57 -41q29 -23 29 -55.5t-31 -49.5q-113 -67 -245 -67h-74q-18 0 -38 4t-34 9t-37 13.5t-34 12.5 l12 18q-11 8 -48 45.5t-67 46.5q-5 2 -10.5 7t-11.5 13t-9 11q-19 22 -41 51q-5 6 -10 27q-1 9 -2 26.5t-2 26.5q-11 1 -38 -5t-46 -2t-35 26zM187 396.5q-1 -2.5 0.5 -8.5t2 -7.5t3.5 -9.5q2 19 6 37q-5 -2 -8 -5.5t-4 -6zM281 1907q22 13 23 38.5t-4.5 45.5t13.5 41 q57 -16 93 -53.5t67 -98.5q10 -22 34 -61.5t30 -51.5q20 -33 71 -115.5t78 -129.5q4 -7 10.5 -23.5t10.5 -23.5q27 -63 49 -93q45 -57 12 -114q-44 -36 -80 16q-7 -2 -31 -12q-2 3 -14.5 18.5t-17.5 24.5q-43 87 -103 190.5t-97.5 163.5t-115.5 182zM375 610q57 21 116.5 58 t88.5 67l-7 25q-111 -63 -198 -150z" />
<glyph unicode="&#xe9;" horiz-adv-x="1062" d="M-27 451q1 7 2 25.5t2 27.5q27 19 43 33l-2 -2q29 -4 65 -0.5t62 20.5q28 14 35 23q55 61 133 110q79 57 115 107q17 25 43 45q41 31 104 73q30 20 134 78q43 24 86 0q11 -6 30.5 -15t22.5 -11q-5 -3 -11 -0.5t-11.5 -2t-4.5 -20.5l27 23q44 -23 54.5 -54t-9.5 -75 q-20 -47 -70 -93q-89 -83 -266 -186q-41 -24 -88.5 -45t-108.5 -45t-90 -37l-30 -12q2 -82 52 -121.5t167 -48.5q-3 3 -7.5 9t-7.5 9q106 20 123 25q22 6 63 22t58 21q26 -16 57 -41q29 -23 29 -55.5t-31 -49.5q-113 -67 -245 -67h-74q-18 0 -38 4t-34 9t-37 13.5t-34 12.5 l12 18q-11 8 -48 45.5t-67 46.5q-5 2 -10.5 7t-11.5 13t-9 11q-19 22 -41 51q-5 6 -10 27q-1 9 -2 26.5t-2 26.5q-11 1 -38 -5t-46 -2t-35 26zM187 396.5q-1 -2.5 0.5 -8.5t2 -7.5t3.5 -9.5q2 19 6 37q-5 -2 -8 -5.5t-4 -6zM375 610q57 21 116.5 58t88.5 67l-7 25 q-111 -63 -198 -150zM451 1303q0 35 2 51q8 67 39 94q35 28 67.5 58t69.5 73.5t54 64.5t62 80t54 70l108 148l37 43l103 -70q28 -38 -23 -96q-38 -43 -112.5 -137t-116.5 -140q-83 -96 -193 -188q-58 -48 -117 -56q-2 0 -34 5zM578 1298q14 12 51 41l6 -10q-15 -11 -49 -41 q-4 8 -8 10z" />
<glyph unicode="&#xea;" horiz-adv-x="1021" d="M-27 451q1 7 2 25.5t2 27.5q27 19 43 33l-2 -2q29 -4 65 -0.5t62 20.5q28 14 35 23q55 61 133 110q79 57 115 107q17 25 43 45q41 31 104 73q30 20 134 78q43 24 86 0q11 -6 30.5 -15t22.5 -11q-5 -3 -11 -0.5t-11.5 -2t-4.5 -20.5l27 23q44 -23 54.5 -54t-9.5 -75 q-20 -47 -70 -93q-89 -83 -266 -186q-41 -24 -88.5 -45t-108.5 -45t-90 -37l-30 -12q2 -82 52 -121.5t167 -48.5q-3 3 -7.5 9t-7.5 9q106 20 123 25q22 6 63 22t58 21q26 -16 57 -41q29 -23 29 -55.5t-31 -49.5q-113 -67 -245 -67h-74q-18 0 -38 4t-34 9t-37 13.5t-34 12.5 l12 18q-11 8 -48 45.5t-67 46.5q-5 2 -10.5 7t-11.5 13t-9 11q-19 22 -41 51q-5 6 -10 27q-1 9 -2 26.5t-2 26.5q-11 1 -38 -5t-46 -2t-35 26zM187 396.5q-1 -2.5 0.5 -8.5t2 -7.5t3.5 -9.5q2 19 6 37q-5 -2 -8 -5.5t-4 -6zM233 1243l13 82q6 50 73 109q46 42 187 178 q39 39 74 67q41 31 94 2q119 -64 180 -172q26 -45 78 -134t78 -134q2 -2 6 -20q-12 -7 -43 -29v-62q-17 0 -27 9t-19 25t-14 22q-6 -2 -21 -7.5t-24 -7.5l-204 336q-18 -16 -143 -131t-199 -166l-33 29q-9 1 -27.5 2t-28.5 2zM375 610q57 21 116.5 58t88.5 67l-7 25 q-111 -63 -198 -150z" />
<glyph unicode="&#xeb;" horiz-adv-x="1073" d="M-27 451q1 7 2 25.5t2 27.5q27 19 43 33l-2 -2q29 -4 65 -0.5t62 20.5q28 14 35 23q55 61 133 110q79 57 115 107q17 25 43 45q41 31 104 73q30 20 134 78q43 24 86 0q11 -6 30.5 -15t22.5 -11q-5 -3 -11 -0.5t-11.5 -2t-4.5 -20.5l27 23q44 -23 54.5 -54t-9.5 -75 q-20 -47 -70 -93q-89 -83 -266 -186q-41 -24 -88.5 -45t-108.5 -45t-90 -37l-30 -12q2 -82 52 -121.5t167 -48.5q-3 3 -7.5 9t-7.5 9q106 20 123 25q22 6 63 22t58 21q26 -16 57 -41q29 -23 29 -55.5t-31 -49.5q-113 -67 -245 -67h-74q-18 0 -38 4t-34 9t-37 13.5t-34 12.5 l12 18q-11 8 -48 45.5t-67 46.5q-5 2 -10.5 7t-11.5 13t-9 11q-19 22 -41 51q-5 6 -10 27q-1 9 -2 26.5t-2 26.5q-11 1 -38 -5t-46 -2t-35 26zM187 396.5q-1 -2.5 0.5 -8.5t2 -7.5t3.5 -9.5q2 19 6 37q-5 -2 -8 -5.5t-4 -6zM236 1493q-10 94 61 199l104 -60q16 -62 72 -82 l39 -114q1 -18 -9.5 -33.5t-30.5 -33t-28 -28.5q-11 -14 -32 -10q-5 1 -23 4.5t-25 5.5t-22.5 6t-24 8.5t-20.5 11.5t-21 15q-15 14 -24 35t-11 34.5t-5 41.5zM375 610q57 21 116.5 58t88.5 67l-7 25q-111 -63 -198 -150zM825 1477q9 20 20.5 40.5t30 49.5t25.5 41 q32 -11 58.5 -39t52.5 -59t55 -44q-9 -24 -45 -108q-11 -31 -45 -43q-28 -9 -78.5 4t-69.5 35q-35 44 -4 123z" />
<glyph unicode="&#xec;" horiz-adv-x="606" d="M27 1733q22 13 23 38.5t-4.5 45.5t13.5 41q57 -16 93 -53.5t67 -98.5q10 -22 34 -61.5t30 -51.5q20 -33 71 -115.5t78 -129.5q4 -7 10.5 -24t10.5 -24q26 -60 49 -92q45 -57 12 -114q-44 -36 -80 16q-7 -2 -31 -12q-2 3 -14.5 18.5t-17.5 24.5q-43 87 -103 190.5 t-97.5 163.5t-115.5 182q-4 7 -8.5 16l-10.5 21t-9 19zM35 193q-1 52 4 92q8 96 44 187t97 202q7 14 19.5 40.5t19.5 39.5q22 49 62 86q4 -4 24 -12.5t25 -12.5q-10 -9 -32.5 -26.5t-35.5 -28.5l23 -15q13 13 22 25q4 6 17 4.5t14 7.5q11 22 29 13q9 -28 6.5 -40.5 t-21.5 -29.5q-14 -14 -26 -35q-6 -9 -20 -34.5t-23 -39.5l-9 23q-63 -127 -79 -168q-5 -11 -5 -65v-25q-6 -13 -9.5 -29.5t-5 -26t-3 -31.5t-2.5 -28q-8 -69 14 -147q0 -6 9 -19q42 3 59 35l-12 4l61 54q5 -9 1.5 -12.5l-12 -12t-9.5 -16.5q31 -8 77 -5q-7 -8 -17 -23 t-15 -20q-13 -11 -38.5 -29t-35.5 -26q-3 -2 -7.5 -5.5t-6.5 -4.5q-57 -33 -111.5 -15.5t-75.5 78.5q-15 39 -16 91z" />
<glyph unicode="&#xed;" horiz-adv-x="1048" d="M27 193q-1 52 4 92q8 96 44 187t97 202q7 14 19.5 40.5t19.5 39.5q23 51 61 86q4 -4 24.5 -12.5t25.5 -12.5q-10 -9 -32.5 -26.5t-35.5 -28.5l22 -15q17 17 23 25q4 6 17 4.5t14 7.5q11 22 28 13q9 -28 6.5 -40.5t-20.5 -29.5q-16 -16 -27 -35q-6 -9 -20 -34.5t-23 -39.5 l-8 23q-68 -139 -80 -168q-4 -8 -5 -17.5t0 -26.5t1 -21v-25q-6 -13 -9.5 -29.5t-5 -26t-3 -31.5t-2.5 -28q-8 -69 14 -147q0 -7 8 -19q43 3 60 35l-13 4l62 54q5 -9 1 -12.5t-12.5 -12t-9.5 -16.5q31 -8 78 -5q-7 -8 -17.5 -23t-15.5 -20q-14 -11 -38.5 -29t-34.5 -26 l-15 -10q-57 -33 -110.5 -15.5t-75.5 78.5q-15 39 -16 91zM365 1139q0 35 2 51q8 67 39 94q35 28 67.5 58t69.5 73.5t54 64.5t62 80t54 70l108 148l37 43l103 -70q28 -38 -23 -96q-38 -43 -112.5 -137t-116.5 -140q-83 -96 -193 -188q-57 -47 -117 -55q-5 -1 -34 4z M492 1135q14 12 51 41l6 -11q-15 -11 -49 -41q-5 9 -8 11z" />
<glyph unicode="&#xee;" horiz-adv-x="886" d="M27 1141l12 82q3 22 15.5 43t24 33t34.5 32q30 28 186 178q44 44 74 68q41 31 94 2q119 -64 180 -172q26 -45 78 -134t78 -134q1 -2 6 -21q-19 -11 -43 -28v-62q-17 0 -26.5 8.5t-18.5 24.5t-14 22q-5 -1 -20.5 -6.5t-24.5 -7.5l-205 336q-18 -16 -143 -131t-199 -166 l-33 29q-9 1 -27 2t-28 2zM107 193q-1 52 4 92q8 96 44 187t97 202q7 14 19.5 40.5t19.5 39.5q23 51 61 86q4 -4 24 -12.5t25 -12.5q-11 -10 -33 -27.5t-34 -27.5l22 -15q17 17 23 25q4 6 17 4.5t14 7.5q11 22 28 13q9 -28 6.5 -40.5t-20.5 -29.5q-16 -16 -27 -35 q-6 -9 -20 -34.5t-23 -39.5l-8 23q-68 -139 -80 -168q-4 -8 -5 -17.5t0 -26.5t1 -21v-25q-6 -13 -9.5 -29.5t-5 -26t-3 -31.5t-2.5 -28q-8 -69 14 -147q0 -7 8 -19q43 3 60 35l-13 4l62 54q5 -9 1 -12.5t-12.5 -12t-9.5 -16.5q31 -8 78 -5q-7 -8 -17.5 -23t-15.5 -20 q-14 -11 -38.5 -29t-34.5 -26l-15 -10q-57 -33 -110.5 -15.5t-75.5 78.5q-15 39 -16 91z" />
<glyph unicode="&#xef;" horiz-adv-x="937" d="M29 1311q-10 93 61 198l105 -59q16 -62 71 -82l39 -115q1 -18 -9.5 -33.5t-30 -32.5t-27.5 -28q-11 -14 -33 -10q-4 1 -23 5t-25 5t-21.5 5.5t-24 9t-20.5 11.5t-21 15q-22 21 -29.5 46t-11.5 65zM150 193q-1 52 4 92q8 96 44 187t97 202q7 14 19.5 40.5t19.5 39.5 q23 51 61 86q4 -4 24 -12.5t25 -12.5q-11 -10 -33 -27.5t-34 -27.5l22 -15q17 17 23 25q4 6 17 4.5t14 7.5q11 22 28 13q9 -28 6.5 -40.5t-20.5 -29.5q-16 -16 -27 -35q-6 -9 -20 -34.5t-23 -39.5l-8 23q-68 -139 -80 -168q-4 -8 -5 -17.5t0 -26.5t1 -21v-25 q-6 -13 -9.5 -29.5t-5 -26t-3 -31.5t-2.5 -28q-8 -69 14 -147q0 -7 8 -19q43 3 60 35l-13 4l62 54q5 -9 1 -12.5t-12.5 -12t-9.5 -16.5q31 -8 78 -5q-7 -8 -17.5 -23t-15.5 -20q-14 -11 -38.5 -29t-34.5 -26l-15 -10q-57 -33 -110.5 -15.5t-75.5 78.5q-15 39 -16 91z M618 1294q9 20 20.5 40.5t30 49.5t25.5 41q40 -13 87 -69.5t79 -71.5q-9 -24 -45 -108q-11 -31 -45 -43q-28 -9 -78 3.5t-69 34.5q-36 45 -5 123z" />
<glyph unicode="&#xf1;" horiz-adv-x="1263" d="M37 1417q8 21 40 37t40 25q-6 15 -17 15t-21 -5.5t-20 2.5q-4 35 37 68q116 95 248 112q64 9 123 -31l104 -75q58 -45 123 -54q151 -19 289 7q123 21 176 102q4 -3 10.5 -9t10.5 -9q-17 -26 -23 -33l6 -8l74 38q1 -1 43 -49q-34 -140 -166 -184q-196 -67 -399 -23 q-154 31 -242 117q-65 62 -139 21q-78 -38 -158 -90q-30 -22 -46.5 -19.5t-37.5 35.5l-33 -10q-12 12 -22 20zM59 268q5 31 27 123q5 25 13 49t20.5 52.5t20 44.5t25.5 50.5t23 45.5l56 104q-1 0 -9 -1t-14 -1q62 118 98 163q15 19 31 36q15 -13 31 -31q-36 -32 -51 -47 q11 -17 13 -40t0.5 -36.5t-7.5 -42.5q14 20 45.5 62t48.5 67q4 -16 4 -26q0 -3 -2.5 -8t-4.5 -8.5t-1 -4.5q7 -10 9 -19.5t1.5 -16t-6 -16t-8 -13.5t-12 -14.5t-11.5 -12.5q-23 -33 -32 -70l110 56q-4 -11 -9.5 -25.5t-8.5 -23.5q44 14 90 32q-15 12 -25 17q37 51 89 63 t95.5 -7.5t69.5 -57.5q64 -94 39 -195q-23 -87 -106 -416l-25 -96q-8 -38 -2 -55q14 -58 -33 -105q-50 -24 -80 11q-2 3 -24 14q-29 14 -38 30.5t-3 47.5l53 219q16 72 49 182q1 4 4.5 20.5t5.5 23.5t6 19.5t10.5 22t14.5 17.5q10 7 10 24q13 38 19 74q1 10 -4 65 q-40 6 -90 -16q-252 -116 -439 -330q-24 -29 -41 -35q-23 -9 -35 0.5t-10 34.5zM248 739q29 13 16 35q-2 -4 -4.5 -7t-6 -6.5t-5.5 -6.5v-15zM367 1556q15 -6 39 -13.5t32 -10.5q-9 12 -14 17t-14.5 11.5t-20 5t-22.5 -9.5z" />
<glyph unicode="&#xf2;" horiz-adv-x="782" d="M-23 254q-3 44 7 92q41 191 143 311q14 16 49 61t57 68q37 37 89 64q36 20 53 55q33 72 139 84q42 7 66 -47q7 -4 21.5 -11.5t21 -12t10.5 -9.5q8 -14 11 -20.5t8 -19t4.5 -23.5t-5.5 -21q-4 -8 -6 -16.5t-3 -14t0 -16.5t1 -13.5t3 -16.5t3 -15q29 -114 17 -237 q-7 -75 -68 -177q-66 -113 -184 -180q-89 21 -150 -4q-46 -20 -71 -26q-47 -13 -85.5 -4.5t-66.5 32.5t-44.5 54.5t-19.5 62.5zM70 422q15 27 40 53t43 41t52 41q65 50 92 92q13 21 63 64q54 47 70 63q18 18 55 68l-16 22q-38 -24 -88 -59q-41 -27 -102.5 -92.5t-90.5 -89.5 q-21 -18 -40 -45.5t-28.5 -46t-26.5 -59t-23 -52.5zM125 248q9 -1 45 -7.5t55 -9.5q0 -4 -2 -6h-90q26 -51 76 -37q10 2 37 10.5t43 10.5q75 14 127 82q6 8 51.5 58.5t60.5 84.5q1 2 25 2q24 32 26.5 82t-4.5 96q-37 -110 -43 -129q40 152 -18 316l-8 -39q-8 12 -10 18h-11 q-77 -49 -202 -174q-10 -10 -19.5 -20t-19.5 -23.5t-16 -21.5t-17 -25t-14.5 -22.5t-16 -26t-14.5 -23.5q-63 -96 -41 -196zM281 1907q22 13 23 38.5t-4.5 45.5t13.5 41q57 -16 93 -53.5t67 -98.5q10 -22 34 -61.5t30 -51.5q20 -33 71 -115.5t78 -129.5q4 -7 10.5 -23.5 t10.5 -23.5q27 -63 49 -93q45 -57 12 -114q-44 -36 -80 16q-7 -2 -31 -12q-2 3 -14.5 18.5t-17.5 24.5q-43 87 -103 190.5t-97.5 163.5t-115.5 182z" />
<glyph unicode="&#xf3;" horiz-adv-x="1056" d="M-23 254q-3 44 7 92q41 191 143 311q14 16 49 61t57 68q37 37 89 64q36 20 53 55q33 72 139 84q42 7 66 -47q7 -4 21.5 -11.5t21 -12t10.5 -9.5q8 -14 11 -20.5t8 -19t4.5 -23.5t-5.5 -21q-4 -8 -6 -16.5t-3 -14t0 -16.5t1 -13.5t3 -16.5t3 -15q29 -114 17 -237 q-7 -75 -68 -177q-66 -113 -184 -180q-89 21 -150 -4q-46 -20 -71 -26q-47 -13 -85.5 -4.5t-66.5 32.5t-44.5 54.5t-19.5 62.5zM70 422q15 27 40 53t43 41t52 41q65 50 92 92q13 21 63 64q54 47 70 63q18 18 55 68l-16 22q-38 -24 -88 -59q-41 -27 -102.5 -92.5t-90.5 -89.5 q-21 -18 -40 -45.5t-28.5 -46t-26.5 -59t-23 -52.5zM125 248q9 -1 45 -7.5t55 -9.5q0 -4 -2 -6h-90q26 -51 76 -37q10 2 37 10.5t43 10.5q75 14 127 82q6 8 51.5 58.5t60.5 84.5q1 2 25 2q24 32 26.5 82t-4.5 96q-37 -110 -43 -129q40 152 -18 316l-8 -39q-8 12 -10 18h-11 q-77 -49 -202 -174q-10 -10 -19.5 -20t-19.5 -23.5t-16 -21.5t-17 -25t-14.5 -22.5t-16 -26t-14.5 -23.5q-63 -96 -41 -196zM451 1303q0 35 2 51q8 67 39 94q35 28 67.5 58t69.5 73.5t54 64.5t62 80t54 70l108 148l37 43l103 -70q28 -38 -23 -96q-38 -43 -112.5 -137 t-116.5 -140q-83 -96 -193 -188q-58 -48 -117 -56q-2 0 -34 5zM578 1298q14 12 51 41l6 -10q-15 -11 -49 -41q-4 8 -8 10z" />
<glyph unicode="&#xf4;" horiz-adv-x="1015" d="M-23 254q-3 44 7 92q41 191 143 311q14 16 49 61t57 68q37 37 89 64q36 20 53 55q33 72 139 84q42 7 66 -47q7 -4 21.5 -11.5t21 -12t10.5 -9.5q8 -14 11 -20.5t8 -19t4.5 -23.5t-5.5 -21q-4 -8 -6 -16.5t-3 -14t0 -16.5t1 -13.5t3 -16.5t3 -15q29 -114 17 -237 q-7 -75 -68 -177q-66 -113 -184 -180q-89 21 -150 -4q-46 -20 -71 -26q-47 -13 -85.5 -4.5t-66.5 32.5t-44.5 54.5t-19.5 62.5zM70 422q15 27 40 53t43 41t52 41q65 50 92 92q13 21 63 64q54 47 70 63q18 18 55 68l-16 22q-38 -24 -88 -59q-41 -27 -102.5 -92.5t-90.5 -89.5 q-21 -18 -40 -45.5t-28.5 -46t-26.5 -59t-23 -52.5zM125 248q9 -1 45 -7.5t55 -9.5q0 -4 -2 -6h-90q26 -51 76 -37q10 2 37 10.5t43 10.5q75 14 127 82q6 8 51.5 58.5t60.5 84.5q1 2 25 2q24 32 26.5 82t-4.5 96q-37 -110 -43 -129q40 152 -18 316l-8 -39q-8 12 -10 18h-11 q-77 -49 -202 -174q-10 -10 -19.5 -20t-19.5 -23.5t-16 -21.5t-17 -25t-14.5 -22.5t-16 -26t-14.5 -23.5q-63 -96 -41 -196zM233 1243l13 82q6 50 73 109q46 42 187 178q39 39 74 67q41 31 94 2q119 -64 180 -172q26 -45 78 -134t78 -134q2 -2 6 -20q-12 -7 -43 -29v-62 q-17 0 -27 9t-19 25t-14 22q-6 -2 -21 -7.5t-24 -7.5l-204 336q-18 -16 -143 -131t-199 -166l-33 29q-9 1 -27.5 2t-28.5 2z" />
<glyph unicode="&#xf5;" horiz-adv-x="1280" d="M-23 254q-3 44 7 92q41 191 143 311q14 16 49 61t57 68q37 37 89 64q36 20 53 55q33 72 139 84q42 7 66 -47q7 -4 21.5 -11.5t21 -12t10.5 -9.5q8 -14 11 -20.5t8 -19t4.5 -23.5t-5.5 -21q-4 -8 -6 -16.5t-3 -14t0 -16.5t1 -13.5t3 -16.5t3 -15q29 -114 17 -237 q-7 -75 -68 -177q-66 -113 -184 -180q-89 21 -150 -4q-46 -20 -71 -26q-47 -13 -85.5 -4.5t-66.5 32.5t-44.5 54.5t-19.5 62.5zM37 1417q8 21 40 37t40 25q-6 15 -17 15t-21 -5.5t-20 2.5q-4 35 37 68q116 95 248 112q64 9 123 -31l104 -75q58 -45 123 -54q151 -19 289 7 q123 21 176 102q4 -3 10.5 -9t10.5 -9q-17 -26 -23 -33l6 -8l74 38q1 -1 43 -49q-34 -140 -166 -184q-196 -67 -399 -23q-154 31 -242 117q-65 62 -139 21q-78 -38 -158 -90q-30 -22 -46.5 -19.5t-37.5 35.5l-33 -10q-12 12 -22 20zM70 422q15 27 40 53t43 41t52 41 q65 50 92 92q13 21 63 64q54 47 70 63q18 18 55 68l-16 22q-38 -24 -88 -59q-41 -27 -102.5 -92.5t-90.5 -89.5q-21 -18 -40 -45.5t-28.5 -46t-26.5 -59t-23 -52.5zM125 248q9 -1 45 -7.5t55 -9.5q0 -4 -2 -6h-90q26 -51 76 -37q10 2 37 10.5t43 10.5q75 14 127 82 q6 8 51.5 58.5t60.5 84.5q1 2 25 2q24 32 26.5 82t-4.5 96q-37 -110 -43 -129q40 152 -18 316l-8 -39q-8 12 -10 18h-11q-77 -49 -202 -174q-10 -10 -19.5 -20t-19.5 -23.5t-16 -21.5t-17 -25t-14.5 -22.5t-16 -26t-14.5 -23.5q-63 -96 -41 -196zM367 1556q15 -6 39 -13.5 t32 -10.5q-9 12 -14 17t-14.5 11.5t-20 5t-22.5 -9.5z" />
<glyph unicode="&#xf6;" horiz-adv-x="1067" d="M-23 254q-3 44 7 92q41 191 143 311q14 16 49 61t57 68q37 37 89 64q36 20 53 55q33 72 139 84q42 7 66 -47q7 -4 21.5 -11.5t21 -12t10.5 -9.5q8 -14 11 -20.5t8 -19t4.5 -23.5t-5.5 -21q-4 -8 -6 -16.5t-3 -14t0 -16.5t1 -13.5t3 -16.5t3 -15q29 -114 17 -237 q-7 -75 -68 -177q-66 -113 -184 -180q-89 21 -150 -4q-46 -20 -71 -26q-47 -13 -85.5 -4.5t-66.5 32.5t-44.5 54.5t-19.5 62.5zM70 422q15 27 40 53t43 41t52 41q65 50 92 92q13 21 63 64q54 47 70 63q18 18 55 68l-16 22q-38 -24 -88 -59q-41 -27 -102.5 -92.5t-90.5 -89.5 q-21 -18 -40 -45.5t-28.5 -46t-26.5 -59t-23 -52.5zM125 248q9 -1 45 -7.5t55 -9.5q0 -4 -2 -6h-90q26 -51 76 -37q10 2 37 10.5t43 10.5q75 14 127 82q6 8 51.5 58.5t60.5 84.5q1 2 25 2q24 32 26.5 82t-4.5 96q-37 -110 -43 -129q40 152 -18 316l-8 -39q-8 12 -10 18h-11 q-77 -49 -202 -174q-10 -10 -19.5 -20t-19.5 -23.5t-16 -21.5t-17 -25t-14.5 -22.5t-16 -26t-14.5 -23.5q-63 -96 -41 -196zM236 1493q-10 94 61 199l104 -60q16 -62 72 -82l39 -114q1 -18 -9.5 -33.5t-30.5 -33t-28 -28.5q-11 -14 -32 -10q-5 1 -23 4.5t-25 5.5t-22.5 6 t-24 8.5t-20.5 11.5t-21 15q-15 14 -24 35t-11 34.5t-5 41.5zM825 1477q9 20 20.5 40.5t30 49.5t25.5 41q32 -11 58.5 -39t52.5 -59t55 -44q-9 -24 -45 -108q-11 -31 -45 -43q-28 -9 -78.5 4t-69.5 35q-35 44 -4 123z" />
<glyph unicode="&#xf7;" horiz-adv-x="905" d="M0 520q38 27 53 35q-6 -13 -14.5 -35.5t-11.5 -30.5q-3 3 -27 31zM92 440q4 96 8 138q2 10 9.5 16.5t12.5 8.5t20 5t18 4q17 3 52 10.5t62 12t52 6.5q38 4 112 -12q64 -15 127 -6q25 5 49.5 5.5t58 -4.5t46 -7t57.5 -13t49 -12l7 -3l10 -5q86 -44 53 -140q-19 -8 -33 -16 q-20 9 -67 21.5t-70 25.5q-15 10 -70 10q-83 -3 -238 -10t-224 -10q-35 -40 -49 -43.5t-52 18.5zM299 938q8 35 17 39.5t38 -12.5q-19 -19 -25.5 -22.5t-29.5 -4.5zM356 856l25 117q58 -10 88 -78l-8 -45l-80 -41q-13 26 -25 47zM375 172q5 42 14 92l76 -20v-13 q-13 -8 -42.5 -28t-47.5 -31zM420 152l57 63q12 -6 35.5 -16.5t36.5 -16.5l-12 -59q-1 -1 -7 -6t-8 -6t-7.5 -5.5t-8 -5.5t-8 -3.5t-9 -3t-9 -1t-10 1t-10 3.5t-11.5 5z" />
<glyph unicode="&#xf9;" horiz-adv-x="993" d="M-16 168q-3 106 69 225q9 16 20.5 31.5t26.5 34t23 28.5q1 1 7.5 10t7.5 10.5t6 11t4.5 12t2.5 12.5t-1 14q-1 3 0 6.5t3 8t3 6.5q73 123 151 198q11 -2 15 2.5t-3 16.5q16 34 44.5 66.5t48.5 50t61 49.5q24 17 42 10.5t46 -39.5q-16 -8 -46.5 -14.5t-55.5 -16.5t-43 -33 q18 -9 20 -8q23 7 68 23t57 20q2 -1 15 -7t22 -9q0 -21 4 -41q-7 -1 -21 -2t-22 -2l27 -56q-11 2 -30.5 4.5t-29.5 4.5q-24 -27 -69.5 -75t-82.5 -89.5t-65 -81.5t-54.5 -87.5t-60 -113.5t-51.5 -100q28 8 53.5 21t56 32.5t46.5 28.5q-32 4 -35 4q2 4 2 10q11 9 120 102 t167 138q19 16 55 43t65 51t52 47q19 18 41.5 37.5t50.5 43t43 36.5q14 12 43 41l-2 -2q19 0 47 4q26 -28 8 -70q-19 -41 -52 -117t-44 -100q-18 14 -24 18q-5 -10 -46.5 -99t-62.5 -136q29 31 92 102l31 31q12 -7 14 -17.5t0 -16t-8 -17.5q-13 -26 -41 -76t-41 -76 q-9 -18 -38.5 -72.5t-43.5 -84.5q-12 -26 -44.5 -62.5t-41.5 -48.5l-33 31q-10 -5 -18 -11l-31 21q14 36 19 47q1 3 6.5 14t6.5 14.5t4 16t-1 17.5q-2 11 12 43q37 82 78 165q15 30 15 56q-24 -20 -35 -31q-22 -20 -112 -100t-140 -123q-107 -89 -199 -119 q-27 -13 -56.5 -12.5t-53.5 22.5q-2 2 -31 8q-53 9 -53 66zM139 342q10 -5 13 -8q15 30 30 57l-10 6zM231 203q69 34 127 92q-29 -3 -64 -28.5t-63 -63.5zM281 1907q22 13 23 38.5t-4.5 45.5t13.5 41q57 -16 93 -53.5t67 -98.5q10 -22 34 -61.5t30 -51.5q20 -33 71 -115.5 t78 -129.5q4 -7 10.5 -23.5t10.5 -23.5q27 -63 49 -93q45 -57 12 -114q-44 -36 -80 16q-7 -2 -31 -12q-2 3 -14.5 18.5t-17.5 24.5q-43 87 -103 190.5t-97.5 163.5t-115.5 182zM596 479q11 0 28 7t25 8q86 18 107 127q-21 -8 -27 -13zM709 348q1 0 3 -1t3 -1l4 21zM758 623 q8 4 10 8q1 1 -1 6q-1 4 -1 6q-1 -1 -3 -2t-3.5 -2t-1.5 -2v-14z" />
<glyph unicode="&#xfa;" horiz-adv-x="1085" d="M-16 168q-3 106 69 225q9 16 20.5 31.5t26.5 34t23 28.5q1 1 7.5 10t7.5 10.5t6 11t4.5 12t2.5 12.5t-1 14q-1 3 0 6.5t3 8t3 6.5q73 123 151 198q11 -2 15 2.5t-3 16.5q16 34 44.5 66.5t48.5 50t61 49.5q24 17 42 10.5t46 -39.5q-16 -8 -46.5 -14.5t-55.5 -16.5t-43 -33 q18 -9 20 -8q23 7 68 23t57 20q2 -1 15 -7t22 -9q0 -21 4 -41q-7 -1 -21 -2t-22 -2l27 -56q-11 2 -30.5 4.5t-29.5 4.5q-24 -27 -69.5 -75t-82.5 -89.5t-65 -81.5t-54.5 -87.5t-60 -113.5t-51.5 -100q28 8 53.5 21t56 32.5t46.5 28.5q-32 4 -35 4q2 4 2 10q11 9 120 102 t167 138q19 16 55 43t65 51t52 47q19 18 41.5 37.5t50.5 43t43 36.5q14 12 43 41l-2 -2q19 0 47 4q26 -28 8 -70q-19 -41 -52 -117t-44 -100q-18 14 -24 18q-5 -10 -46.5 -99t-62.5 -136q29 31 92 102l31 31q12 -7 14 -17.5t0 -16t-8 -17.5q-13 -26 -41 -76t-41 -76 q-9 -18 -38.5 -72.5t-43.5 -84.5q-12 -26 -44.5 -62.5t-41.5 -48.5l-33 31q-10 -5 -18 -11l-31 21q14 36 19 47q1 3 6.5 14t6.5 14.5t4 16t-1 17.5q-2 11 12 43q37 82 78 165q15 30 15 56q-24 -20 -35 -31q-22 -20 -112 -100t-140 -123q-107 -89 -199 -119 q-27 -13 -56.5 -12.5t-53.5 22.5q-2 2 -31 8q-53 9 -53 66zM139 342q10 -5 13 -8q15 30 30 57l-10 6zM231 203q69 34 127 92q-29 -3 -64 -28.5t-63 -63.5zM451 1303q0 35 2 51q8 67 39 94q35 28 67.5 58t69.5 73.5t54 64.5t62 80t54 70l108 148l37 43l103 -70 q28 -38 -23 -96q-38 -43 -112.5 -137t-116.5 -140q-83 -96 -193 -188q-58 -48 -117 -56q-2 0 -34 5zM578 1298q14 12 51 41l6 -10q-15 -11 -49 -41q-4 8 -8 10zM596 479q11 0 28 7t25 8q86 18 107 127q-21 -8 -27 -13zM709 348q1 0 3 -1t3 -1l4 21zM758 623q8 4 10 8 q1 1 -1 6q-1 4 -1 6q-1 -1 -3 -2t-3.5 -2t-1.5 -2v-14z" />
<glyph unicode="&#xfb;" horiz-adv-x="1044" d="M-16 168q-3 106 69 225q9 16 20.5 31.5t26.5 34t23 28.5q1 1 7.5 10t7.5 10.5t6 11t4.5 12t2.5 12.5t-1 14q-1 3 0 6.5t3 8t3 6.5q73 123 151 198q11 -2 15 2.5t-3 16.5q16 34 44.5 66.5t48.5 50t61 49.5q24 17 42 10.5t46 -39.5q-16 -8 -46.5 -14.5t-55.5 -16.5t-43 -33 q18 -9 20 -8q23 7 68 23t57 20q2 -1 15 -7t22 -9q0 -21 4 -41q-7 -1 -21 -2t-22 -2l27 -56q-11 2 -30.5 4.5t-29.5 4.5q-24 -27 -69.5 -75t-82.5 -89.5t-65 -81.5t-54.5 -87.5t-60 -113.5t-51.5 -100q28 8 53.5 21t56 32.5t46.5 28.5q-32 4 -35 4q2 4 2 10q11 9 120 102 t167 138q19 16 55 43t65 51t52 47q19 18 41.5 37.5t50.5 43t43 36.5q14 12 43 41l-2 -2q19 0 47 4q26 -28 8 -70q-19 -41 -52 -117t-44 -100q-18 14 -24 18q-5 -10 -46.5 -99t-62.5 -136q29 31 92 102l31 31q12 -7 14 -17.5t0 -16t-8 -17.5q-13 -26 -41 -76t-41 -76 q-9 -18 -38.5 -72.5t-43.5 -84.5q-12 -26 -44.5 -62.5t-41.5 -48.5l-33 31q-10 -5 -18 -11l-31 21q14 36 19 47q1 3 6.5 14t6.5 14.5t4 16t-1 17.5q-2 11 12 43q37 82 78 165q15 30 15 56q-24 -20 -35 -31q-22 -20 -112 -100t-140 -123q-107 -89 -199 -119 q-27 -13 -56.5 -12.5t-53.5 22.5q-2 2 -31 8q-53 9 -53 66zM139 342q10 -5 13 -8q15 30 30 57l-10 6zM231 203q69 34 127 92q-29 -3 -64 -28.5t-63 -63.5zM233 1243l13 82q6 50 73 109q46 42 187 178q39 39 74 67q41 31 94 2q119 -64 180 -172q26 -45 78 -134t78 -134 q2 -2 6 -20q-12 -7 -43 -29v-62q-17 0 -27 9t-19 25t-14 22q-6 -2 -21 -7.5t-24 -7.5l-204 336q-18 -16 -143 -131t-199 -166l-33 29q-9 1 -27.5 2t-28.5 2zM596 479q11 0 28 7t25 8q86 18 107 127q-21 -8 -27 -13zM709 348q1 0 3 -1t3 -1l4 21zM758 623q8 4 10 8q1 1 -1 6 q-1 4 -1 6q-1 -1 -3 -2t-3.5 -2t-1.5 -2v-14z" />
<glyph unicode="&#xfc;" horiz-adv-x="1095" d="M-16 168q-3 106 69 225q9 16 20.5 31.5t26.5 34t23 28.5q1 1 7.5 10t7.5 10.5t6 11t4.5 12t2.5 12.5t-1 14q-1 3 0 6.5t3 8t3 6.5q73 123 151 198q11 -2 15 2.5t-3 16.5q16 34 44.5 66.5t48.5 50t61 49.5q24 17 42 10.5t46 -39.5q-16 -8 -46.5 -14.5t-55.5 -16.5t-43 -33 q18 -9 20 -8q23 7 68 23t57 20q2 -1 15 -7t22 -9q0 -21 4 -41q-7 -1 -21 -2t-22 -2l27 -56q-11 2 -30.5 4.5t-29.5 4.5q-24 -27 -69.5 -75t-82.5 -89.5t-65 -81.5t-54.5 -87.5t-60 -113.5t-51.5 -100q28 8 53.5 21t56 32.5t46.5 28.5q-32 4 -35 4q2 4 2 10q11 9 120 102 t167 138q19 16 55 43t65 51t52 47q19 18 41.5 37.5t50.5 43t43 36.5q14 12 43 41l-2 -2q19 0 47 4q26 -28 8 -70q-19 -41 -52 -117t-44 -100q-18 14 -24 18q-5 -10 -46.5 -99t-62.5 -136q29 31 92 102l31 31q12 -7 14 -17.5t0 -16t-8 -17.5q-13 -26 -41 -76t-41 -76 q-9 -18 -38.5 -72.5t-43.5 -84.5q-12 -26 -44.5 -62.5t-41.5 -48.5l-33 31q-10 -5 -18 -11l-31 21q14 36 19 47q1 3 6.5 14t6.5 14.5t4 16t-1 17.5q-2 11 12 43q37 82 78 165q15 30 15 56q-24 -20 -35 -31q-22 -20 -112 -100t-140 -123q-107 -89 -199 -119 q-27 -13 -56.5 -12.5t-53.5 22.5q-2 2 -31 8q-53 9 -53 66zM139 342q10 -5 13 -8q15 30 30 57l-10 6zM231 203q69 34 127 92q-29 -3 -64 -28.5t-63 -63.5zM236 1493q-10 94 61 199l104 -60q16 -62 72 -82l39 -114q1 -18 -9.5 -33.5t-30.5 -33t-28 -28.5q-11 -14 -32 -10 q-5 1 -23 4.5t-25 5.5t-22.5 6t-24 8.5t-20.5 11.5t-21 15q-15 14 -24 35t-11 34.5t-5 41.5zM596 479q11 0 28 7t25 8q86 18 107 127q-21 -8 -27 -13zM709 348q1 0 3 -1t3 -1l4 21zM758 623q8 4 10 8q1 1 -1 6q-1 4 -1 6q-1 -1 -3 -2t-3.5 -2t-1.5 -2v-14zM825 1477 q9 20 20.5 40.5t30 49.5t25.5 41q32 -11 58.5 -39t52.5 -59t55 -44q-9 -24 -45 -108q-11 -31 -45 -43q-28 -9 -78.5 4t-69.5 35q-35 44 -4 123z" />
<glyph unicode="&#xfd;" horiz-adv-x="933" d="M-492 -795q0 21 23.5 54t24.5 57q-6 -3 -41 -23q1 3 1 7.5t0.5 7t2.5 4.5q146 198 248 330l354 467q26 34 81 103.5t83 106.5l14 21l-47 -6q-46 -2 -98 31q-103 64 -97 200q2 28 5.5 87t5.5 89q1 18 27 68.5t38 62.5q1 1 6.5 6t7.5 6t7 4.5t8.5 3.5t8.5 -0.5t11 -2.5 q23 -11 23 -49q43 -30 59 -39q14 -59 -26 -99q-13 -13 -17 -32q-4 -53 -8 -150q15 1 28 4t27 9t21 9.5t24 13t21 11.5q26 15 51.5 31t52.5 36.5t46.5 35.5t48.5 41t44 39t46.5 44t41.5 41l45 45l42 42q13 13 37.5 33.5t33.5 29.5q7 -8 26.5 -28t30 -33.5t15.5 -28.5 q22 -58 -8 -92q-35 -41 -115 -146l-850 -1099l-225 -293q-11 -15 -34.5 -40.5t-27.5 -29.5q-13 13 -37 14.5t-32 4.5v59q-8 -10 -20.5 -24t-21.5 -24.5t-16 -19.5zM100 641v72q-21 -151 27 -262q15 31 -2 61q-28 64 -25 129zM451 1303q0 35 2 51q8 67 39 94q35 28 67.5 58 t69.5 73.5t54 64.5t62 80t54 70l108 148l37 43l103 -70q28 -38 -23 -96q-38 -43 -112.5 -137t-116.5 -140q-83 -96 -193 -188q-58 -48 -117 -56q-2 0 -34 5zM578 1298q14 12 51 41l6 -10q-15 -11 -49 -41q-4 8 -8 10z" />
<glyph unicode="&#xff;" horiz-adv-x="944" d="M-492 -795q0 21 23.5 54t24.5 57q-6 -3 -41 -23q1 3 1 7.5t0.5 7t2.5 4.5q146 198 248 330l354 467q26 34 81 103.5t83 106.5l14 21l-47 -6q-46 -2 -98 31q-103 64 -97 200q2 28 5.5 87t5.5 89q1 18 27 68.5t38 62.5q1 1 6.5 6t7.5 6t7 4.5t8.5 3.5t8.5 -0.5t11 -2.5 q23 -11 23 -49q43 -30 59 -39q14 -59 -26 -99q-13 -13 -17 -32q-4 -53 -8 -150q15 1 28 4t27 9t21 9.5t24 13t21 11.5q26 15 51.5 31t52.5 36.5t46.5 35.5t48.5 41t44 39t46.5 44t41.5 41l45 45l42 42q13 13 37.5 33.5t33.5 29.5q7 -8 26.5 -28t30 -33.5t15.5 -28.5 q22 -58 -8 -92q-35 -41 -115 -146l-850 -1099l-225 -293q-11 -15 -34.5 -40.5t-27.5 -29.5q-13 13 -37 14.5t-32 4.5v59q-8 -10 -20.5 -24t-21.5 -24.5t-16 -19.5zM100 641v72q-21 -151 27 -262q15 31 -2 61q-28 64 -25 129zM236 1493q-10 94 61 199l104 -60q16 -62 72 -82 l39 -114q1 -18 -9.5 -33.5t-30.5 -33t-28 -28.5q-11 -14 -32 -10q-5 1 -23 4.5t-25 5.5t-22.5 6t-24 8.5t-20.5 11.5t-21 15q-15 14 -24 35t-11 34.5t-5 41.5zM825 1477q9 20 20.5 40.5t30 49.5t25.5 41q32 -11 58.5 -39t52.5 -59t55 -44q-9 -24 -45 -108q-11 -31 -45 -43 q-28 -9 -78.5 4t-69.5 35q-35 44 -4 123z" />
<glyph unicode="&#x2c6;" d="M233 1243l13 82q6 50 73 109q46 42 187 178q39 39 74 67q41 31 94 2q119 -64 180 -172q26 -45 78 -134t78 -134q2 -2 6 -20q-12 -7 -43 -29v-62q-17 0 -27 9t-19 25t-14 22q-6 -2 -21 -7.5t-24 -7.5l-204 336q-18 -16 -143 -131t-199 -166l-33 29q-9 1 -27.5 2t-28.5 2z " />
<glyph unicode="&#x2dc;" d="M37 1417q8 21 40 37t40 25q-6 15 -17 15t-21 -5.5t-20 2.5q-4 35 37 68q116 95 248 112q64 9 123 -31l104 -75q58 -45 123 -54q151 -19 289 7q123 21 176 102q4 -3 10.5 -9t10.5 -9q-17 -26 -23 -33l6 -8l74 38q1 -1 43 -49q-34 -140 -166 -184q-196 -67 -399 -23 q-154 31 -242 117q-65 62 -139 21q-78 -38 -158 -90q-30 -22 -46.5 -19.5t-37.5 35.5l-33 -10q-12 12 -22 20zM367 1556q15 -6 39 -13.5t32 -10.5q-9 12 -14 17t-14.5 11.5t-20 5t-22.5 -9.5z" />
<glyph unicode="&#x2000;" horiz-adv-x="2258" />
<glyph unicode="&#x2001;" horiz-adv-x="4517" />
<glyph unicode="&#x2002;" horiz-adv-x="2258" />
<glyph unicode="&#x2003;" horiz-adv-x="4517" />
<glyph unicode="&#x2004;" horiz-adv-x="1505" />
<glyph unicode="&#x2005;" horiz-adv-x="1129" />
<glyph unicode="&#x2006;" horiz-adv-x="752" />
<glyph unicode="&#x2007;" horiz-adv-x="752" />
<glyph unicode="&#x2008;" horiz-adv-x="564" />
<glyph unicode="&#x2009;" horiz-adv-x="903" />
<glyph unicode="&#x200a;" horiz-adv-x="250" />
<glyph unicode="&#x2010;" d="M215 588q-7 47 49 84q81 60 189 57q301 -15 485 -55q13 -2 63 -19q2 -5 7 -22.5t8 -24.5q28 -55 18 -85t-65 -58q-252 62 -553 72q-77 4 -125 -27q-35 15 -41 24t-4 44q-12 2 -31 10z" />
<glyph unicode="&#x2011;" d="M215 588q-7 47 49 84q81 60 189 57q301 -15 485 -55q13 -2 63 -19q2 -5 7 -22.5t8 -24.5q28 -55 18 -85t-65 -58q-252 62 -553 72q-77 4 -125 -27q-35 15 -41 24t-4 44q-12 2 -31 10z" />
<glyph unicode="&#x2012;" d="M215 588q-7 47 49 84q81 60 189 57q301 -15 485 -55q13 -2 63 -19q2 -5 7 -22.5t8 -24.5q28 -55 18 -85t-65 -58q-252 62 -553 72q-77 4 -125 -27q-35 15 -41 24t-4 44q-12 2 -31 10z" />
<glyph unicode="&#x2013;" d="M158 616q3 16 4 17q8 8 28 24.5t29 26.5q21 24 64 27q40 4 63 4q89 3 268 8t269 8q22 1 67.5 4t69.5 4q0 -27 2 -45l-201 -37q85 -22 164 7q-2 -16 -6 -31q7 -13 17.5 -14.5t23 1.5t18.5 1q-2 -31 -17 -47t-50 -19q-23 -2 -66 -2.5t-57 -1.5q-111 -4 -309 -16 q-108 -3 -213 -3q-17 -1 -37 -1t-46 0.5t-42 0.5q-6 39 -11 58z" />
<glyph unicode="&#x2014;" d="M-51 664q64 44 71 49q7 0 31 -4q-3 9 -8 36q9 9 14 9q50 4 76 2q19 0 96.5 -1t111 -1.5t92 -4.5t106.5 -10q45 -6 128.5 -13t108.5 -9q19 -1 29.5 -3t24.5 -9t22 -21q3 -4 20 -10q20 -3 61.5 -11t67 -12.5t62.5 -7.5t70 -2q-8 4 -24 13t-24 12q6 3 25 1t25 -2t25 -4 t25 -5.5t25 -7t25 -7.5q44 -97 45 -100q-3 -7 -20 -52q-36 -16 -56 -26q-387 96 -915 106q-24 0 -51 1t-61 2.5t-52 2.5h-25q-62 -3 -118 21z" />
<glyph unicode="&#x2018;" horiz-adv-x="493" d="M102 1049q0 12 4 16q13 23 50 27q69 9 90 79q12 42 18 69.5t6 65.5t-12 72q-2 6 -6 12.5t-11.5 15t-11.5 13.5q13 38 17 56l61 36q4 -6 14.5 -18.5t16.5 -19.5h43q31 -115 -21.5 -282.5t-140.5 -238.5q-8 0 -29.5 -3t-33 -2.5t-24 11.5t-17.5 35q5 2 39 19q0 16 2 28 q-9 1 -27 4.5t-27 4.5z" />
<glyph unicode="&#x2019;" horiz-adv-x="491" d="M111 1124q27 127 90 209q11 14 25 27t33 29.5t26 23.5q45 -4 69 -28.5t35 -69.5q-2 -3 -14.5 -24t-20.5 -29q-86 -86 -96 -236q44 -64 46 -85.5t-30 -70.5q-2 0 -14 -2.5t-12 0.5q-6 3 -27.5 12.5t-30.5 15t-24.5 16t-25.5 23.5t-17 30q-31 83 -12 159z" />
</font>
</defs>
</svg>
